<?xml version="1.0" standalone="no"?>
<!DOCTYPE svg PUBLIC "-//W3C//DTD SVG 1.1//EN" "http://www.w3.org/Graphics/SVG/1.1/DTD/svg11.dtd" >
<svg>
<metadata>
Created by FontForge 20090622 at Mon Sep 25 23:06:24 2017
 By deploy user
Copyright (c) Manfred Klein inspired by Schoensperger
</metadata>
<defs>
<font id="MyElectronicSchwabach" horiz-adv-x="500" >
  <font-face 
    font-family="MyElectronicSchwabach"
    font-weight="500"
    font-stretch="normal"
    units-per-em="1000"
    panose-1="2 0 6 6 7 0 0 2 0 3"
    ascent="800"
    descent="-200"
    x-height="333"
    cap-height="524"
    bbox="-31 -207 799 775"
    underline-thickness="20"
    underline-position="-123"
    unicode-range="U+0005-U+E00D"
  />
<missing-glyph horiz-adv-x="1000" 
 />
    <glyph glyph-name=".notdef" horiz-adv-x="1000" 
 />
    <glyph glyph-name="breve" horiz-adv-x="158" 
d="M226 403q-13 -3 -25 0.5t-24 9t-23 10t-21 4.5q-20 0 -40 -22.5t-36 -51.5t-25.5 -56.5t-9.5 -36.5q0 -4 2 -29.5t6 -62.5l9 -79.5t11.5 -80.5t13.5 -67.5t14 -38.5q12 45 18.5 84.5t8 78t-2 79.5t-9.5 89q-2 15 -5 23l-6 16.5t-5 21.5t-2 37q0 2 3.5 11t11 20t19.5 11
q4 0 12.5 -2.5t17.5 -6t17.5 -6t12.5 -2.5q16 0 29.5 13.5t27.5 33.5z" />
    <glyph glyph-name="dotaccent" horiz-adv-x="158" 
d="M226 403q-13 -3 -25 0.5t-24 9t-23 10t-21 4.5q-20 0 -40 -22.5t-36 -51.5t-25.5 -56.5t-9.5 -36.5q0 -4 2 -29.5t6 -62.5l9 -79.5t11.5 -80.5t13.5 -67.5t14 -38.5q12 45 18.5 84.5t8 78t-2 79.5t-9.5 89q-2 15 -5 23l-6 16.5t-5 21.5t-2 37q0 2 3.5 11t11 20t19.5 11
q4 0 12.5 -2.5t17.5 -6t17.5 -6t12.5 -2.5q16 0 29.5 13.5t27.5 33.5z" />
    <glyph glyph-name="ring" horiz-adv-x="158" 
d="M226 403q-13 -3 -25 0.5t-24 9t-23 10t-21 4.5q-20 0 -40 -22.5t-36 -51.5t-25.5 -56.5t-9.5 -36.5q0 -4 2 -29.5t6 -62.5l9 -79.5t11.5 -80.5t13.5 -67.5t14 -38.5q12 45 18.5 84.5t8 78t-2 79.5t-9.5 89q-2 15 -5 23l-6 16.5t-5 21.5t-2 37q0 2 3.5 11t11 20t19.5 11
q4 0 12.5 -2.5t17.5 -6t17.5 -6t12.5 -2.5q16 0 29.5 13.5t27.5 33.5z" />
    <glyph glyph-name="hungarumlaut" unicode="&#xa;" horiz-adv-x="158" 
d="M226 403q-13 -3 -25 0.5t-24 9t-23 10t-21 4.5q-20 0 -40 -22.5t-36 -51.5t-25.5 -56.5t-9.5 -36.5q0 -4 2 -29.5t6 -62.5l9 -79.5t11.5 -80.5t13.5 -67.5t14 -38.5q12 45 18.5 84.5t8 78t-2 79.5t-9.5 89q-2 15 -5 23l-6 16.5t-5 21.5t-2 37q0 2 3.5 11t11 20t19.5 11
q4 0 12.5 -2.5t17.5 -6t17.5 -6t12.5 -2.5q16 0 29.5 13.5t27.5 33.5z" />
    <glyph glyph-name="ogonek" horiz-adv-x="158" 
d="M226 403q-13 -3 -25 0.5t-24 9t-23 10t-21 4.5q-20 0 -40 -22.5t-36 -51.5t-25.5 -56.5t-9.5 -36.5q0 -4 2 -29.5t6 -62.5l9 -79.5t11.5 -80.5t13.5 -67.5t14 -38.5q12 45 18.5 84.5t8 78t-2 79.5t-9.5 89q-2 15 -5 23l-6 16.5t-5 21.5t-2 37q0 2 3.5 11t11 20t19.5 11
q4 0 12.5 -2.5t17.5 -6t17.5 -6t12.5 -2.5q16 0 29.5 13.5t27.5 33.5z" />
    <glyph glyph-name="caron" horiz-adv-x="158" 
d="M226 403q-13 -3 -25 0.5t-24 9t-23 10t-21 4.5q-20 0 -40 -22.5t-36 -51.5t-25.5 -56.5t-9.5 -36.5q0 -4 2 -29.5t6 -62.5l9 -79.5t11.5 -80.5t13.5 -67.5t14 -38.5q12 45 18.5 84.5t8 78t-2 79.5t-9.5 89q-2 15 -5 23l-6 16.5t-5 21.5t-2 37q0 2 3.5 11t11 20t19.5 11
q4 0 12.5 -2.5t17.5 -6t17.5 -6t12.5 -2.5q16 0 29.5 13.5t27.5 33.5z" />
    <glyph glyph-name="dotlessi" unicode="&#xd;" horiz-adv-x="186" 
d="M164 74q-7 3 -16.5 2t-16.5 -5q-16 12 -18 26t-2 21q0 49 4.5 75.5t11.5 41t14 23t12 20.5q-5 1 -9.5 -0.5t-12.5 -1.5q-3 0 -9.5 4.5t-13.5 11.5t-13 15.5t-8 16.5l-36 -42t-29 -40q18 -11 24 -26t6.5 -33.5t-2 -39t-2 -42t7 -43.5t24.5 -42q-6 -5 -8 -13t1 -10
q11 3 23.5 13.5t25 23.5l23.5 25t19 19z" />
    <glyph glyph-name="fraction" horiz-adv-x="264" 
d="M242 435h-6l-214 -553l6 -2z" />
    <glyph glyph-name="fi" horiz-adv-x="158" 
d="M226 403q-13 -3 -25 0.5t-24 9t-23 10t-21 4.5q-20 0 -40 -22.5t-36 -51.5t-25.5 -56.5t-9.5 -36.5q0 -4 2 -29.5t6 -62.5l9 -79.5t11.5 -80.5t13.5 -67.5t14 -38.5q12 45 18.5 84.5t8 78t-2 79.5t-9.5 89q-2 15 -5 23l-6 16.5t-5 21.5t-2 37q0 2 3.5 11t11 20t19.5 11
q4 0 12.5 -2.5t17.5 -6t17.5 -6t12.5 -2.5q16 0 29.5 13.5t27.5 33.5z" />
    <glyph glyph-name="fl" horiz-adv-x="158" 
d="M226 403q-13 -3 -25 0.5t-24 9t-23 10t-21 4.5q-20 0 -40 -22.5t-36 -51.5t-25.5 -56.5t-9.5 -36.5q0 -4 2 -29.5t6 -62.5l9 -79.5t11.5 -80.5t13.5 -67.5t14 -38.5q12 45 18.5 84.5t8 78t-2 79.5t-9.5 89q-2 15 -5 23l-6 16.5t-5 21.5t-2 37q0 2 3.5 11t11 20t19.5 11
q4 0 12.5 -2.5t17.5 -6t17.5 -6t12.5 -2.5q16 0 29.5 13.5t27.5 33.5z" />
    <glyph glyph-name="lslash" 
 />
    <glyph glyph-name="Zcaron" 
 />
    <glyph glyph-name="zcaron" 
 />
    <glyph glyph-name="space" unicode=" " horiz-adv-x="153" 
 />
    <glyph glyph-name="exclam" unicode="!" horiz-adv-x="168" 
d="M146 367q-17 14 -34 30t-30 30q-14 -17 -30 -33.5t-30 -26.5q18 -30 28 -71t16 -78t11 -63t15 -26l7.5 64t8.5 60.5t14 58t24 55.5zM142 51q-17 14 -33.5 29.5t-26.5 26.5q-13 -18 -29 -34l-27 -27q17 -13 33.5 -29l26.5 -26q14 17 29.5 33.5t26.5 26.5z" />
    <glyph glyph-name="quotedbl" unicode="&#x22;" horiz-adv-x="196" 
d="M174 387q0 3 -0.5 10.5t-3 15t-7.5 13t-13 5.5q-10 0 -15 -5.5t-7.5 -13.5t-2.5 -17v-13q0 -15 3 -34.5t7 -38t8 -34t7 -22.5q3 17 7.5 38.5t8 41.5l6 35t2.5 19zM72 387q0 3 -0.5 10.5t-2.5 15t-7.5 13t-14.5 5.5q-8 0 -15 -5t-9 -9q-4 -42 5 -85t19 -79q3 17 7.5 38.5
l8.5 41.5t6.5 35t2.5 19z" />
    <glyph glyph-name="numbersign" unicode="#" horiz-adv-x="168" 
d="M248 407q-10 3 -22.5 9t-25 11l-22.5 9t-14 4q-19 0 -36.5 -12t-32.5 -30t-28 -40t-22 -41.5t-15 -34t-8 -18.5q7 -7 12 -13t5 -14v-145q0 -4 2 -25t5 -47.5l6 -53t6 -41.5q8 2 15 26t13 58.5t10.5 75t8 76t5 61.5t1.5 31q0 4 -4 16t-9.5 25.5t-9.5 25t-4 16.5
q0 6 4 15.5t11.5 18.5t17 15t20.5 6q4 0 12 -4t17 -9.5t17 -9.5t12 -4t11 4.5t14.5 11.5l15 14.5z" />
    <glyph glyph-name="dollar" unicode="$" horiz-adv-x="338" 
d="M316 85v87q0 30 -21 47.5t-47.5 26t-50 11t-29.5 4.5v95q20 -3 40 -8.5t28 -5.5q4 0 12 8t16.5 19.5l16.5 23t12 19.5q-30 0 -62 5.5t-63 12.5v63q-6 -6 -8.5 -14t-2.5 -17v-18q0 -8 -2 -14l-34 -13.5t-27 -14.5q-36 -26 -47 -58t-11 -62t6.5 -48t21 -28.5t37 -15.5
t55.5 -11v-91h-67q3 10 8 17.5t5 14.5q0 3 -2 9t-6.5 12t-11 10.5t-15.5 4.5q-11 0 -19.5 -7t-14 -17t-8.5 -21.5t-3 -19.5q0 -39 10.5 -55.5t26.5 -21.5t34.5 -4.5t34 -5t25.5 -23t9 -57.5q4 17 5 38.5t-2 34.5h149q-30 1 -63 1.5t-60 3.5q16 -2 34.5 9.5t36 26.5t32 29
t22.5 18zM155 258h-23q-12 0 -24 6.5t-21 16.5t-14.5 21t-5.5 20q0 20 13 38t36 18q8 0 18.5 -2.5t20.5 -2.5v-115zM297 83h-52v7h52v-7zM249 118q0 -8 -1 -15.5t-4 -13.5h-74v93h32q12 0 21 -8.5t15 -19.5t8.5 -21.5t2.5 -14.5zM240 84q0 -6 -7 -16.5t-17 -20.5t-22 -17
t-24 -7v61h70zM155 14h-50q-5 0 -14 4.5t-18 11t-16 13.5t-8 12l5 29h101v-70z" />
    <glyph glyph-name="percent" unicode="%" horiz-adv-x="338" 
d="M173 324q0 11 -4 25.5t-12.5 29t-21.5 27.5t-31 21q-19 -18 -34.5 -31t-26 -25t-16 -24t-5.5 -27q0 -1 6 -17t16.5 -35t24.5 -34.5t31 -15.5q15 0 28.5 14.5t23 33t15.5 35.5t6 23zM306 424l-279 -418q3 0 7 -3l4 -3zM316 109l-6.5 15.5t-17 34.5t-24 34.5t-26.5 15.5
q-14 0 -27.5 -14t-24.5 -32.5t-18 -36t-7 -24.5q0 -20 14 -48.5t55 -53.5q35 27 58.5 56t23.5 53zM147 307q0 -11 -8.5 -25.5t-20.5 -28.5q-24 19 -42 40t-18 47q0 8 8 22t16 25q11 -5 22.5 -15t21 -22t15.5 -24t6 -19zM280 89q0 -11 -8.5 -25.5t-20.5 -27.5
q-27 24 -43.5 43.5t-16.5 42.5q0 8 7 22t17 25q10 -2 21 -11.5t21 -21.5t16.5 -25t6.5 -22z" />
    <glyph glyph-name="ampersand" unicode="&#x26;" horiz-adv-x="448" 
d="M426 299q-10 -6 -15 -11.5t-10.5 -9t-15 -5.5t-27.5 -2h-19t-31 4l-21 -49.5t-23 -47.5l-31.5 44.5l-28.5 41.5q40 23 64.5 43.5t24.5 52.5q0 1 -2.5 12t-7.5 24t-13 24t-19 11q-18 0 -43.5 -11.5t-49 -29.5t-40 -39.5t-16.5 -41.5q0 -4 2.5 -12t6.5 -17.5l8.5 -19.5
t9.5 -17q-4 -3 -21.5 -14t-36.5 -25.5t-34 -30.5t-15 -29q0 -5 13 -28t31 -49t36.5 -46.5t30.5 -20.5q11 0 24.5 10.5t27 25t26 30.5t22.5 27l40 -48t40 -45q27 27 53.5 49.5t46.5 42.5q-9 2 -17 -1.5t-15 -9t-13 -11.5t-10 -8l-83 103q7 12 14 25.5t15 13.5t20 -2t20 -2
q14 0 22 1t15.5 10t17 29.5zM231 329q0 -10 -8.5 -25t-25.5 -24l-25.5 36t-11.5 35q0 5 3 12t8 13t10.5 10.5t11.5 4.5q7 0 13.5 -9.5t12 -21t9 -21t3.5 -10.5zM222 111q0 -4 -5.5 -11t-12.5 -14.5t-14.5 -13t-11.5 -5.5q-14 0 -28.5 17t-26 37.5t-18.5 37.5l-7 17
q0 17 9.5 27t28.5 24q10 -14 24.5 -32l28 -35.5l23.5 -31t10 -17.5z" />
    <glyph glyph-name="quotesingle" unicode="'" horiz-adv-x="95" 
d="M71 422q-4 2 -9 5.5t-13 3.5q-6 0 -11 -4.5t-8.5 -10.5t-5.5 -12.5t-2 -10.5t2.5 -20t6.5 -37t9 -43.5l9 -39.5q10 37 18 84t4 85z" />
    <glyph glyph-name="parenleft" unicode="(" horiz-adv-x="178" 
d="M156 -104q-24 37 -38 73.5t-21.5 70t-9.5 63.5t-2 55q0 36 2 64t8.5 57.5t20 64t37.5 82.5q-26 -12 -49.5 -44t-41.5 -71.5t-29 -81t-11 -73.5q0 -33 9 -70.5t26 -74t40 -70t52 -57.5q4 4 5.5 8z" />
    <glyph glyph-name="parenright" unicode=")" horiz-adv-x="176" 
d="M154 156q0 29 -10 70t-28 81.5t-42 73.5t-52 45q24 -46 38 -85t21 -72t9 -61t2 -50q0 -39 -1.5 -68t-8.5 -57t-21 -61.5t-39 -81.5q25 10 49 41.5t42.5 72t29.5 82t11 70.5z" />
    <glyph glyph-name="asterisk" unicode="*" horiz-adv-x="268" 
d="M246 345q-15 0 -29 3.5l-25 6.5q-7 -10 -18 -20.5t-19 -10.5t-10.5 5t-2.5 13t7.5 18l14.5 20q-7 10 -14.5 23t-14.5 24q-6 -14 -13.5 -27.5t-15.5 -23.5l12.5 -19.5t5.5 -16.5t-2 -12l-2 -4q-13 1 -20.5 5.5t-11 9.5t-4.5 9.5t-1 6.5q-20 -4 -35.5 -6.5t-25.5 1.5
q10 -7 20.5 -20t21.5 -23q7 3 13 6t14 3t13 -3t11 -9q-6 -14 -22 -22t-22 -7q0 -14 -2.5 -28t-5.5 -24q13 7 27.5 13l24.5 10q-3 12 2 27.5t18 19.5q16 -11 17.5 -26t3.5 -26q10 -4 23.5 -10t23.5 -13q-3 12 -4 27.5t0 29.5q-12 1 -23.5 11t-15.5 18q6 7 10 9.5t12 2.5
t12 -4.5t12 -4.5t20 14z" />
    <glyph glyph-name="plus" unicode="+" horiz-adv-x="304" 
d="M282 192v45h-102v100h-58v-102h-100v-45h102v-100h58v102h100z" />
    <glyph glyph-name="comma" unicode="," horiz-adv-x="130" 
d="M108 78q0 5 -5.5 14.5t-21.5 9.5q-12 0 -21 -14t-15 -35t-10 -46.5t-7 -48.5t-4 -41t-2 -24q6 8 20 33l29 54.5t26 57t11 40.5z" />
    <glyph glyph-name="hyphen" unicode="-" horiz-adv-x="150" 
d="M128 206v22l-55 -10t-51 -10v-26q27 5 55 12t51 12zM128 150l-5 25l-50.5 -11t-50.5 -9v-25l55 10t51 10z" />
    <glyph glyph-name="period" unicode="." horiz-adv-x="160" 
d="M138 68q-17 14 -33.5 29.5t-26.5 26.5q-14 -17 -31 -33.5t-25 -27.5q17 -13 34 -28.5t26 -26.5q14 17 29.5 32t26.5 28z" />
    <glyph glyph-name="slash" unicode="/" horiz-adv-x="264" 
d="M242 435h-6l-214 -553l6 -2z" />
    <glyph glyph-name="zero" unicode="0" horiz-adv-x="342" 
d="M320 211q0 36 -12.5 62t-33.5 48.5t-49 45t-59 51.5q-27 -34 -53 -63.5t-46 -57t-32.5 -54.5t-12.5 -56q0 -28 10.5 -51.5t29.5 -46.5t46.5 -46.5l62.5 -51.5l64 63.5t46.5 54.5t28.5 50.5t10 51.5zM262 173q0 -21 -3 -34.5t-8.5 -25t-14 -23.5l-20.5 -28
q-63 34 -99.5 78t-36.5 98q0 10 3 23.5t9 27.5t14.5 28t19.5 25l53 -37.5t43.5 -38.5t29 -43t10.5 -50z" />
    <glyph glyph-name="one" unicode="1" horiz-adv-x="234" 
d="M212 421l-78.5 -19.5t-72.5 -16.5q9 -4 14.5 -13.5t9 -20.5t5 -21.5t3.5 -16.5l4 -177q1 -26 -1 -44.5t-9.5 -35t-22.5 -34.5t-42 -43q22 10 46.5 23l48.5 25t47.5 21t43.5 12q-15 0 -24 13t-13.5 29.5t-5.5 31t-1 19.5q0 52 -1 82t-2 46.5t-1.5 22.5t-0.5 9q0 21 4.5 36
t12 27t17 22.5z" />
    <glyph glyph-name="two" unicode="2" horiz-adv-x="350" 
d="M328 119q-16 -6 -23 -14.5l-13 -16t-14.5 -12.5t-26.5 -5q-9 0 -27 2l-38.5 4.5t-42 4t-37.5 1.5q31 30 64.5 53l61.5 44t46.5 42t18.5 47q0 34 -18 53.5t-44 33.5l-54.5 28.5t-50.5 37.5q-38 -50 -67.5 -83t-40.5 -61q32 18 60.5 28t48.5 10q9 0 25 -5t31.5 -15
t27 -24.5t11.5 -33.5q0 -5 -14 -22.5t-35.5 -42l-47 -53l-48 -55.5t-39 -49.5t-20.5 -34.5q17 3 27.5 8l21.5 10.5t27 9.5t44 4q22 0 39.5 -4t31 -9.5t24 -10.5t19.5 -7l36 70.5z" />
    <glyph glyph-name="three" unicode="3" horiz-adv-x="280" 
d="M258 140q0 28 -19 58t-57 53q26 26 33 40.5t7 30.5q0 22 -13.5 39.5t-32 29.5t-37.5 19t-31 8q-20 -27 -45.5 -55.5l-40.5 -46.5l25 10.5t25 10t21 7.5t13 3q10 0 21 -4.5t20.5 -12.5t15.5 -20t6 -28q0 -19 -15.5 -36t-36 -31t-39.5 -24t-25 -16q17 3 36.5 7.5t28.5 4.5
q14 0 27 -7t23.5 -18.5t16.5 -27t6 -32.5q0 -5 -4 -21t-12.5 -33t-21.5 -30.5t-31 -13.5q-11 0 -15 5.5t-7 12.5t-8 12.5t-17 5.5q-14 0 -22.5 -8t-8.5 -25q0 -20 14.5 -27t27.5 -7q27 0 57 13.5t55.5 37t42.5 53.5t17 63z" />
    <glyph glyph-name="four" unicode="4" horiz-adv-x="344" 
d="M322 240q-10 -7 -24.5 -19t-22.5 -12q-5 0 -6.5 14t-2.5 32t-0.5 34t0.5 20q0 15 3 31t9.5 30t15.5 25t21 17h-115l-178 -257h177v-108q0 -5 -9.5 -16.5l-20.5 -24l-21 -23.5t-10 -14q19 9 43 22l49 26t48 21.5t41 8.5q-15 1 -24.5 10.5t-15 22t-7.5 25.5t-2 22v15
q0 8 3 14h49q-6 42 0 84zM195 205h-120l120 168v-168z" />
    <glyph glyph-name="five" unicode="5" horiz-adv-x="240" 
d="M218 411l-6 20q-8 -9 -27 -14t-41.5 -7t-44.5 -2h-36q-7 -18 -14 -43l-13 -48t-10 -41t-4 -21v-23q57 -15 91 -44.5t34 -71.5q0 -44 -25.5 -70.5t-79.5 -52.5q36 2 66 17.5t51.5 38t33 49.5t11.5 51q0 46 -23.5 72t-52 42.5t-52 27.5t-23.5 27q0 15 17 21t40.5 7.5
t48.5 0.5t40 0l8 33.5t11 30.5z" />
    <glyph glyph-name="six" unicode="6" horiz-adv-x="298" 
d="M276 162q0 38 -26 66.5t-64 47.5l-88 -84q14 4 24.5 12.5t17.5 8.5q14 0 28.5 -8.5t26.5 -21.5t19.5 -28.5t7.5 -30.5q0 -6 -3 -18.5t-10.5 -25t-20 -22t-30.5 -9.5q-15 0 -30 8t-26.5 20.5t-18.5 29.5t-7 35q0 33 13.5 63.5t37 61.5t55 63l67.5 68q-10 7 -21 16t-17 13
q-20 -36 -52 -80.5l-62.5 -91t-52.5 -90.5t-22 -78q0 -19 8 -37.5t22 -33.5t33 -24.5t40 -9.5q9 0 24 11.5t31.5 29.5t33.5 39.5t31 41.5t22.5 36t8.5 22z" />
    <glyph glyph-name="seven" unicode="7" horiz-adv-x="328" 
d="M306 394q-69 0 -107 -0.5t-57.5 -1t-25.5 -1t-10 -0.5q-8 0 -20.5 10t-22.5 17q-7 -37 -18.5 -74.5t-22.5 -69.5q16 9 23 16.5t11.5 13t9 9.5t15.5 6.5t31 3.5t56 1h13h22t24 -1t21 -2q-53 -89 -85 -164.5t-48 -156.5q22 -2 35 -2t20.5 1t10 1.5t4.5 0.5
q-1 93 31.5 190.5t89.5 202.5z" />
    <glyph glyph-name="eight" unicode="8" horiz-adv-x="324" 
d="M302 156q0 19 -6.5 32t-18.5 23t-28.5 18l-35.5 18q9 8 19.5 15t19 15.5t14 18.5t5.5 24q0 22 -10 34t-28 20.5t-42 18.5t-51 29q-20 -21 -39.5 -36t-35 -29t-25 -30t-9.5 -38q0 -9 2 -19t7.5 -21t16 -22.5t27.5 -24.5q-26 -20 -44 -40t-18 -46t12 -41t32 -26.5t46 -24
t55 -33.5q27 32 51 51l43 34.5t30 33t11 46.5zM222 291q0 -4 -3 -11t-7.5 -14t-9.5 -12t-9 -5q-11 0 -32 5t-42 14.5t-37 22.5t-16 29q0 1 2 7.5t5.5 13.5t8.5 13t11 6q10 0 31.5 -6.5t43 -16.5t38 -22.5t16.5 -23.5zM253 120q0 -6 -4 -16t-10 -19t-12.5 -16t-11.5 -7
q-10 0 -33.5 7t-48 19t-43.5 27.5t-19 31.5q0 5 2.5 13.5t7.5 16.5t11 13.5t14 5.5q16 0 41 -6t48.5 -16.5t40.5 -24t17 -29.5z" />
    <glyph glyph-name="nine" unicode="9" horiz-adv-x="302" 
d="M280 309q0 13 -9.5 32.5t-24.5 37.5t-33 30.5t-35 12.5q-14 0 -31 -12.5t-34.5 -31.5t-33.5 -41.5t-29 -43t-20.5 -35.5t-7.5 -18q0 -20 6 -34t18 -26t30 -23t42 -24q23 20 46.5 43l39.5 40q-14 1 -24.5 -7.5t-21.5 -8.5t-25.5 7t-27.5 19t-21.5 27t-8.5 31q0 25 17 46
t48 21q18 0 34.5 -8t29 -21.5t20 -30.5t7.5 -35q0 -29 -19 -63.5t-45.5 -69t-54 -65.5l-45.5 -52q5 -4 16 -9.5t17 -9.5l51.5 77.5t59 90.5t49 87t20.5 67z" />
    <glyph glyph-name="colon" unicode=":" horiz-adv-x="160" 
d="M138 202q-17 14 -33.5 29.5t-26.5 26.5q-14 -17 -29.5 -32t-26.5 -29q17 -13 33.5 -28.5t26.5 -26.5q14 17 29.5 33.5t26.5 26.5zM138 51q-17 14 -33.5 29.5t-26.5 26.5q-14 -17 -29.5 -34t-26.5 -26l34.5 -30t25.5 -26q14 17 29.5 32t26.5 28z" />
    <glyph glyph-name="semicolon" unicode=";" horiz-adv-x="174" 
d="M144 202q-14 11 -30.5 26.5t-29.5 29.5l-33.5 -33.5l-26.5 -26.5q14 -10 30 -26l30 -30zM152 13q0 10 -5.5 24.5t-15 28.5t-23.5 25.5t-30 15.5l-29.5 -35l-26.5 -31q36 -2 52 -21t16 -40q0 -14 -3.5 -22t-10 -15t-15.5 -14.5t-19 -20.5q18 -2 37 8.5t35.5 27t27 35.5
t10.5 34z" />
    <glyph glyph-name="less" unicode="&#x3c;" horiz-adv-x="404" 
d="M382 367q0 18 -8 31.5t-20.5 22.5t-27.5 14t-28 5q-28 0 -48 -12t-34 -30.5t-23.5 -39.5t-16.5 -39.5t-12 -30.5t-11 -12q-8 0 -12 1.5t-7 4l-7.5 6.5t-13.5 10q-8 -5 -23 -19t-30 -29.5t-26.5 -28.5t-11.5 -17q0 -7 0.5 -24t2 -36t3.5 -35.5t4 -22.5q6 -15 17.5 -27.5
l22 -23.5t17 -20.5t0.5 -18.5q20 17 40.5 37t40.5 34l11 -14t13 -18.5t9.5 -18t0.5 -12.5q13 7 26.5 22.5l28 31.5t29.5 28t31 12q0 -15 -14 -34.5t-30.5 -38.5l-30 -34.5t-13.5 -23.5q0 -11 11 -18t18 -7q14 0 23.5 7t16 15.5l11.5 15.5t11 7l7 -5t11 -16q1 -6 4 -4.5
t6 6.5t6 11.5t4 9.5q-7 7 -12 9t-13 2q-12 0 -19.5 -2.5t-13.5 -7.5t-12.5 -13.5t-16.5 -20.5q-7 3 -13.5 9.5t-6.5 14.5q0 7 19.5 24t43 41t43 55t19.5 67q0 38 -19 69.5t-44 58.5q8 8 19.5 16.5t22 17.5t18 18t7.5 20zM338 342q0 -13 -15 -26t-33.5 -23t-35 -16t-18.5 -6
q-4 7 -7 15t-3 16q0 6 1.5 24t7 37.5t14.5 34.5t24 15q12 0 23.5 -9.5t21 -22t15 -24t5.5 -15.5zM324 138q0 -10 -10 -21t-22.5 -20t-23 -15l-10.5 -6q-12 0 -19 11t-10.5 24.5t-5 25t-1.5 12.5q0 4 1.5 15t4.5 25.5t6 31t6 30.5q15 -2 30 -13.5t27 -28t19.5 -36t7.5 -35.5z
M173 218q0 -5 -2.5 -24.5l-5.5 -42t-6.5 -41.5t-5.5 -22q-1 -4 -3 -10.5t-10 -6.5q-22 0 -34 14t-18 32t-7 35.5t-1 25.5q0 3 0.5 11.5t1.5 18t3 18.5t5 14l15.5 -8.5t16.5 -4.5q7 0 21 9.5l24 16.5q0 -7 3 -17t3 -18z" />
    <glyph glyph-name="equal" unicode="=" horiz-adv-x="300" 
d="M278 245v43h-256v-43h256zM278 138v48h-256v-48h256z" />
    <glyph glyph-name="greater" unicode="&#x3e;" horiz-adv-x="453" 
d="M431 422q0 16 -7 27t-18.5 18t-24.5 10t-25 3q-18 0 -44 -18t-51 -42.5t-42.5 -51t-17.5 -42.5v-23q7 0 12 -4t5 -7q-15 -23 -28 -35q4 14 5 23.5t1 16.5q-14 7 -30 17t-23 10q-10 0 -30 -12.5t-40 -30t-35 -36.5t-15 -32q0 -4 -0.5 -20.5t0.5 -38t3 -43.5t7 -38
q3 -12 13 -22l20 -19.5t17.5 -19.5t6.5 -21q27 20 50.5 45l43.5 48q11 -23 25 -43.5t24 -40.5q10 7 23.5 20t26 27t23 28t14.5 22q-11 -3 -22.5 -10t-19.5 -7t-13.5 9t-9 21t-5 23t-1.5 14q0 17 2.5 39.5t10.5 34.5q7 2 20 3.5t25.5 5.5t21 11t7.5 20q-12 7 -24 6t-23 6
q6 4 17.5 10t22.5 13.5t19 15t8 15.5q0 9 -6.5 19t-22.5 10q-18 0 -32.5 -9t-37.5 -14q-3 23 4 45.5t21.5 40t33.5 28.5t40 11q15 0 23.5 -3t24.5 -23q2 -4 4 -16.5t13 -19.5q3 7 6.5 12.5t3.5 13.5zM303 309q0 -8 -10 -15t-38 -14l-3 2.5t-3 10.5q0 2 1.5 7.5t6 10.5
t13.5 9t23 4l5 -3.5t5 -11.5zM196 217q-3 -23 -5 -54.5t-5 -55.5q-4 0 -11 -4t-14.5 -9l-14 -9.5t-10.5 -4.5q-16 0 -25 24t-14 52.5t-6.5 52.5l-1.5 24q0 8 3 13t3 11q23 -10 50.5 -18.5t50.5 -21.5z" />
    <glyph glyph-name="question" unicode="?" horiz-adv-x="302" 
d="M280 302q0 33 -13.5 49.5t-34 27t-45.5 21t-47 31.5l-30 -36l-32 -37.5l-31 -36.5l-25 -31q13 4 27 11.5l27.5 14.5t27 12t25.5 5q9 0 21.5 -4t23.5 -12.5t18.5 -21.5t7.5 -31q0 -17 -9 -34.5t-19.5 -34.5t-18.5 -33.5t-6 -31.5q18 21 41 41t43.5 41t34.5 43t14 47z
M209 51q-17 14 -33.5 29.5t-26.5 26.5l-30 -30t-30 -26l60 -60z" />
    <glyph glyph-name="at" unicode="@" horiz-adv-x="398" 
d="M354 297q0 30 -11.5 54t-30.5 40t-43.5 24.5t-51.5 8.5q-31 0 -58.5 -10t-48 -29t-32.5 -46.5t-12 -61.5q0 -35 12 -62t33 -46t49.5 -29t61.5 -10q18 0 29 1.5t22 7.5t25 19l38 36q-21 -13 -37 -21.5t-29.5 -13t-25.5 -6.5t-26 -2q-24 0 -47 8t-41 23.5t-29 39t-11 55.5
q0 25 9 48t25.5 40.5t40 27.5t53.5 10q21 0 41.5 -6t36 -19.5t25 -34t9.5 -49.5q0 -3 -1 -16.5t-6 -27.5t-14.5 -25.5t-26.5 -11.5q-9 0 -15.5 6t-10.5 14t-6 17t-2 15q0 19 6.5 31t26.5 29l-27.5 18t-24.5 19q-17 -14 -33.5 -25t-29.5 -22t-21 -24.5t-8 -33.5q0 -17 14 -39
t34 -32q10 8 20 17t18 15q17 -24 26.5 -28t17.5 -4q22 0 38.5 11.5t27 29t16 36.5t5.5 34zM245 305q-8 -18 -14 -42t-25 -45q-24 18 -32 30t-8 29q0 15 10 29.5t27 26.5q9 -8 20 -14.5z" />
    <glyph glyph-name="A" unicode="A" horiz-adv-x="448" 
d="M426 518l-21 6q-10 -17 -27 -33t-33.5 -28.5t-28.5 -20.5l-12 -8l-0.5 12t-5 29.5t-14.5 36t-30 30.5q5 -36 10 -55.5l8 -30.5t3.5 -17.5t-3.5 -16.5q-19 19 -32 30.5t-22.5 17.5t-18.5 8t-19 2q-24 0 -50 -9t-47 -25t-34.5 -38.5t-13.5 -49.5q0 -26 7 -35t19.5 -14
l30 -12.5t37.5 -28.5q-4 -12 -15.5 -16t-23.5 -5.5t-22 -3.5t-10 -9l51 -7q25 11 42 25.5t17 43.5q0 28 -14 43t-30.5 24.5t-30 16.5t-13.5 20q0 5 12 16t25 11q24 0 45 -14t36.5 -34t24 -42t8.5 -39q0 -30 -13.5 -53t-34 -40.5t-45.5 -29.5t-48.5 -20t-42 -12.5t-25.5 -6.5
q8 -4 28 -9t40 -15t34.5 -27.5t11.5 -46.5q-1 -10 -0.5 -23t3.5 -19q17 16 31.5 35.5l28.5 38.5t29.5 34.5t34.5 24.5q7 -15 10.5 -34.5t7.5 -38.5t11.5 -34.5t22.5 -21.5v29q0 10 -5 17.5t-10.5 25t-10.5 51t-5 95.5q0 4 2 29.5l4.5 59l5 68t4.5 55.5l2 -130
q-8 -30 -6 -70.5t8.5 -80t14 -73t11.5 -49.5q12 7 25.5 18t26.5 23.5t22.5 26t12.5 26.5q-8 5 -16.5 4.5t-14.5 2.5q-9 36 -13 56t-5 32.5t-0.5 21.5t0.5 24q0 51 6.5 95.5t15.5 78t19 55t17 27.5zM266 182q0 -17 -4.5 -25.5t-13 -14.5t-20.5 -12t-26 -19q-9 7 -20 24.5
t-18 31.5l50 36t46 41q0 -6 1 -15l2 -18t2 -17t1 -12z" />
    <glyph glyph-name="B" unicode="B" horiz-adv-x="572" 
d="M550 142q0 31 -22 69.5t-53 74.5q15 13 28.5 20.5t24 15t16.5 16.5t6 26q0 18 -11.5 30.5t-26 23l-26 19t-11.5 19.5q0 8 4 21.5t4 19.5q-24 -8 -42 -21t-33 -26t-29 -22.5t-29 -9.5q-6 0 -15.5 14.5t-25.5 32t-39 32t-55 14.5q-29 0 -62.5 -17.5t-62.5 -44.5t-48.5 -59
t-19.5 -61q0 -14 3.5 -34.5t13.5 -39.5t26.5 -32.5t42.5 -13.5q25 0 42.5 11t17.5 42q0 4 -3.5 15l-7.5 24l-7.5 24t-3.5 15q0 8 7.5 16t14.5 8q13 0 20.5 -6.5t10.5 -15t2.5 -17.5t-1.5 -14q9 7 15.5 17t6.5 12q0 9 -5.5 17.5t-14 15t-18.5 10.5t-18 4q-17 0 -32 -10
t-15 -37q0 -4 4 -15t9.5 -24t9.5 -24t4 -15q0 -18 -13.5 -22t-24.5 -4q-17 0 -28 11t-18.5 25.5t-10.5 28.5t-3 21q0 20 13.5 42.5t34 41t44.5 31t44 12.5q30 0 49 -19t29 -43.5t13.5 -49t3.5 -35.5q0 -34 -18 -59.5t-44.5 -45t-58.5 -34.5l-59.5 -28.5t-47 -26.5t-22.5 -30
q21 7 33 14t19.5 12.5t14.5 8.5t19 3q22 0 48.5 -18t52.5 -40l49 -40t37 -18h95q27 0 54 7.5t49 24.5t36 44t14 66zM466 333q0 -17 -18.5 -32t-41 -26.5t-42 -18t-22.5 -6.5q15 46 18.5 72t5 41t7 25t24.5 25q10 -8 22.5 -19t22.5 -22t17 -21.5t7 -17.5zM475 111
q0 -12 -4 -26t-12 -26t-20.5 -20t-28.5 -8q-25 0 -50 13.5t-50.5 32.5t-51 40t-50.5 36q3 3 25.5 16.5t50 28t53.5 26.5t38 12q24 0 42.5 -14.5t31 -34.5t19.5 -41.5t7 -34.5z" />
    <glyph glyph-name="C" unicode="C" horiz-adv-x="555" 
d="M533 444h-25q-22 16 -35 28.5t-23.5 21t-22.5 13t-31 4.5q-24 0 -45 -8t-37.5 -17.5t-27.5 -17.5t-15 -9q-65 -15 -108 -37t-69 -52t-36.5 -68t-10.5 -84q0 -31 5 -52.5t12 -38t14 -30.5t12 -30l-31 -5q-11 10 -14.5 20t-2.5 15l-19 -8q-1 -11 3.5 -19.5t11.5 -15.5
t15.5 -10.5t15.5 -3.5q9 0 20.5 4.5t17.5 4.5q1 0 21 -7.5l46.5 -17t54 -17t42.5 -7.5q22 0 54 11.5t62.5 30t54.5 42.5t30 49q-27 -26 -47.5 -42.5t-37.5 -25.5t-32 -12.5t-30 -3.5q-26 0 -49.5 6t-42 14.5t-30.5 18t-14 16.5q40 25 59.5 52.5t26 56t5 57.5l-3 56t0.5 51.5
t17 44.5q18 -6 26.5 -18.5t14 -26l10.5 -25t14 -14.5q1 19 -4.5 34t-13.5 28t-16.5 24t-11.5 22q19 12 34 12q4 0 18.5 -6.5t29.5 -16t27 -22t12 -24.5q0 -4 -3.5 -10.5t-8 -13.5t-9 -13t-6.5 -9q16 4 36 15.5t38.5 26t32.5 30t19 29.5zM251 430q-28 -33 -37.5 -72.5
t-12.5 -80t-5.5 -81t-16.5 -76.5q-10 3 -21.5 17.5t-21 34t-16 42t-6.5 42.5q0 19 7 46.5t23 53.5t42 46.5t65 27.5z" />
    <glyph glyph-name="D" unicode="D" horiz-adv-x="648" 
d="M217 146l140 116q12 -10 20 -24.5t15 -28.5l19 5.5t23 8.5t19 11t8 14q-10 6 -13.5 13t-4.5 14t-1.5 14t-3.5 13q-17 -7 -35.5 -13t-35.5 -14q-2 3 -7 15.5t-10 28.5l-9 30t-4 20q0 28 10.5 41t26.5 17.5t35.5 3.5l37.5 -2h-8q34 -5 61.5 -27.5t46.5 -52.5t29 -63.5
t10 -61.5q0 -26 -6.5 -57t-22.5 -57t-42.5 -43.5t-66.5 -17.5q-29 0 -60.5 13.5t-62 30.5l-58.5 32.5t-50 20.5zM626 271q0 22 -3 45.5t-10 45t-17 39t-23 27.5q3 1 1.5 1.5t-4 1.5t-5 1.5t-1.5 0.5q-15 12 -40 24t-54.5 21t-60.5 14.5t-59 5.5q-4 0 -26 -1t-48 -1.5
t-48 -1.5t-26 -1q-26 0 -52 0.5t-53 11.5q7 17 9.5 28t2.5 18l-27 -35t-26 -35.5t-21 -33.5t-13 -28l55 -6q32 3 74 6.5t80.5 6t66.5 4t32 1.5q9 0 11 -1.5t5 -5.5q-21 -27 -50 -56.5l-56 -55.5q10 1 16 -8.5t9 -22t3.5 -24t0.5 -13.5q0 -3 -6.5 -13t-16.5 -23.5l-22 -29.5
l-24 -31q-15 -1 -34 -8.5t-36 -19t-31.5 -25t-20.5 -27.5q9 3 20 7.5l21 8.5l18 7t11 3q25 0 59.5 -16l72.5 -35t76.5 -35t71.5 -16q34 0 62.5 15.5t50.5 40.5t38 56t26.5 62.5t15.5 59t5 46.5z" />
    <glyph glyph-name="E" unicode="E" horiz-adv-x="564" 
d="M542 141q-40 -19 -60 -34l-34.5 -25t-30 -15t-46.5 -5q-15 0 -22.5 0.5t-13.5 2.5t-14.5 6l-25 11.5t-44.5 18.5t-73 26q26 21 51.5 46t45 47l32 36.5t13.5 14.5q32 0 53.5 -12.5t26.5 -20.5q-8 -12 -13 -22t-8 -20l139 149q-8 2 -17 -3t-18 -12t-19 -13t-20 -6
q-6 0 -15.5 2t-19.5 22q11 10 24 19l24.5 17.5t19 17.5t7.5 18q0 4 -5 12.5l-10.5 17.5l-10.5 17.5t-5 12.5q0 7 6.5 15t6.5 11l-152 -66l-8 6t-4 11q0 11 8.5 20t19.5 15.5t22 10.5t17 4q-4 11 -8 16.5t-12 5.5q-6 0 -28 -14.5t-47.5 -33.5l-48.5 -37t-29 -25q9 -8 16 -8
q8 0 19 -9v-102l-20 -15t-20 -17l32 3q4 -7 6 -12t2 -13q0 -21 -13 -40.5t-32.5 -38t-43 -36l-45 -35t-37.5 -34.5t-21 -34q17 9 27.5 17t19 13.5t17 9t21.5 3.5q25 0 51.5 -9t53.5 -20t53 -20t51 -9t53 13.5t56 34t54 45.5t46 48zM248 520q-41 -30 -73.5 -51.5t-55.5 -42.5
t-35.5 -45.5t-12.5 -60.5l18 -167q0 -16 -11.5 -33.5t-35.5 -17.5q-8 0 -11 0.5t-7 4.5q-3 -6 -1 -15t5 -12q27 0 51 12.5t42 30.5t28.5 39.5t10.5 41.5q0 37 -9 78.5t-9 77.5q0 21 16.5 43.5t36.5 43.5t36.5 40t16.5 33zM404 387q0 -18 -11.5 -29.5t-27 -19t-31.5 -11.5
t-26 -7q0 3 -3 9.5t-3 14.5q0 10 0.5 23.5t6 25.5t18.5 20.5t37 8.5q19 0 29.5 -14t10.5 -21z" />
    <glyph glyph-name="F" unicode="F" horiz-adv-x="538" 
d="M516 -9q0 13 -1.5 29t-8.5 29t-20 22t-35 9q-15 0 -35.5 -5t-32.5 -18q-1 -10 3.5 -21.5t10.5 -17.5h25q-3 20 3 30t24 10q6 0 13.5 -1.5t14 -5.5t11.5 -11.5t5 -19.5q0 -28 -13 -43t-31 -21.5t-36 -7.5t-28 -1q-19 0 -41 2.5t-46 26.5q3 10 8.5 22.5l10.5 24.5t8.5 22
t3.5 14v148q0 6 5 11.5t12 9t13 6t8 2.5q4 0 13 -2t19 -5t18.5 -5t11.5 -2q8 0 19 11t21.5 25.5t18 28t9.5 19.5q-23 -4 -40.5 -8.5t-25.5 -4.5t-13 4.5t-13 4.5t-18.5 -7.5t-20.5 -17t-19 -19.5t-15 -14l-8 8q-9 34 -11 57.5t-2 39.5q0 4 2 18t6 30t10 29.5t15 17.5
q16 -17 25.5 -30.5t18 -22.5t18.5 -13.5t27 -4.5q10 0 21 6t21.5 15.5t20.5 21.5l19 23q-17 0 -27.5 -1.5t-18.5 -1.5q-6 0 -15.5 7.5t-18.5 18t-15.5 21t-6.5 17.5q0 9 5 19.5t3 17.5q-13 -4 -34 -15.5t-43.5 -28t-44 -36.5t-35.5 -40q-13 -18 -16 -34t-2.5 -30t1 -25.5
t-3.5 -20.5q-5 18 -15.5 37t-25 34t-32 25t-37.5 10q-14 0 -33.5 -8.5t-36.5 -23.5t-29 -34t-12 -40q0 -10 8 -18t20 -14t24.5 -9.5t21.5 -3.5q16 0 27 4.5t14 26.5q-10 -4 -25 -8.5t-23 -4.5q-12 0 -24 8.5t-12 27.5q0 6 4.5 13.5t12 14t17 11.5t18.5 5q16 0 30 -8.5
t24.5 -21t16.5 -27.5t6 -27q0 -23 -18 -46t-41.5 -42t-46 -32t-31.5 -15q1 -1 14.5 -8.5t29 -18t28 -23t12.5 -22.5q0 -8 -4.5 -15l-8.5 -13q34 23 67.5 49l67.5 52q3 -10 5 -22.5t3.5 -25t2 -22.5t0.5 -14q0 -9 -3 -23.5t-8 -25.5q-6 3 -17 6l-22 6t-20.5 4.5t-13.5 1.5
q-12 0 -28 -6t-30.5 -16.5t-24.5 -25t-10 -32.5q0 -12 10 -21t23 -15t26.5 -9.5t20.5 -3.5q25 0 44.5 9.5t34 21.5t24 21.5t14.5 9.5q9 0 14.5 -5.5t16 -12.5t28 -12.5t50.5 -5.5q6 0 26.5 2t42 9t39 20.5t17.5 35.5zM258 229q0 -21 -0.5 -33t-6.5 -22t-20 -23t-42 -35
q-14 9 -27.5 23t-23.5 28l29.5 30l30.5 32.5t27.5 32l21.5 27.5q2 -5 4 -13t3.5 -17t2.5 -17.5t1 -12.5zM249 -24q0 -13 -11 -24t-25 -19t-27 -12.5t-17 -4.5q-8 0 -18 2t-19 7.5t-15 14t-6 20.5q0 13 8.5 22.5t20 15.5t22 8.5t14.5 2.5t16 -3.5t25 -8.5t22.5 -10.5
t9.5 -10.5z" />
    <glyph glyph-name="G" unicode="G" horiz-adv-x="532" 
d="M510 189q0 42 -19 73.5t-74 59.5q8 6 16.5 15.5t16 20t12 20.5t4.5 15q0 4 -3 13t-7 19.5t-7.5 21t-4.5 17.5q8 5 16.5 14.5t9.5 22.5l-33 6q-13 -5 -27.5 -13t-26.5 -18.5t-20 -23.5t-8 -28q0 -4 5 -15.5l10.5 -24l10.5 -24.5t5 -16q0 -14 -8 -27.5t-20 -26.5
t-26.5 -25.5l-27.5 -24.5q-5 20 -12 45l-14 48.5t-11.5 40.5t-4.5 22q0 11 4.5 27t19.5 26q6 -6 11 -14t5 -15q0 -8 -3.5 -22t0.5 -20q16 9 25 20.5t9 19.5t-9.5 22.5t-13.5 28.5q11 6 20 13.5t16 18.5l-29 6l-36.5 -15t-27.5 -8t-20.5 2.5t-19.5 2.5q-41 0 -76 -25
t-60.5 -62t-40 -79.5t-14.5 -78.5q0 -45 18 -89t49.5 -78.5t75 -55.5t94.5 -21q31 0 74 8.5t82.5 29.5t67 57.5t27.5 93.5zM439 167q0 -32 -12.5 -56.5t-32.5 -41t-46 -25t-53 -8.5q-50 0 -86.5 24.5t-60 61t-35 77.5t-11.5 74q0 23 5.5 53t19.5 58t37.5 49.5t59.5 28.5
l24 -6q-12 -24 -20.5 -38t-14 -24.5t-7.5 -22.5t-2 -31q0 -14 6 -38.5t13.5 -47.5t14 -40.5l6.5 -17.5q0 -12 -5 -19.5t-11 -15t-11 -18t-5 -28.5q25 16 45 38.5l38.5 42.5t37.5 34t42 14q16 0 28 -8t20 -19.5t12 -25t4 -24.5z" />
    <glyph glyph-name="H" unicode="H" horiz-adv-x="472" 
d="M450 478q0 8 -4 12t-10 6q-14 -2 -27 -7t-21 -5q-4 0 -27 7l-49.5 15.5l-49.5 15.5t-27 7q-2 0 -15.5 -8.5l-32.5 -21.5l-40.5 -28.5l-40.5 -29.5t-31.5 -24.5t-14.5 -13.5q-13 -26 -18 -58.5t-6 -68t0 -71.5t1 -68t-3 -58t-12 -41q32 4 50.5 12t37.5 8q4 0 14.5 -2
t22.5 -5t22.5 -5t14.5 -2q10 0 25 14.5t28.5 32.5t23.5 34.5t11 20.5q-21 -8 -30 -14.5t-14 -11t-9 -7t-13 -2.5q-1 0 -8.5 0.5t-16.5 3.5t-16.5 9.5t-7.5 17.5q0 13 7.5 30t20.5 32t29.5 25.5t33.5 10.5q22 0 46 -8.5t44 -24t33 -37.5t13 -48q0 -8 -7.5 -34t-22 -54.5
t-36 -51t-50.5 -22.5q-2 0 -11 3t-19 7.5t-19.5 9.5t-12.5 9l26.5 19.5t19.5 9.5q9 0 20 -6.5t19 -6.5q7 11 0 25t-23 14q-4 0 -17 -6.5l-27.5 -14t-27.5 -13.5t-17 -6t-13.5 2t-21 5t-21 5t-13.5 2q-6 0 -18 -3t-23 -9.5t-19.5 -16t-8.5 -22.5q0 -8 7 -16.5t16.5 -15
t20.5 -11t19 -4.5q5 0 14 4t18.5 9.5t18 9.5t11.5 4t15.5 -3.5t27 -8t27 -8t16.5 -3.5q28 0 61 25t61.5 59t47.5 69t19 56q0 88 -42 133t-133 45q-23 0 -35 -7t-21.5 -20t-20 -32t-30.5 -43q-7 13 -7 27l1 15.5t3 38t5.5 49t8.5 49t12 37.5t15 15q6 0 13.5 -4t14.5 -11
t11.5 -15t4.5 -17q0 -12 -15 -20t-25 -15q7 -7 13.5 -11.5t13.5 -4.5t13.5 6t11.5 14t8 16.5t3 14.5q0 16 -6.5 26.5t-15.5 18.5l-17 15.5t-11 18.5q18 -7 38.5 -16l38.5 -17.5l31 -14.5t17 -6q1 0 19 4.5t38 12.5t37 19t17 24zM147 417q-16 -77 -20 -129t-6 -87.5t-7.5 -59
t-24.5 -43.5q7 17 11.5 22.5t7 12t3.5 21t1 49.5v119q0 4 4.5 18.5t10.5 31t11.5 30t8.5 15.5zM139 -28q-8 -14 -17 -19.5t-14 -5.5q-16 0 -26 6.5t-10 17.5q0 8 9.5 14t17.5 6t19 -6t21 -13z" />
    <glyph glyph-name="I" unicode="I" horiz-adv-x="524" 
d="M502 191l-62 209q0 11 5.5 24t14.5 26t19.5 26t18.5 24q-7 8 -9.5 9t-9.5 1q-9 0 -18.5 -4.5l-22.5 -10.5t-31.5 -10.5t-44.5 -4.5q-3 0 -17 3.5l-33 8t-41 10.5t-41 10.5t-32.5 8t-15.5 3.5q-11 0 -31.5 -6t-41 -18t-36 -30.5t-15.5 -42.5q0 -38 16 -54.5t35 -24
t35 -12.5t16 -20q0 -8 -8.5 -20t-22.5 -12q-9 0 -13.5 4t-8.5 8.5t-10 8t-18 3.5q-2 -14 3 -22.5t12.5 -14t14.5 -7.5t9 -2q12 0 26.5 5t26.5 14t20.5 22t8.5 28q0 24 -17.5 37t-38 21.5t-38 16.5t-17.5 23q0 4 3 11.5t8.5 14t13.5 11.5t19 5q4 0 28.5 -7l53.5 -15l53.5 -15
t29.5 -7q20 0 50 10.5t57 16.5l-18.5 -30.5t-9.5 -18t-3.5 -13t-0.5 -14.5q0 -27 12 -64t26 -71.5t26 -61t12 -32.5q0 -8 -1.5 -10t-5.5 -6q-5 12 -16.5 28t-27 33t-32 32.5t-29.5 25.5q8 16 15 24.5t11.5 14.5t7 12.5t2.5 18.5q0 16 -8.5 28.5t-20.5 21.5t-25.5 14t-23.5 5
q-35 0 -48 -16t-12 -37.5t9 -45t15.5 -38t8.5 -15.5l-20.5 1.5l-45.5 3.5t-47 3.5t-26 1.5q-3 0 -16 -3.5t-27.5 -10t-25.5 -16.5t-11 -23q0 -19 10 -34t43 -15h7t13 2.5t13 8.5t6 19h-23q-8 1 -10 -3.5t-10 -4.5q-6 0 -14.5 7.5t-8.5 21.5q0 10 9 16t21 10t23.5 5.5
t15.5 1.5q11 0 34.5 -4t52 -12.5t59.5 -20.5t56 -28t41.5 -36t16.5 -43q0 -11 -6 -19.5t-15.5 -14.5t-20.5 -9.5t-20 -3.5q-32 0 -58 15t-44 32q18 11 38 11q8 0 17 -2t16 -9q-9 -6 -10.5 -15t3.5 -10q6 0 13.5 1.5t15 6t12.5 11t6 16.5q-14 14 -33 16.5t-36 2.5
q-5 0 -15.5 -2t-22 -5t-22 -5t-13.5 -2q-4 0 -17.5 3.5l-28.5 7.5l-28 7.5t-17 3.5q-3 0 -18 -1.5t-32.5 -7t-31.5 -16.5t-14 -30q0 -9 7 -16t16.5 -12t18.5 -7.5t14 -2.5q4 0 16 3l25 6t24.5 6t14.5 3q11 0 24 -7.5l30.5 -17t40.5 -17t53 -7.5q33 0 66.5 13.5t61 38.5
t46 60.5t22.5 78.5zM346 320q0 -5 -2.5 -13.5t-6.5 -16.5t-10.5 -13.5t-13.5 -5.5t-16.5 7t-18 16t-14.5 18.5t-6 14.5q0 7 4 14.5t10.5 13.5t14 10t13.5 4q12 0 20.5 -5.5t14.5 -13.5t8.5 -16t2.5 -14zM137 74q-13 -12 -28 -16.5t-25 -4.5q-8 0 -16.5 3t-16.5 7
q1 11 12 20.5t19 9.5t25 -8t30 -11z" />
    <glyph glyph-name="J" unicode="J" horiz-adv-x="524" 
d="M502 131l-62 252q-2 13 4.5 27.5t16 29t20.5 29t17 27.5q-7 7 -7 8q0 2 -7 2l-13.5 -5.5t-32.5 -12t-40 -12t-36 -5.5q-28 0 -51 7.5t-44.5 17t-42.5 17t-44 7.5q-20 0 -41.5 -10t-39.5 -26.5t-29.5 -36.5t-11.5 -40q0 -28 7.5 -44.5t19 -27t24.5 -16l24.5 -10.5t19 -12
t7.5 -19q0 -9 -8.5 -21.5t-22.5 -12.5q-4 0 -9 5t-10 11t-10 11t-9 5q-8 0 -14 -6t-6 -14q0 -9 5.5 -16t13.5 -12t15.5 -7.5t12.5 -2.5q12 0 26.5 6t26.5 16.5t20.5 24.5t8.5 31q0 32 -17.5 48.5t-38 27t-38 18t-17.5 21.5q0 15 12 31t32 16q4 0 28.5 -7.5l53.5 -17
l53.5 -17t29.5 -7.5q10 0 24.5 3.5t30 8t30 8t26.5 3.5q-25 -23 -32.5 -40t-7 -31.5t3.5 -27t-2 -26.5q-12 30 -35 46t-38 16q-20 0 -37.5 -11t-29 -28.5t-15.5 -39t2 -41.5q3 -11 11.5 -17.5l17 -12.5t15 -12t6.5 -16q-22 2 -44.5 3.5t-41 3t-32 2t-17.5 0.5q-6 0 -19.5 -3
t-28 -10.5t-25.5 -19t-11 -29.5q0 -8 1.5 -18.5t6.5 -20.5t15.5 -16.5t27.5 -6.5t23.5 1.5t8.5 5t4 10t10 16.5q-3 3 -13.5 5l-10.5 2q-7 -4 -11 -9t-11 -5q-12 0 -18.5 12t-6.5 26q0 13 9.5 21t21.5 12.5t23.5 6.5t16.5 2q9 0 32 -5.5t51.5 -16t59.5 -26t56.5 -34.5
t42 -41.5t16.5 -47.5q0 -10 -6 -18.5t-15 -15t-20 -10t-21 -3.5q-32 0 -58 15.5t-44 31.5q10 7 18.5 9t16.5 2t17 -2t19 -9q-9 -6 -11 -15t4 -9q8 -5 16.5 -2t15 9t11 13t4.5 9q0 10 -8.5 15.5t-19.5 8.5t-22 3.5t-17 0.5q-34 0 -52 -8.5t-23 -8.5q-7 0 -14.5 4t-18 9
t-24.5 9t-34 4q-7 0 -22.5 -2t-32 -8.5t-29 -18.5t-12.5 -31q0 -10 7 -17.5t16.5 -13t19 -8.5t13.5 -3t15.5 3.5l24.5 7.5l24.5 7.5t15.5 3.5t19.5 -9t36.5 -19.5t46 -19.5t49 -9q39 0 72.5 18.5t59 48.5t41.5 68.5t20 79.5zM346 284q0 -16 -8 -29.5t-20 -27.5
q-26 11 -43 29t-17 40q0 3 2.5 11t7.5 15.5t13 13.5t19 6q10 0 18.5 -6.5t14.5 -16t9.5 -19.5t3.5 -16zM445 70q-5 8 -19 25.5l-31 38.5l-34 42l-28 35q7 8 15.5 19.5t15 23.5t10 24t1.5 20q12 -39 21.5 -64l18 -47.5t16 -49t14.5 -67.5zM138 -2q-14 -7 -31 -13.5t-25 -6.5
q-15 0 -38 15q9 10 20.5 17.5t19.5 7.5t24 -6.5t30 -13.5z" />
    <glyph glyph-name="K" unicode="K" horiz-adv-x="436" 
d="M414 378q0 69 -43 105.5t-113 36.5q-31 0 -62 -10.5t-58 -27.5t-48 -40t-31 -48q-15 -36 -20.5 -60t-5.5 -40t3.5 -27t5 -22t-1 -24t-13.5 -33q4 0 11.5 -1t10.5 -3q0 -20 2.5 -43.5t2.5 -31.5q0 -10 -5 -20.5t-11 -19.5l-11 -16.5t-5 -12.5q0 -4 5 -10.5t11.5 -13
t13 -11.5t9.5 -5q8 10 21.5 25t28.5 15q4 0 13 -5l19.5 -10.5l19.5 -10.5t13 -5t14 8.5t22 20.5l25 25t23 21q10 -10 17 -23t15 -24.5t18 -19.5t26 -8q12 0 22.5 11t18.5 26t14 29.5l9 21.5q-14 -3 -24 -8t-18 -5q-4 0 -18 23l-34 54.5t-44 64t-48 52.5l32 28.5t12 24.5
q0 6 -4.5 16l-10 21.5t-9.5 23.5t-4 21q-23 -17 -49 -39.5t-49 -35.5q-7 16 -7 29q0 20 9 43.5t25.5 44t39 34t50.5 13.5q60 0 99 -34t39 -104q0 -3 -3 -13.5t-9.5 -22.5t-16 -21t-22.5 -9q-8 0 -20 3.5t-18 -0.5q0 -3 3.5 -10t6.5 -11h45q16 0 27.5 12.5t19 29t11 33
t3.5 23.5zM187 310q-1 -9 -8 -16t-16.5 -12.5t-19.5 -10.5t-17 -9q-1 5 -0.5 16t4 22.5t10 20t18.5 8.5q8 0 15 -6t14 -13zM253 113q-9 -8 -23 -18.5t-23 -10.5q-4 0 -12 3.5t-17 8t-17 8t-12 3.5q-8 0 -22.5 -5.5t-27.5 -11.5q19 42 23 72l6.5 49.5t9.5 28.5t31 9
q23 0 38 -18.5t24.5 -42t14 -46t7.5 -29.5z" />
    <glyph glyph-name="L" unicode="L" horiz-adv-x="454" 
d="M432 380q0 18 -9.5 41t-26 43.5t-38 34.5t-46.5 14q-15 0 -41.5 -5t-53.5 -13t-50 -17t-32 -16q-41 -34 -60.5 -70t-26.5 -73.5t-5.5 -76.5l3 -78.5t-2.5 -79t-21 -77.5q6 1 22.5 16t33.5 32.5t30 33t13 17.5v205q0 49 16 78.5t34 43.5q-13 -45 -27 -83.5t-14 -76.5v-11
q0 -6 1 -21t1.5 -40.5t2.5 -67.5q0 -17 -10.5 -35.5t-24.5 -36.5l-28 -36.5t-21 -35.5q28 15 46 27t26 12q19 0 32 -7l27.5 -15t33.5 -15t50 -7q21 0 37 7.5t30.5 22.5t29 36.5l33.5 48.5q-26 -16 -41 -26.5t-25.5 -16.5t-19.5 -8t-24 -2q-1 0 -22 6t-46 15.5t-45.5 23
t-20.5 28.5v157q0 1 2 15.5t6.5 35t11 45t15.5 45t21 34t27 13.5q2 0 9.5 -3.5t15.5 -9.5t14.5 -14t6.5 -17q0 -14 -5.5 -20.5t-13.5 -10t-17.5 -5t-16.5 -4.5q6 -8 12.5 -13t14.5 -5q5 0 13 3.5t16 9.5t13.5 14.5t5.5 18.5q0 4 -3.5 13t-8.5 19l-10.5 20.5t-8.5 18.5
q19 12 34 12q14 0 31.5 -9t32.5 -23.5t25.5 -34t10.5 -40.5q0 -3 -2.5 -14t-8.5 -22.5t-16.5 -21t-26.5 -9.5q-8 0 -17.5 2.5t-17.5 2.5q-23 0 -43 -9t-34 -24t-22 -35.5t-8 -42.5q0 -9 3.5 -19.5t11 -20.5t19 -16.5t26.5 -6.5q6 0 14 1.5t15 5t11.5 9.5t3.5 15
q-6 4 -11 2.5t-10.5 -5l-11.5 -7t-13 -3.5q-11 0 -23.5 9.5t-12.5 26.5q0 27 15 38.5t37 16t48 7t48 13.5t37 34t15 69z" />
    <glyph glyph-name="M" unicode="M" horiz-adv-x="796" 
d="M774 420q-17 10 -37 12t-32 5q-19 4 -24 14.5t-9 22t-12 20t-33 8.5q-24 0 -41 -12t-30 -29t-22.5 -35t-19.5 -30q-8 9 -14.5 25t-15.5 31t-22 26t-33 11q-28 0 -56.5 -17.5t-45.5 -40.5q-18 9 -30.5 18.5t-24.5 17t-25 12.5t-31 5q-22 0 -55 -9t-64 -27t-53 -45t-22 -63
q0 -4 3.5 -17t8 -27.5t8 -27.5t3.5 -17q0 -8 -4.5 -23.5t-8.5 -22.5q22 5 36 15t21.5 22t10 24t2.5 21q0 4 -2.5 19t-6 32t-6 32t-2.5 19q0 2 3.5 12t10 21.5t16.5 21t23 9.5q23 0 45.5 -14.5t40 -36t28 -46.5t10.5 -47q0 -38 -20.5 -74.5t-48 -68t-55.5 -55.5l-44 -38
q23 0 30.5 1.5t15.5 1.5q10 0 26.5 -11.5t32.5 -25.5t28.5 -26t15.5 -13q11 23 29.5 48l36.5 50q-13 5 -27.5 7t-28 5.5t-25.5 11t-19 22.5q49 45 74 77.5t36 61.5t12.5 59.5l3.5 72.5q1 18 15.5 23.5t25.5 5.5q19 0 34.5 -22.5t27 -51t18 -55t6.5 -35.5q0 -32 -10.5 -62
t-27 -55t-35.5 -42.5t-37 -23.5q3 -12 17 -28.5t30.5 -31.5t31 -26t18.5 -11q9 0 19 8.5t19 19.5t15.5 21.5t8.5 15.5q-9 6 -21.5 15.5t-23.5 19.5t-18.5 18.5t-7.5 12.5t9.5 23.5l22.5 45.5l26 53.5t20 45.5q1 3 4 25t10 47t20 45t35 20q11 0 22 -8.5t20 -20t14.5 -24
t5.5 -21.5q0 -11 -14 -24t-30.5 -34.5t-30.5 -55t-14 -84.5q0 -3 4.5 -27t14.5 -51.5t25.5 -50t37.5 -22.5q16 0 30.5 7t25.5 17.5t17 22.5t6 22q-8 -3 -16.5 -8.5l-17 -11l-15 -9.5t-10.5 -4q-17 0 -23.5 16t-8.5 37t-0.5 41.5t1.5 29.5q0 32 1 62t13.5 60t42 61t86.5 64z
" />
    <glyph glyph-name="N" unicode="N" horiz-adv-x="591" 
d="M568 142q-24 -11 -33 -14.5t-17 -3.5q-15 0 -26 17.5t-17.5 39.5t-9.5 42.5t-3 25.5q0 26 13.5 52.5t29 50l29 43.5t13.5 32q0 6 -2.5 13.5t-7 14.5t-10 12.5t-10.5 7.5q-4 -8 -4.5 -16.5t-1 -15.5t-3.5 -11.5t-12 -4.5q-11 0 -27 11t-33.5 24.5t-34.5 24.5t-30 11
q-9 0 -21 -6t-25 -15t-25.5 -20t-21.5 -21q-34 26 -65 39.5t-71 13.5q-25 0 -46.5 -18.5t-38 -44t-26 -52t-9.5 -41.5q0 -27 14.5 -36.5t32.5 -14.5t32.5 -11.5t14.5 -26.5q0 -4 -3.5 -9t-9 -10t-11 -8.5t-8.5 -3.5q-8 0 -23.5 9t-31.5 11q-1 -9 4 -15.5t12 -11.5t14.5 -7.5
t11.5 -2.5q7 0 22 4.5t30 14t26 25t11 36.5q0 23 -13.5 36.5t-32 22t-38 15t-32.5 17.5q0 18 8 31.5t20 21.5t25 12t23 4q19 0 38 -9.5t34.5 -25t25 -36.5t9.5 -43q0 -18 -3.5 -37t-11.5 -37.5t-20.5 -35.5t-30.5 -29q-12 -8 -31.5 -18t-38.5 -22t-33.5 -27t-17.5 -33
q7 -1 14 2t13.5 6.5l13 7t12.5 3.5q21 0 33.5 -11.5t19.5 -28t10 -33.5t3 -29q35 23 69.5 48.5t64.5 52.5q-8 2 -16 -0.5t-15.5 -6t-13.5 -7t-10 -3.5t-11 9t-15.5 21l-17.5 25.5t-16 22.5q40 20 68.5 40.5t44 48t16.5 64t-13 88.5q-2 9 1.5 14.5t9.5 8.5t13.5 4t12.5 1
q7 0 23.5 -11l35.5 -24.5l36 -24.5t25 -11t13.5 2.5t11.5 -0.5q-27 -32 -44.5 -48.5t-27 -28.5t-13.5 -24.5t-4 -36.5q0 -49 9 -82.5t19.5 -55.5t19.5 -33t9 -15q0 -8 -4.5 -16.5t-8.5 -11.5q27 13 52 32.5t44 38.5t30.5 35.5t10.5 25.5z" />
    <glyph glyph-name="O" unicode="O" horiz-adv-x="520" 
d="M498 216q0 39 -19 72t-41.5 59.5t-41 45t-18.5 29.5q0 8 9.5 24.5t12.5 28.5q-14 0 -23.5 -7.5t-21 -20l-28 -30.5t-44.5 -39l-3 51q4 13 13.5 21t19.5 13.5t18.5 11t10.5 13.5q-4 0 -10 2.5t-19 2.5q-59 -38 -112 -65.5t-92.5 -56.5t-63 -66.5t-23.5 -95.5q0 -50 20 -90
t53 -68.5t75.5 -44t87.5 -15.5q12 0 34.5 11.5t49.5 30.5t54.5 43.5t50 49.5t37 48.5t14.5 41.5zM431 218q0 -35 -15 -64t-39 -50.5t-53 -33.5t-57 -12q-17 0 -35.5 6t-35 14t-30 16.5t-19.5 13.5q1 4 20 22t43 37.5t47.5 35t33.5 15.5q15 0 24 -14t9 -28t-10.5 -21.5
t-22.5 -7.5q-8 0 -14.5 7.5l-12.5 14.5q-6 -2 -10.5 -6t-4.5 -12q0 -11 6 -15.5t13.5 -6t13.5 -1t7 0.5q29 0 43.5 13t14.5 36q0 29 -21 44.5t-50 18.5v85q0 8 11.5 20.5l21.5 22.5q7 -9 27 -28.5t41 -42.5t37.5 -45t16.5 -35zM221 399q-9 -28 -9.5 -55t0.5 -52t1 -48
t-8 -43t-26 -37.5t-53 -30.5q-10 7 -16.5 20t-10 28t-5 28.5t-1.5 21.5q0 21 7.5 44.5t23 46t39.5 42.5t58 35z" />
    <glyph glyph-name="P" unicode="P" horiz-adv-x="546" 
d="M524 447q0 1 -3 9t-17 15q-6 -6 -15 -12t-16 -6q-11 0 -23 8.5l-25.5 18.5t-28.5 18.5t-32 8.5q-13 0 -29.5 -8.5t-31 -18.5t-25.5 -18.5t-14 -8.5q-1 0 -15 7l-32.5 15.5t-36.5 15.5t-27 7q-26 0 -49.5 -16.5t-41.5 -40t-29 -49t-11 -43.5q0 -24 7 -37.5t17 -21.5
t22.5 -11.5t22.5 -7.5t17 -11t7 -20q0 -9 -8 -16t-18.5 -13.5t-21.5 -12t-16 -10.5l27 -6q40 17 54 35.5t14 53.5q0 19 -3 28t-12 15t-24.5 14t-40.5 26q-1 9 2 26t11.5 33t22 28t33.5 12q25 0 39.5 -17t22 -38.5t10 -42.5t2.5 -29v-145q0 -13 -19 -23.5t-41.5 -24.5
t-41 -34t-18.5 -52q0 -2 3.5 -11t12.5 -18q2 45 21.5 64.5t46.5 19.5q26 0 35 -16t11 -41t3 -56t11 -60q10 37 18 73.5t19 73.5q8 -3 19.5 -8t22.5 -10.5t20.5 -9.5t13.5 -4q11 0 39 11.5t57 30.5t51 44t22 52q0 4 -7.5 28l-17 52l-17 52t-7.5 28q0 17 9 30t20 25t20 24
t9 26zM464 403q-34 -29 -44.5 -51.5t-10.5 -47.5q0 -24 7 -44.5t15 -37.5t15 -30.5t7 -24.5t-5 -23.5t-13.5 -22.5t-20.5 -16.5t-25 -6.5q-8 0 -27 8t-38 19t-32.5 22.5t-11.5 19.5l-5 177q0 7 0.5 24.5t5 35.5t14 31.5t27.5 13.5q6 0 22.5 -7.5l37.5 -16.5t43 -16t39 -6z
" />
    <glyph glyph-name="Q" unicode="Q" horiz-adv-x="555" 
d="M532 34q-20 -3 -28 -3.5t-16 -0.5q-1 0 -9.5 13.5l-18 30l-17.5 30.5l-8 14l12 12t26 28t26 33t12 27q0 36 -19.5 68.5t-43 61l-43 51t-19.5 39.5q0 7 10 18.5t21 21.5q-3 3 -7.5 5t-7.5 6q-33 -27 -65 -58.5t-59 -52.5l-7 7v62q0 9 9 16l19 14.5t18 16t6 19.5
q-55 -35 -109 -60.5t-96.5 -53t-69 -65t-26.5 -96.5q0 -38 13 -79t37.5 -75.5t59.5 -57t79 -22.5q4 0 27 11l49.5 24.5l49.5 25t27 11.5q1 0 12 -14t26 -31t31.5 -31t28.5 -14q6 0 18 5t24 12t20.5 15.5t7.5 15.5zM435 213q0 -6 -3 -17t-8.5 -22t-12.5 -19t-14 -8
q-8 0 -14 2t-15 2q-7 0 -17 -1.5t-20 -4.5t-18 -6.5t-11 -7.5q6 -14 14 -15.5t19 -6.5q-12 -12 -34 -25t-41 -13q-3 0 -22 4t-40.5 12.5t-38.5 21t-17 29.5q0 6 22.5 22.5t50 34l50.5 31.5t24 14q16 0 30 -15v-38q-4 0 -7.5 -2.5t-11.5 -2.5q-6 0 -15 5.5t-28 1.5
q-6 -12 -3 -17.5t10 -7t14.5 -1t10.5 0.5q24 0 40.5 9t16.5 38q0 19 -6.5 28.5t-16 13.5t-21.5 6t-22 8q1 10 0 25t1 31t9.5 32t27.5 27q10 -15 29.5 -41l39 -53l34 -48.5t14.5 -26.5zM208 417q-4 -7 -4 -16v-16v-157q0 -8 -11 -19t-25 -21t-26.5 -17t-15.5 -7
q-12 0 -20.5 14t-14.5 32t-8.5 34t-2.5 20q0 52 34 86t94 67z" />
    <glyph glyph-name="R" unicode="R" horiz-adv-x="550" 
d="M528 124q-20 -7 -27 -10t-15 -3l-11 23.5l-26.5 56.5l-32.5 67t-30 55q14 12 29.5 21.5l29 18.5t22 19.5t8.5 25.5q0 11 -13.5 24l-29 28t-29 31.5t-13.5 33.5q-15 -5 -30.5 -17.5l-30 -25l-27 -22.5t-20.5 -10q-3 0 -11.5 10.5t-22 23t-31 23t-37.5 10.5
q-16 0 -39.5 -13t-45 -32.5t-36.5 -43.5t-15 -45q0 -28 7 -44t17 -25t22.5 -13t22.5 -8.5t17 -11t7 -20.5q0 -6 -5 -11.5t-12 -10.5t-15 -8t-14 -3q-4 0 -11.5 3.5l-16 7.5l-15.5 7.5t-11 3.5q-8 0 -10 -4t-5 -7q10 -6 27.5 -17.5t43.5 -11.5q12 0 26 5.5t26 15.5t20 25
t8 34q0 29 -16 41.5t-35 19.5t-35 15t-16 28q0 13 6.5 24.5t16 19t20.5 12t21 4.5q25 0 43.5 -11.5t31 -29.5t19 -40t6.5 -43q0 -55 -23 -91.5t-53 -65.5l-59 -56t-42 -62h25q8 24 19 29.5t20 5.5q20 0 39 -15.5t39 -36.5q-3 -9 -10.5 -18t-7.5 -17t3 -9.5l3 -1.5
q13 8 31.5 26.5l38 39.5l38 41.5t32.5 33.5q-17 -2 -28.5 -6.5t-20 -10.5t-15 -13t-13.5 -13q-11 25 -36.5 44t-46.5 25q17 17 43 39l50.5 41.5l42 33t18.5 13.5q16 0 32.5 -27t29.5 -60.5t21 -63.5t8 -36q0 -5 -2 -13l-4.5 -17.5t-5.5 -19t-5 -16.5q16 3 36.5 15.5t39.5 28
t34.5 31.5t21.5 26zM409 371q0 -14 -14 -26.5t-32 -23t-35.5 -19t-24.5 -13.5q0 15 -2 34.5t-5 38t-5 33t-2 18.5q0 8 11 17t22 19q31 -27 48.5 -35.5t26 -12t10.5 -8t2 -22.5z" />
    <glyph glyph-name="S" unicode="S" horiz-adv-x="536" 
d="M514 443q-18 1 -29 -2.5t-18 -8.5t-11.5 -9.5t-9.5 -4.5q-1 0 -21 15.5t-52 33.5t-73 33.5t-83 15.5q-16 0 -36.5 -10t-40.5 -23l-36.5 -24.5t-23.5 -14.5q-18 -20 -29 -43t-17.5 -45t-9 -41.5t-2.5 -34.5q0 -149 72 -219t221 -70q25 0 56.5 8t59.5 27.5t47 51t19 78.5
q0 21 -8 46t-24 47.5t-40.5 37.5t-56.5 15q-4 0 -28.5 -4l-53.5 -9l-53.5 -9t-28.5 -4t-17 3t-27 10t-25 17.5t-11 24.5q0 10 5.5 20t14.5 18t20 13t22 5q14 0 21 -6.5t11 -15.5l8 -18t12 -14l6 25q-11 24 -29.5 35t-37.5 11q-25 0 -40 -11.5t-22.5 -28.5t-10 -36.5
t-2.5 -34.5q0 -14 10.5 -28t26 -25.5t33.5 -19t32 -7.5l151 14q13 0 32 -6t36.5 -17t30 -27t12.5 -37q0 -18 -9 -39t-25 -39.5t-37.5 -31t-46.5 -12.5q-51 0 -103.5 21t-95 58.5t-69.5 88.5t-27 112q0 8 -1 16.5t3 14.5q4 -12 6 -25.5t5.5 -25.5t10 -20t20.5 -8
q-16 14 -19 36t-3 38q0 24 9 50.5t26.5 49t42 37.5t55.5 15q30 0 50.5 -5.5t39.5 -19.5t40.5 -38.5t51.5 -63.5q-8 -8 -14.5 -18.5t-8.5 -19.5q18 12 41 29t45 35.5t39 36t22 31.5z" />
    <glyph glyph-name="T" unicode="T" horiz-adv-x="514" 
d="M492 436q-3 4 -10 9.5t-11 5.5q-7 -10 -19 -22.5t-20 -12.5q-17 0 -40.5 13l-50 29t-53.5 29t-51 13q-34 0 -71.5 -10t-68.5 -31t-51 -54t-20 -80q0 -28 9.5 -40.5t21.5 -20.5t21.5 -16.5t9.5 -27.5q0 -2 -1.5 -7.5t-4.5 -11.5t-8 -11t-13 -5t-20.5 6t-18.5 6
q5 -22 13.5 -26t14.5 -4q32 0 52.5 23.5t20.5 65.5q0 19 -10.5 36.5t-22.5 31.5t-22.5 24.5t-10.5 16.5q0 20 13.5 36.5t32 28.5t37 19t28.5 7q7 0 23 -6t32 -13.5t28.5 -14t14.5 -8.5q-12 -16 -27 -34l-30.5 -35t-30.5 -31.5t-28 -23.5v-125q0 -20 -13 -32.5t-30 -22.5
l-33 -19t-21 -21q12 3 22.5 3.5t16.5 -2.5q-6 -5 -12 -11.5t-10.5 -13.5t-7.5 -12.5t-2 -8.5q17 7 29.5 14l23 13t19 9.5t18.5 3.5q15 0 40 -11.5l52.5 -25t54 -24.5t44.5 -11t38 7t40 19t37.5 29t30.5 38q-32 -8 -52 -19t-38 -11q-20 0 -46.5 11t-52.5 24.5l-48 24.5
t-33 11q-8 0 -22.5 -3t-26.5 -3q26 17 38 44.5t16.5 58.5t6 62t6.5 56t16.5 40.5t36.5 15.5q4 0 17 -5.5t27.5 -12.5t27.5 -12.5t17 -5.5q19 0 37.5 8t34.5 19.5t27.5 24.5t15.5 22z" />
    <glyph glyph-name="U" unicode="U" horiz-adv-x="400" 
d="M378 358q0 24 -8.5 49.5t-24.5 46.5t-40.5 34.5t-55.5 13.5q-39 0 -65 -22.5t-42 -55.5t-23.5 -70t-9.5 -65q-13 30 -23 61.5t-10 56.5q0 12 6.5 31.5t15.5 40t17.5 37.5l12.5 25q-14 -5 -32 -31.5t-34.5 -58.5t-28 -61.5t-11.5 -40.5q0 -10 10 -37t25 -62l33 -74.5
l33.5 -74.5t26 -62.5t11.5 -37.5h16l19 30.5l38.5 61l47.5 77l46.5 79t35.5 67.5t14 42zM316 304q0 -14 -12 -40.5t-28 -54t-32 -51.5t-24 -34q-24 28 -38.5 49t-22 40.5t-10 39.5t-2.5 47q0 1 1 14t4 32t8 40t12.5 39t18.5 30t25 12q18 0 32 -10.5t25.5 -27t19.5 -36.5
t13 -38t7.5 -32t2.5 -19z" />
    <glyph glyph-name="V" unicode="V" horiz-adv-x="520" 
d="M498 269q0 10 -1.5 31.5t-6.5 48.5t-15 55.5t-25.5 52.5t-38.5 39t-55 15q-5 0 -20 -11l-32 -24.5l-32 -24.5t-19 -11l-17 9l-39 20t-43 20t-30 9q-17 0 -35 -19t-33 -44t-24.5 -48.5t-9.5 -33.5q0 -24 7.5 -37.5t19 -21.5t24.5 -11.5t24.5 -7.5t19 -11t7.5 -20
q0 -8 -7.5 -12.5t-18.5 -4.5q-8 0 -12.5 1.5t-10 3t-12 3.5t-16.5 2q6 -13 11.5 -19.5t11 -9.5t10.5 -3.5t11 -0.5q24 0 42 18t18 45q0 35 -15.5 50t-33.5 22.5l-33.5 14.5t-15.5 26q0 11 6.5 19t15.5 13t18.5 7.5t15.5 2.5q32 0 51.5 -11t30.5 -28.5t14.5 -40t3.5 -44.5
q0 -37 -10.5 -62t-26.5 -42.5t-34 -30l-34 -24t-26.5 -24t-10.5 -31.5q0 -8 3 -13t7 -9q11 4 17 13l12 18t15 16t26 7q16 0 34.5 -9.5t33 -25.5t20.5 -37t-3 -43q52 33 100 60t85 56t59 65t22 87zM422 244q0 -22 -9 -48t-25 -50t-37.5 -43t-46.5 -27q-10 16 -23 33
t-28.5 31.5t-32 23t-33.5 6.5q5 13 18 21.5l27 17t24.5 18.5t10.5 25v155q17 18 27 23.5t22 5.5q25 0 42.5 -12.5t29.5 -31.5t18.5 -42t10 -44.5t4.5 -38t1 -23.5z" />
    <glyph glyph-name="W" unicode="W" horiz-adv-x="564" 
d="M542 489q0 4 -4 9.5t-9 10t-10.5 8t-9.5 3.5q-8 0 -14.5 -5t-9.5 -5q3 -7 6 -16t7 -16q-7 -3 -11 -5t-12 -2q-12 0 -31.5 11l-41.5 24.5t-44 24.5t-38 11q-31 0 -53.5 -21t-37.5 -48.5t-22 -55.5t-7 -41q0 -3 5.5 -17.5t14 -35l18 -43.5l18 -43.5t14 -35t5.5 -17.5
q0 -6 -3.5 -20t-11.5 -27.5t-20.5 -24t-30.5 -10.5q-4 0 -13.5 5l-20 10.5l-20.5 10.5t-14 5q-8 0 -11 -2.5t-6 -0.5q7 19 18.5 34.5l22.5 29t18.5 25t7.5 23.5t-6.5 26t-15 29l-17.5 29.5t-15 26.5q34 25 46 48t12 41q0 11 -3.5 26t-12 28.5t-23 23t-36.5 9.5
q-17 0 -34.5 -10.5t-31.5 -26.5t-23 -34t-9 -34q0 -4 7.5 -21t17 -36.5t17 -36.5t7.5 -21q0 -13 -7 -21l-15.5 -17.5t-15.5 -24t-7 -39.5q0 -5 1 -12.5t5 -15.5t11 -13.5t19 -5.5t21.5 10t9.5 23q0 8 -3.5 12.5t-7.5 7.5q-7 -3 -12.5 -8t-8.5 -5q-8 6 -10 9t-2 11
q0 3 3.5 11.5t8.5 18t12 18t13 12.5q5 -7 11 -17.5t11 -22.5t8.5 -23t3.5 -19q0 -32 -15 -52.5t-32.5 -33t-30.5 -20t-10 -12.5h27q8 0 11.5 4.5t11.5 4.5q6 0 18 -4t23.5 -11t19.5 -17t6 -22q13 2 28.5 9.5l31.5 15.5t30 14t23 6q13 0 25 -7.5t22 -19.5t16.5 -26t8.5 -27
q22 15 56 34.5t65.5 42t54.5 47t23 49.5q0 4 -7.5 24.5l-17 44.5l-17 44.5t-7.5 24.5q0 18 6 27t14 18t16.5 23t14.5 41l-32 6q-1 -35 -25 -35q-5 0 -23.5 8.5l-40.5 18l-40.5 18t-22.5 8.5q-17 0 -38 -16.5t-40 -36.5q-5 3 -10 9.5t-9 14.5t-7 16t-3 13q0 4 3.5 15
t10.5 22.5t18 20.5t26 9q11 0 31.5 -11l45.5 -24.5t51.5 -24.5t49.5 -11q4 0 14 4.5t20.5 11.5t19 16t8.5 17zM471 147q0 -15 -6.5 -27t-16.5 -21t-22 -14t-24 -5q-11 0 -24.5 7t-26.5 15l-24.5 15t-17.5 7q-8 0 -19.5 -4t-31.5 -8l17.5 20.5t25 31.5t22.5 34t10 29
q0 4 -7 24l-15 42.5l-15 42.5t-7 24q0 16 10.5 26t24.5 10q4 0 18.5 -7.5l31.5 -17l31.5 -17t18.5 -7.5q8 0 18 2.5t24 5.5l-12.5 -24l-14.5 -27.5t-12 -24.5t-5 -15t7.5 -21.5t17 -37t17 -37t7.5 -21.5zM178 438q0 -17 -16.5 -36l-29.5 -33q-9 2 -17.5 13t-15 24.5
t-11 27.5t-4.5 22q0 13 8.5 27.5t27.5 14.5q23 0 40.5 -17.5t17.5 -42.5z" />
    <glyph glyph-name="X" unicode="X" horiz-adv-x="498" 
d="M476 497q-7 0 -14.5 -4t-14.5 -4q-4 0 -10 6t-15 13.5t-22 14t-31 6.5t-27 -6t-16.5 -16.5t-18.5 -24.5t-33 -29q-4 13 -14 25.5t-22 22.5t-25.5 16.5t-23.5 6.5q-9 0 -33 -19t-49 -42l-44.5 -42.5t-20.5 -21.5q-8 -20 -7.5 -37.5t2 -33.5t-0.5 -31t-14 -28q4 -4 11 -7.5
t10 -3.5q10 12 25 27l28.5 29.5t23 26t9.5 15.5t-3 13.5l-6 19.5t-6 19t-3 12q0 5 4.5 11.5t10.5 12.5t12.5 10t10.5 4q19 0 30 -15t17 -33.5t7.5 -36.5t1.5 -24q0 -4 -0.5 -12t-2 -17t-3.5 -18t-4 -14q-22 -4 -42 -20t-37.5 -38t-32 -47t-25 -48t-17.5 -41.5t-9 -25.5
q3 0 8.5 -3t15.5 -3l38 24.5t29 25.5q7 13 2 29.5t-7.5 31.5t5.5 25.5t42 10.5q8 0 17 -0.5t19 -6.5q4 -20 -6 -54t-23.5 -70l-25.5 -66t-12 -41q0 -7 3 -20t9.5 -26t17.5 -22.5t27 -9.5q18 0 39 10l43.5 21.5t45 21.5t43.5 10q31 0 35 -16t-5 -37q18 7 26.5 15t8.5 9
q0 11 -7.5 20.5t-17.5 16t-20.5 10.5t-16.5 4q-30 0 -55.5 -11t-46.5 -24.5l-38 -24.5t-31 -11q-10 0 -16.5 8t-10.5 18t-5.5 18.5t-1.5 10.5q0 18 5 35.5t12.5 32.5t16 28l14.5 22q21 -2 33.5 -12.5t19 -25.5t8 -31.5t-0.5 -28.5q30 27 62.5 60.5t55.5 63.5q-10 -4 -24 -13
t-22 -9q-24 0 -36.5 14t-17.5 32t-5.5 34t-0.5 20q7 7 14 11.5t15 4.5q9 0 25.5 -7.5t28.5 -10.5q14 27 26.5 58l23.5 57q-11 -6 -30 -11.5t-27 -5.5q-23 0 -37 4t-21.5 13t-10 24.5t-2.5 38.5q0 3 0.5 19.5t5.5 35t15 33t30 14.5q6 0 15.5 -5t18 -12.5t15 -16.5t6.5 -17
t-2 -17t-6 -16z" />
    <glyph glyph-name="Y" unicode="Y" horiz-adv-x="478" 
d="M456 306q0 26 -8 61t-25.5 66.5t-44.5 53t-66 21.5q-4 0 -13.5 -8.5t-21 -21l-23.5 -26.5t-22 -24q-8 5 -22 15l-29 20.5t-29 18.5t-22 8q-26 0 -46 -15t-33 -36.5t-19.5 -44.5t-6.5 -39q0 -38 14 -53.5t30.5 -23.5t30.5 -15.5t14 -27.5q0 -6 -5 -12t-12 -11t-15 -8
t-15 -3q-8 0 -20 7t-25 10q0 -6 5.5 -12t12.5 -11.5t14.5 -8.5t10.5 -3q11 0 23.5 4.5t23 13t17.5 21.5t7 30q0 26 -6.5 41.5t-16.5 24t-21.5 13t-21.5 10t-16.5 14.5t-6.5 26q0 4 1.5 14t6.5 20.5t13 18t22 7.5q30 0 49.5 -17.5t30.5 -41t15.5 -47t4.5 -34.5
q0 -29 -8.5 -53t-26.5 -46.5t-44.5 -45t-62.5 -49.5q34 10 54 16.5t28 6.5q26 0 37.5 -9.5t15 -23t4 -28t5.5 -23.5l122 128q-17 -7 -35 -16t-29 -19q-12 13 -23.5 21t-22 13.5l-18.5 10t-14 10.5q20 17 39 30.5l39 26.5q6 44 4.5 79.5t-1 60t6.5 37.5t27 13q35 0 55.5 -22
t31 -52t13.5 -61t3 -49q0 -8 -4 -30t-13 -51t-22.5 -60.5t-32.5 -58t-43.5 -43.5t-55.5 -17q-5 0 -16.5 3l-24 6l-24 6t-15.5 3q-6 0 -18 -1.5t-23 -6t-19.5 -11.5t-8.5 -19q0 -20 17.5 -31t42.5 -11q4 0 20.5 5.5l35 12l35 12t20.5 5.5q8 0 18 -7t24 -15t33.5 -15t46.5 -7
q7 0 22 2t30 9t26 20t11 35q0 8 -4 19t-12 20.5t-19 16.5t-25 7q-4 0 -12 -4t-15.5 -10t-13.5 -13.5t-6 -15.5q0 -2 2 -7.5t5 -11t7.5 -10t10.5 -4.5q7 0 4 9t-5.5 20t1 20t24.5 9q19 0 29.5 -17.5t10.5 -33.5q0 -15 -13.5 -23.5t-30.5 -13t-31.5 -5.5t-15.5 -1
q-14 0 -23.5 2.5t-19.5 7.5t-22.5 13.5t-30.5 19.5q67 53 108 89t63.5 69t30 70t7.5 92zM198 -18q-5 -14 -24 -22t-35 -8q-2 0 -9 1t-14.5 3.5t-13.5 6t-6 9.5q0 10 14 19.5t24 9.5q8 0 27.5 -6t36.5 -13z" />
    <glyph glyph-name="Z" unicode="Z" horiz-adv-x="416" 
d="M394 337h-28q-7 0 -15 -10t-15 -22t-12 -23t-5 -13q0 -4 3 -12l6 -16l6 -16t3 -12q0 -8 -6 -16.5t-14 -14.5q-23 23 -43.5 48t-39.5 43q49 29 76 72.5t27 81.5q0 9 -11 26.5t-27 35.5t-34.5 31t-32.5 13q-16 0 -46 -9.5t-60 -26t-52 -39.5t-22 -51q0 -14 9 -27t20 -24.5
l20 -21t9 -14.5q0 -12 -12.5 -19.5t-23.5 -7.5q-8 0 -21.5 5t-30.5 8q1 -4 8 -10t16 -11.5t17.5 -9.5t13.5 -4q14 0 26.5 9t22 22t15 28t5.5 28q0 4 -7.5 14t-17 21t-17 20.5t-7.5 13.5q0 26 21 46t54 20q15 0 33 -11.5t33 -29t25.5 -37t10.5 -35.5q0 -42 -26 -70t-60.5 -47
t-69 -33.5t-52.5 -29.5q8 -4 18.5 -1t22 8l23 10t22.5 5q13 0 27 -8t26 -20.5t20.5 -27t9.5 -26.5q-10 -8 -27 -18.5l-37 -23.5t-39 -28t-32.5 -31t-18.5 -32.5t3 -32.5q13 -15 27 -19t26 -4q16 0 40 5t49 15.5t47.5 28t34.5 41.5q7 13 8.5 32t1 37t-1 31t2.5 15
q26 17 36 34t12 33t-1.5 31.5t-3.5 29.5q0 15 6 28t26 25zM257 67q0 -28 -10 -46t-25.5 -28.5t-33.5 -15t-34 -4.5q-15 0 -29.5 5t-14.5 22q0 23 14.5 41.5t35.5 33t43.5 24.5t38.5 16q4 -10 9.5 -25t5.5 -23z" />
    <glyph glyph-name="bracketleft" unicode="[" horiz-adv-x="164" 
d="M142 -99h-66v513l66 11h-120v-536z" />
    <glyph glyph-name="backslash" unicode="\" horiz-adv-x="270" 
d="M248 407q-10 3 -22.5 9t-25 11l-22.5 9t-14 4q-19 0 -36.5 -12t-32.5 -30t-28 -40t-22 -41.5t-15 -34t-8 -18.5q7 -7 12 -13t5 -14v-145q0 -4 2 -25t5 -47.5l6 -53t6 -41.5q8 2 15 26t13 58.5t10.5 75t8 76t5 61.5t1.5 31q0 4 -4 16t-9.5 25.5t-9.5 25t-4 16.5
q0 6 4 15.5t11.5 18.5t17 15t20.5 6q4 0 12 -4t17 -9.5t17 -9.5t12 -4t11 4.5t14.5 11.5l15 14.5z" />
    <glyph glyph-name="bracketright" unicode="]" horiz-adv-x="164" 
d="M142 -110v536l-120 -12h66v-513l-66 -11h120z" />
    <glyph glyph-name="asciicircum" unicode="^" horiz-adv-x="342" 
d="M320 227l-54 101.5l-53 97.5h-84l-56 -100.5l-51 -98.5h66l83 146l83 -146h66z" />
    <glyph glyph-name="underscore" unicode="_" horiz-adv-x="317" 
d="M324 -173v57h-328v-57h328z" />
    <glyph glyph-name="grave" unicode="`" horiz-adv-x="176" 
d="M154 353q-15 5 -30.5 18t-26 28.5t-15.5 31t1 26.5q-22 -4 -36.5 -4.5t-24.5 -4.5q1 -11 13 -28t29.5 -33.5t36 -28t31.5 -11.5q7 0 13.5 3t8.5 3z" />
    <glyph glyph-name="a" unicode="a" horiz-adv-x="274" 
d="M252 75q-14 2 -23 13t-14.5 26t-8 30.5t-2.5 26.5q0 28 10 51.5t30 51.5q-7 3 -16 8l-17.5 10t-14 10t-5.5 9q0 8 1.5 12.5l1.5 4.5q-39 -11 -71 -36.5t-54.5 -56t-34.5 -62t-12 -55.5q0 -7 6 -24t17 -35t25.5 -32t31.5 -14q11 0 17 5.5t11 13.5t10 17.5t13 17.5
q9 -14 12 -32.5t9 -38.5q23 11 47 32t31 47zM177 229q-16 -14 -22.5 -34t-10 -42t-7.5 -42.5t-15 -34.5q-10 8 -18 20.5t-13.5 26t-8.5 26t-3 20.5q0 3 2.5 17.5t8.5 30.5t15 28.5t21 12.5q8 0 22.5 -9.5z" />
    <glyph glyph-name="b" unicode="b" horiz-adv-x="262" 
d="M240 209q0 7 -6.5 25t-16 40t-22 44.5t-24.5 37.5q-17 -17 -31 -36t-31 -36q-3 7 -5 13t-2 14q0 43 6 68t14 41t16.5 26t14.5 22q-36 -8 -59 -32t-36 -56t-18 -67.5t-5 -65.5q0 -8 2.5 -20.5t2.5 -20.5v-119q0 -8 -7 -17t-11 -16h28l20 -27t21 -23l53.5 43.5t47.5 48
t34.5 53.5t13.5 60zM186 147q0 -8 -7 -17.5t-15 -17.5t-15.5 -13.5t-8.5 -5.5q-13 0 -20 10t-10 22.5t-3.5 24.5t-0.5 17q0 19 4 45.5t16 49.5q15 -7 26 -22t18.5 -32.5t11.5 -34.5t4 -26z" />
    <glyph glyph-name="c" unicode="c" horiz-adv-x="244" 
d="M222 296q-3 3 -14 2.5t-19 -0.5q-4 0 -10 4t-12.5 9t-12.5 9t-10 4q-26 0 -48.5 -17t-39 -39t-25.5 -44t-9 -31q0 -4 0.5 -18t1.5 -31.5t3 -36.5t5 -34q3 -12 13 -21.5t21 -17.5t18.5 -17t4.5 -21q13 2 29.5 16.5t31 33t24.5 35.5t11 23q-14 -2 -28 -12t-21 -12
q-7 7 -15.5 25.5t-15.5 41t-11.5 45t-4.5 39.5q0 16 11 27q14 -8 32 -15t26 -7q10 0 20 7.5t19 17t15.5 19.5t9.5 16z" />
    <glyph glyph-name="d" unicode="d" horiz-adv-x="258" 
d="M236 207q0 25 -11.5 45.5t-29 38t-37.5 31l-37.5 26t-29 23t-11.5 20.5q0 4 4.5 10t10.5 12l12 12l9 9l-21 6q-7 -7 -18 -15.5t-21 -19t-17.5 -21.5t-7.5 -22q0 -17 8.5 -31.5t18.5 -25t18.5 -17.5t8.5 -8q0 -11 -10 -20t-21.5 -25t-21.5 -41t-10 -67q0 -12 6.5 -28
t17 -32.5t23 -31.5t25.5 -25v-5t0.5 -4t0.5 -6v-13q45 43 73 72.5t43 53.5t20 46.5t5 52.5zM178 167q0 -10 -3 -24t-8 -28t-10.5 -26t-11.5 -18q-17 4 -28 19.5t-18.5 35t-10.5 39.5t-3 33v19t2 13.5t7 14.5l14 22q12 -5 24 -14.5t22.5 -22.5t17 -29t6.5 -34z" />
    <glyph glyph-name="e" unicode="e" horiz-adv-x="216" 
d="M194 97l-25 -14.5t-18 -6.5q-9 0 -20.5 7t-22 17.5t-17.5 23t-7 23.5q0 13 14.5 24l32 24t32 28.5t14.5 38.5q0 11 -9 33.5t-9 46.5q-44 -19 -71 -41t-41.5 -46t-19.5 -50.5t-5 -53.5q0 -4 0.5 -14t2 -22.5t4.5 -25t8 -21.5q6 -12 18 -22.5l22.5 -20t16.5 -18t2 -15.5
q11 7 27.5 21.5t31.5 30.5t26 30.5t13 22.5zM128 222q0 -4 -4.5 -9.5t-11.5 -11l-14 -11t-12 -8.5q-4 7 -7.5 17.5t-3.5 18.5t6.5 26t13.5 32q5 -5 10.5 -12.5t10.5 -15.5t8.5 -15t3.5 -11z" />
    <glyph glyph-name="f" unicode="f" horiz-adv-x="248" 
d="M226 403q-13 -3 -25 0.5t-24 9t-23 10t-21 4.5q-20 0 -40 -22.5t-36 -51.5t-25.5 -56.5t-9.5 -36.5q0 -4 2 -29.5t6 -62.5l9 -79.5t11.5 -80.5t13.5 -67.5t14 -38.5q8 30 9.5 64t1 68t0.5 66.5t8.5 59.5t25 46t50.5 27q-10 11 -26.5 18.5t-32.5 17.5t-27.5 24t-11.5 38
q0 2 3.5 11t11 20t19.5 11q4 0 12.5 -2.5t17.5 -6t17.5 -6t12.5 -2.5q16 0 29.5 13.5t27.5 33.5z" />
    <glyph glyph-name="g" unicode="g" horiz-adv-x="336" 
d="M314 251q-6 7 -16 11.5t-10 12.5t4.5 17.5t8.5 15.5q-3 4 -7 5.5l-4 1.5q-7 -4 -16.5 -15.5t-16.5 -11.5q-4 0 -11 4t-13.5 10t-11 13t-4.5 13q-41 -17 -68.5 -40.5t-44 -51.5t-23.5 -59.5t-7 -63.5q0 -5 7 -15.5t15.5 -22t15.5 -22t7 -14.5q0 -7 -1.5 -13t-1.5 -9
q23 20 47 37l47 34q8 -10 17 -23t16.5 -25t12.5 -22t5 -14q0 -3 -2.5 -11.5t-7.5 -16.5t-13.5 -14.5t-20.5 -6.5q-4 0 -20 5.5l-34 12l-33.5 12t-19.5 5.5q-10 0 -24 -10t-27.5 -22.5t-24 -25t-12.5 -16.5q6 1 15 5.5t18 8.5l16.5 7.5t11.5 3.5t18 -5l29.5 -10.5l29 -10.5
t17.5 -5q19 0 40 11.5t39 30t29.5 40.5t11.5 43q0 4 -5 23l-10.5 40.5l-10.5 40t-5 22.5q0 27 5 39.5t12.5 19.5t16 13t14.5 18zM225 234q-3 -9 -8 -32.5t-12 -49t-15.5 -45t-17.5 -19.5q-7 0 -15 7t-14.5 16t-10.5 17.5t-4 10.5q0 4 3.5 23.5t8 42t9 42t7.5 23.5
q17 -7 34.5 -15t34.5 -21z" />
    <glyph glyph-name="h" unicode="h" horiz-adv-x="280" 
d="M262 149q0 7 -6.5 30l-14 47.5l-13.5 44t-6 20.5q0 8 3.5 17.5t3.5 15.5q-29 -19 -53.5 -37t-49.5 -34q-3 4 -3 6q0 3 -4 6q7 37 7.5 73t11.5 68q2 5 9 11.5t13.5 14t11.5 15t2 13.5q-18 -3 -37 -15t-35.5 -26.5t-29 -29t-18.5 -22.5q1 -12 3 -24.5l4 -24.5t3 -22.5
t1 -17.5q0 -12 -2 -30.5t0 -27.5q6 -33 2 -60t-10.5 -46.5t-13 -32t-6.5 -17.5q0 -4 6.5 -8t15.5 -8.5l19 -9.5t17 -10q-3 -7 -5.5 -13.5t-2.5 -9.5q12 5 24 15t23.5 21.5t22.5 24t22 21.5q-10 0 -16.5 -1.5t-14.5 -1.5q-26 0 -26 38q0 5 -0.5 25t2 41.5t10.5 38.5t25 17
q15 0 23.5 -10.5t13 -24.5t5.5 -28t1 -21q0 -46 -8 -78.5t-27.5 -61t-53.5 -57t-85 -67.5q4 -4 7.5 -5.5l3.5 -1.5q36 21 76 51t73 65t54.5 72t21.5 72z" />
    <glyph glyph-name="i" unicode="i" horiz-adv-x="186" 
d="M143 402q-12 -1 -22 6.5t-17.5 17.5t-13 19t-8.5 11q0 -11 -4.5 -19.5t-10.5 -15.5t-13 -13t-13 -12q17 -13 31 -29.5t24 -29.5q11 17 23.5 34zM164 74q-7 3 -16.5 2t-16.5 -5q-16 12 -18 26t-2 21q0 49 4.5 75.5t11.5 41t14 23t12 20.5q-5 1 -9.5 -0.5t-12.5 -1.5
q-3 0 -9.5 4.5t-13.5 11.5t-13 15.5t-8 16.5l-36 -42t-29 -40q18 -11 24 -26t6.5 -33.5t-2 -39t-2 -42t7 -43.5t24.5 -42q-6 -5 -8 -13t1 -10q11 3 23.5 13.5t25 23.5l23.5 25t19 19z" />
    <glyph glyph-name="j" unicode="j" horiz-adv-x="178" 
d="M133 412q-8 0 -17 6t-16.5 14.5t-12.5 17.5t-3 16q-5 -2 -12 -9.5l-15.5 -17l-16 -18.5t-13.5 -15q20 -13 33 -31t27 -28l21 34t25 31zM156 274q-7 3 -12 2.5t-13 -0.5q-11 0 -19 6t-14 14t-9.5 16t-5.5 12q-8 -10 -17.5 -20.5l-18.5 -21t-16 -21t-9 -20.5
q20 -16 23 -41.5t0 -56.5t-7 -66t3 -71q5 -27 10 -40.5t9.5 -19.5t7.5 -8.5t3 -8.5q0 -8 -3.5 -16t-3.5 -11l58 46.5t31 41.5q-8 1 -15.5 -1.5t-10.5 -6.5q-3 3 -6.5 10.5t-6.5 15t-5 14t-2 7.5q0 2 1 18t3 40t6 52t9 54.5t12.5 48.5t17.5 32z" />
    <glyph glyph-name="k" unicode="k" horiz-adv-x="302" 
d="M280 420q0 17 -8 28.5t-19.5 18.5t-24.5 10t-24 3q-26 0 -49 -15t-42.5 -39t-35.5 -53t-27.5 -56.5t-18.5 -50.5t-9 -34q10 -2 13 -24.5t6 -56.5t10 -74t26 -77q23 17 47 43l44 49q-14 -3 -24 -7.5t-18 -4.5q-9 0 -14.5 9.5t-9 21.5t-4.5 23.5t-1 16.5q0 16 2.5 37.5
t10.5 32.5q10 4 23.5 5.5t25 4.5t18.5 10.5t4 24.5q-11 3 -22 1.5t-22 3.5q9 8 21 14.5t22 12.5t17 13t7 16t-8.5 19t-22.5 10q-5 0 -14.5 -3.5t-20 -8l-20.5 -9l-17 -7.5q0 25 8.5 48.5t22.5 41.5t32 29t38 11q14 0 26.5 -3t23.5 -27l6.5 -17.5t10.5 -14.5q3 8 7 12t4 12z
M151 309q0 -1 -3.5 -6.5t-10.5 -11t-16 -9t-21 -0.5l-2 24q3 3 13 9t30 9l5 -3.5t5 -11.5z" />
    <glyph glyph-name="l" unicode="l" horiz-adv-x="248" 
d="M226 373q0 7 -4 16.5t-10.5 17.5t-16 14t-20.5 6q-27 0 -48.5 -12.5t-38.5 -31.5t-29.5 -42.5t-20.5 -45.5t-12 -40t-4 -26q0 -5 2 -21t5.5 -38.5t8 -48.5l9 -51t9 -46t7.5 -33q27 17 54 41t47 47q-17 -7 -26 -12t-16 -5q-13 0 -20 16t-10 37t-3.5 40.5t-0.5 26.5
q0 32 10 53.5t25.5 37.5t33.5 27t33.5 22t25.5 22.5t10 28.5zM186 360q0 -8 -11 -19t-25 -22.5t-28.5 -21t-21.5 -13.5q-7 3 -11.5 12t-4.5 17t3.5 22t10.5 27.5t18 23.5t26 10q8 0 16 -5t14 -11.5t10 -12.5t4 -7z" />
    <glyph glyph-name="m" unicode="m" horiz-adv-x="430" 
d="M408 83q-18 0 -27 9.5t-12.5 23t-4 28t-0.5 23.5q0 13 1.5 31t4.5 35t7 31t9 19q-4 0 -7 -1.5t-11 -1.5t-18 13.5t-17 24.5l9 18q-7 3 -18.5 -4t-24 -18l-24.5 -22.5t-20 -15.5q-11 11 -22.5 27.5t-17.5 29.5l-84 -89q-14 20 -24.5 43t-10.5 51l-74 -88q19 2 28.5 -7
t13 -23t3 -29.5t-0.5 -26.5q0 -23 -2 -45t-20 -42q10 -5 17.5 -13t13 -16.5t9 -17t6.5 -12.5q17 17 29 34t23 31q-5 3 -9 11.5t-7 18.5t-5 19t-2 12q0 13 1.5 31.5t7 36.5t15.5 32t27 18q11 -5 16.5 -16.5t7.5 -25.5t1.5 -27.5t-0.5 -23.5q0 -31 -2 -46.5t-6 -23.5t-10 -14
t-13 -17q17 -10 32.5 -25t32.5 -25q13 17 29 34l30 31q-14 0 -19 -1.5l-5 -1.5q-16 13 -16 21v19v23t2.5 50.5t9 50.5t19.5 23q24 0 30 -14.5t7 -45.5l2.5 -79t15.5 -115q17 11 37 32z" />
    <glyph glyph-name="n" unicode="n" horiz-adv-x="306" 
d="M284 73q0 8 -2.5 9.5l-2.5 1.5q-4 0 -3 -2t-8 -2q-8 0 -12.5 6.5t-7 14.5t-3.5 16t-1 10q0 12 4 34.5t9.5 46.5t11.5 44.5t10 26.5q-11 -5 -20 0.5t-16 16t-12 22.5t-6 20q-11 -14 -23 -24l-25 -20l-26 -20.5t-25 -24.5l-7 8q-2 15 -6 37t-3 45q-9 0 -23 -10t-28 -22.5
t-25 -24.5t-12 -18q2 -2 8.5 -4.5t13.5 -6t12.5 -9.5t5.5 -13t-4 -33t-9.5 -55t-9.5 -52.5l-4 -23.5q0 -4 5 -10.5t12.5 -14.5l15 -16.5t13.5 -16.5q6 1 15 8.5t17 15.5t14 16t6 11q0 1 -3.5 9t-7.5 18.5l-7.5 19.5t-3.5 11q0 3 0.5 26t6 49.5t18 47.5t35.5 21
q17 0 21 -18.5t2.5 -46t-5.5 -60t-2 -60t12.5 -46t37.5 -18.5q3 0 11 7t16 16.5t14 20t6 16.5z" />
    <glyph glyph-name="o" unicode="o" horiz-adv-x="248" 
d="M226 162q0 5 -8 28l-18 51l-20 54t-13 38l-42.5 -34t-47.5 -42.5t-39 -46.5t-16 -48q0 -23 10 -42.5t23 -38.5l25.5 -39t18.5 -42q27 17 50 37t40.5 41t27 42.5t9.5 41.5zM177 133q0 -4 -3.5 -13t-8 -19.5t-9 -19t-7.5 -10.5q-15 11 -28.5 27t-23.5 34t-16 35.5t-6 32.5
q0 7 8 22.5t16 26.5q5 -2 17.5 -17t26 -33.5t24 -37.5t10.5 -28z" />
    <glyph glyph-name="p" unicode="p" horiz-adv-x="288" 
d="M266 207q0 3 -6.5 22t-17 41.5t-25 40.5t-29.5 18q-5 0 -13 -6.5l-16.5 -14t-16 -13.5t-11.5 -6q-11 0 -17.5 7t-10 15.5t-5 16.5t-2.5 10q-10 -1 -22 -10.5t-23 -21.5t-19 -24.5t-10 -18.5q23 -5 34.5 -25.5t15.5 -44.5t3.5 -44.5t-0.5 -24.5q0 -11 -9 -23.5t-9 -20.5
q0 -6 5 -9.5t10.5 -8.5t10.5 -14t5 -28q0 -40 0.5 -65t1.5 -40t0.5 -22.5t-1.5 -11.5q3 0 10 -2.5t11 -2.5q4 21 7 44.5l6 46t7 43t10 35.5q8 -3 16.5 -8.5t16.5 -5.5q28 0 46 25t28.5 56.5t14.5 59.5t4 35zM217 151q0 -5 -1 -16t-4.5 -22.5t-10 -20t-17.5 -8.5q-8 0 -22 6
t-24 13v159q25 -4 41 -18.5t24 -32t11 -34.5t3 -26z" />
    <glyph glyph-name="q" unicode="q" horiz-adv-x="264" 
d="M242 290q-16 -2 -26.5 4t-18 15t-11.5 18.5l-6 14.5q-21 -20 -48.5 -41.5t-52 -45t-41 -49t-16.5 -53.5q0 -17 10.5 -37.5t23 -42t22.5 -41t9 -32.5q7 7 17.5 16t21 17l19 14t12.5 6q8 0 12 -11t4 -18v-137q0 -1 0.5 -8t3.5 -15t9 -14t17 -5q10 81 13 147l5.5 120.5t6 98
t14.5 79.5zM164 215q-2 -2 -3 -5.5t-1 -15.5t1 -36.5t3 -67.5q-3 -4 -8.5 -9t-13.5 -5q-17 0 -28.5 18t-19.5 40.5t-11.5 41t-3.5 20.5q0 8 3.5 19t9.5 20.5t14.5 16t19.5 6.5q9 0 16 -6t12 -13.5t7.5 -14.5t2.5 -9z" />
    <glyph glyph-name="r" unicode="r" horiz-adv-x="266" 
d="M244 270q-20 10 -31 27.5t-1 35.5q-20 -14 -38.5 -29.5l-38.5 -32.5q-16 7 -25 28.5t-7 38.5q-19 -17 -43 -40.5t-38 -42.5q27 -3 39.5 -20.5t16.5 -37.5t3 -38t-1 -21q0 -20 -3.5 -31.5t-8 -17.5t-8 -9t-3.5 -7l8 -7t17.5 -17t18 -20.5t10.5 -19.5q8 4 19.5 12
t23.5 18.5t23 22t18 21.5q-11 0 -18 -1.5t-15 -1.5q-2 0 -8 12l-13 27t-12 28t-5 15q0 5 3 17.5t7.5 27.5t10.5 30t13 25l23.5 -25t20.5 -15l24 24.5t18 23.5z" />
    <glyph glyph-name="s" unicode="s" horiz-adv-x="236" 
d="M214 135q0 9 -7 22t-15.5 25.5t-15.5 21.5t-7 10q0 4 4 10t9.5 13t9.5 13.5t4 11.5q0 10 -7.5 17l-16 14.5t-14.5 17.5t-3 27l-133 -117q22 -24 28.5 -44t3.5 -38.5t-12.5 -36t-18.5 -36.5q23 -8 36 -22t13 -25q0 -7 -2.5 -14t-6.5 -10q31 12 59 27.5t48 33.5t32 38
t12 41zM152 222q0 -4 -5.5 -9t-13.5 -10.5l-17 -11.5t-16 -10q-4 12 -7.5 29t-3.5 25q0 6 2 21.5t9 23.5q8 -6 17.5 -14.5t17 -16.5t12.5 -15.5t5 -11.5zM156 110q0 -8 -6.5 -26.5t-13.5 -31.5l-18.5 18l-23 21.5t-19.5 19t-8 12.5q0 3 4 11t10.5 16.5t15 15t17.5 6.5
q13 0 21.5 -8t13 -18.5t6 -20.5t1.5 -15z" />
    <glyph glyph-name="t" unicode="t" horiz-adv-x="204" 
d="M182 288q-3 1 -11 5.5t-16.5 10.5t-15 12.5t-6.5 12.5q0 8 1.5 21t1.5 23l-114 -114q11 -3 21 -5t19 -8q-6 -30 -10 -58.5t-1 -57.5t15 -60t38 -66q20 24 39.5 53.5t29.5 50.5q-8 0 -12 -0.5t-7 -1t-6 -1.5t-8 -3q-13 13 -19 32.5t-6 36.5q0 10 0.5 21.5t2 22.5t5 20
t9.5 13q9 6 17 6q9 0 16 2t12 8t5 24z" />
    <glyph glyph-name="u" unicode="u" horiz-adv-x="308" 
d="M284 82q-16 -4 -23.5 4.5t-10 22t-2 28t0.5 23.5q0 29 2 43t5.5 22.5t8.5 16t10 24.5q-21 2 -33 21t-3 41l-57.5 -36.5t-30.5 -27.5q5 -2 12.5 -6t14.5 -10.5t12 -15t5 -19.5q0 -1 0.5 -12t0 -28t-3 -36.5t-8.5 -36t-16 -27.5t-26 -11q-9 0 -17 9.5t-9 24.5
q-4 48 -6.5 75t-4.5 42t-3.5 21t-2 13t-1 18t-0.5 35q0 8 3.5 17t3.5 16q-6 -9 -17 -20l-23.5 -23t-24 -25.5t-18.5 -27.5q17 0 25 -1t11 -4q1 -12 2.5 -26t3 -26.5t2 -23t0.5 -14.5q0 -13 0.5 -24t-1.5 -21.5t-7.5 -22t-17.5 -24.5q9 0 18.5 -5.5t18.5 -12.5t16 -13.5
t11 -9.5q24 16 46.5 35l42.5 36q11 -17 18.5 -38.5t12.5 -37.5q8 10 20 21.5l22.5 22.5t16 20t1.5 14z" />
    <glyph glyph-name="v" unicode="v" horiz-adv-x="276" 
d="M254 173q0 13 -6.5 30.5t-15 36l-17.5 36.5t-15 33q5 6 9 12.5t3 16.5l-53 -33.5l-54 -33.5q-10 12 -17.5 28.5t-7.5 24.5q0 9 7.5 24t14.5 27q-9 -2 -22.5 -14.5t-26 -27.5t-22 -28.5t-9.5 -15.5q0 -1 5 -11.5t11 -27t11 -38t5 -45.5q0 -26 -5 -53.5t-13 -50.5
q7 1 16 -6t17.5 -17t15.5 -21t10 -19l59.5 37t50.5 38.5t35.5 44t13.5 53.5zM196 144q0 -6 -2.5 -19t-7.5 -25.5t-13 -22.5t-19 -10q-2 0 -10.5 4t-17.5 10t-16.5 13.5t-7.5 14.5q0 18 4 44.5t10.5 52t14 45t14.5 24.5q1 -1 9 -18l17.5 -39t17 -43.5t7.5 -30.5z" />
    <glyph glyph-name="w" unicode="w" horiz-adv-x="386" 
d="M364 190q0 19 -5 40.5t-14.5 40.5t-22.5 34.5t-29 22.5q3 3 3 7v8q-17 -11 -31.5 -25t-31.5 -28q-5 3 -12 8.5l-14 11t-11.5 11t-4.5 9.5q0 8 1.5 9t-0.5 4q-22 -10 -45 -27.5t-43 -34.5q-13 7 -23 20.5t-10 26.5q0 4 5.5 12t13 17l15 18.5t10.5 17.5q-9 -2 -24.5 -14.5
t-31 -29.5t-26.5 -34.5t-11 -29.5q0 -6 7.5 -20.5t17 -36.5t17 -50t7.5 -59q0 -9 -1.5 -17t-5 -16.5t-8.5 -18.5t-11 -25q12 3 22 -2t16.5 -13t9.5 -18t1 -17q9 6 20.5 15.5t23 17.5l20.5 14t13 6q21 0 32.5 -16.5t13.5 -36.5q23 27 49 51t47.5 48t36 48t14.5 51zM306 150
q0 -19 -8.5 -34t-28.5 -44q-7 4 -13.5 16.5t-11 27.5t-7 29.5t-2.5 22.5q0 9 1.5 15.5t3 16t3.5 25t2 42.5q23 -5 35.5 -19.5t18 -32t6.5 -35.5t1 -30zM191 219q0 -4 -1.5 -27.5t-6 -50.5t-14.5 -49t-26 -24q-11 36 -17 81t-6 118l8.5 8.5t13.5 5.5q10 0 19 -9.5t15.5 -21
t10.5 -21.5z" />
    <glyph glyph-name="x" unicode="x" horiz-adv-x="278" 
d="M256 308q-6 3 -14 9t-15.5 11t-14.5 9t-11 4q-6 0 -13 -8l-16.5 -18t-21.5 -18.5t-26 -9.5q-7 12 -8.5 23.5t-12.5 21.5q-10 -12 -23 -24t-25 -24.5t-21.5 -24.5t-11.5 -24q6 0 15 4t17 4q9 0 14 -19t7.5 -43t3 -45.5t0.5 -26.5q0 -4 -3.5 -13.5l-7.5 -19.5l-7.5 -19.5
t-3.5 -13.5q0 -11 6.5 -30t12.5 -28l20 6q-3 10 -12.5 24.5t-9.5 22.5q0 1 2 7t5 13.5t7.5 13.5t10.5 6t13 -5.5t14 -13t11.5 -15.5t4.5 -14q11 10 23 23.5t22.5 28t18 29t10.5 25.5l-29 -10t-13 -8q-18 13 -26 21t-10.5 14t-1.5 12.5t1 17.5q0 37 8 55.5t21 30.5
q7 -3 16 -10t17 -7q5 0 13.5 5.5t17.5 14t16.5 18.5t9.5 18z" />
    <glyph glyph-name="y" unicode="y" horiz-adv-x="302" 
d="M280 184q0 28 -3.5 41t-12 24.5l-22 29t-33.5 54.5q-18 -14 -39 -32.5t-35 -29.5q-7 6 -13.5 16t-11.5 20l-9 18.5t-5 12.5q-15 -5 -26 -16t-19.5 -24t-15.5 -26t-13 -22q22 6 34.5 -3t18.5 -24.5t7.5 -33t1.5 -29.5q0 -10 0.5 -18t-1.5 -18t-8.5 -24.5t-21.5 -36.5
q10 0 21.5 -5.5t20.5 -13.5t15.5 -17.5t6.5 -17.5q14 23 35.5 50.5l38.5 50.5q-13 1 -22.5 -2.5t-14.5 -5.5q-11 10 -14 19t-3 17q0 9 2.5 26.5t6.5 36.5t8.5 34t8.5 18q19 0 31 -18t18 -41.5t8 -47t2 -33.5q0 -24 -23 -51t-50.5 -55t-50.5 -55.5t-23 -51.5q0 -8 7 -16
t15 -8q9 0 11.5 2t5.5 2q15 47 33.5 78t37 52.5t35.5 37.5t30.5 34t21.5 41.5t8 60.5z" />
    <glyph glyph-name="z" unicode="z" horiz-adv-x="190" 
d="M168 118q-10 0 -20 -4t-16 -4q-14 17 -23.5 31.5t-15.5 28.5q31 24 43.5 45t16.5 41t5 41.5t10 47.5l-25 -13l-45 -23.5l-43 -23l-19 -10.5q2 0 12.5 -5t23 -20.5t12.5 -41.5q0 -13 -9.5 -24.5t-21.5 -22t-21.5 -20.5t-9.5 -20q0 -4 7.5 -12t17 -16.5t17 -16.5t7.5 -12
q0 -9 -7 -16.5l-15.5 -17t-15.5 -23t-7 -34.5q0 -4 1.5 -18.5t6 -30t13 -28t21.5 -12.5q17 0 32.5 17t27.5 39t19.5 43t7.5 30q0 4 -2 13t-5 19.5t-6 22.5t-5 22q10 10 18.5 17.5t12.5 10.5zM111 -10q0 -31 -12.5 -54.5t-21.5 -29.5q-6 3 -16 11.5t-17 11.5q1 13 0.5 26
t1.5 26.5t9 27.5t22 30q3 -2 9 -9t11.5 -15t9.5 -15.5t4 -9.5z" />
    <glyph glyph-name="braceleft" unicode="{" horiz-adv-x="194" 
d="M172 426h-59q-16 0 -27 -12.5t-17.5 -28.5t-9 -31t-2.5 -19v-150q0 -8 -13 -16t-22 -10q3 -11 14 -19t21 -19v-149q0 -5 2.5 -20t9 -31t17.5 -28t27 -12h59q-5 8 -15 10.5l-20.5 5t-18.5 8.5t-8 21v152q0 7 -1.5 17t-6 20.5t-13.5 20.5t-23 17q12 2 20.5 12t13.5 22
t7.5 23.5t2.5 17.5v153q0 14 8 19.5t18.5 8.5l20.5 6t15 11z" />
    <glyph glyph-name="bar" unicode="|" horiz-adv-x="110" 
d="M88 -106v532h-66v-532h66z" />
    <glyph glyph-name="braceright" unicode="}" horiz-adv-x="194" 
d="M172 159q-11 4 -20 11t-15 15v151q0 5 -2.5 19.5t-9 30.5t-17.5 28t-27 12h-59q2 -7 12 -10l21 -6.5t20 -10t9 -20.5v-150q0 -7 2.5 -19t7.5 -24t13.5 -21.5t20.5 -11.5q-14 -5 -22.5 -15t-13 -21t-6.5 -22t-2 -18v-150q0 -12 -8 -18.5t-18.5 -10.5l-20.5 -7.5t-15 -9.5
h59q16 0 27 11.5t17.5 26.5t9 30t2.5 22v152q0 4 5 8l11 8.5t11.5 9.5t7.5 10z" />
    <glyph glyph-name="asciitilde" unicode="~" horiz-adv-x="354" 
d="M336 452q-5 3 -5.5 4.5l-0.5 1.5h1q0 1 -3 3q-4 -7 -15 -12.5t-24 -9.5t-24 -6t-15 -2t-23.5 6l-42 13.5l-42 14t-23.5 6.5q-26 0 -46.5 -16.5t-46.5 -61.5q5 -3 5.5 -5t-0.5 -3.5t-1 -3.5q0 -1 4 -2q7 9 18.5 15.5t23.5 10.5t23.5 6t17.5 2q4 0 22.5 -6.5l40.5 -14
l40.5 -13.5t22.5 -6q17 0 32.5 7t28 18.5t21 25.5t11.5 28z" />
    <glyph glyph-name="quotesinglbase" unicode="&#x201a;" horiz-adv-x="158" 
d="M226 430q-13 -3 -25 0.5t-24 9t-23 10t-21 4.5q-20 0 -40 -22.5t-36 -51.5t-25.5 -56.5t-9.5 -36.5q0 -4 2 -29.5t6 -62.5l9 -79.5t11.5 -80.5t13.5 -67.5t14 -38.5q12 45 18.5 84.5t8 78t-2 79.5t-9.5 89q-2 15 -5 23l-6 16.5t-5 21.5t-2 37q0 2 3.5 11t11 20t19.5 11
q4 0 12.5 -2.5t17.5 -6t17.5 -6t12.5 -2.5q16 0 29.5 13.5t27.5 33.5z" />
    <glyph glyph-name="florin" unicode="&#x192;" horiz-adv-x="542" 
d="M520 390q-4 48 -26.5 64.5t-51.5 16.5q-41 0 -67 -23t-42 -56t-25.5 -70t-17.5 -65h-71q-4 -13 -9 -27t-10 -25q20 2 40.5 0.5t35.5 -4.5q-5 -19 -11.5 -47.5l-14.5 -61l-16.5 -65t-18.5 -58t-21 -42t-23 -16.5q-14 0 -24 15.5t-16 36t-9 40t-3 28.5q-33 -4 -55 -5
t-42 -3q22 -26 35 -48.5t25.5 -39.5t29.5 -27t46 -10q35 0 57.5 14t36.5 38t22 55.5t15 65.5t15.5 68.5t23.5 65.5h75q4 14 6.5 27.5t7.5 24.5h-75q0 2 2.5 17t7 37t10.5 47t14.5 46t19 35t22.5 14q18 0 26 -18t9.5 -40t-1 -41t-3.5 -20q17 14 36 27t35 29z" />
    <glyph glyph-name="quotedblbase" unicode="&#x201e;" horiz-adv-x="296" 
d="M274 11q0 21 -14.5 46.5t-51.5 40.5q-9 -14 -24 -30t-26 -26q11 -5 22 -8t20 -9t14.5 -15.5t5.5 -25.5q0 -17 -3.5 -24t-9.5 -11.5l-14 -10.5t-17 -21q17 -1 34.5 8t31.5 23.5t23 31.5t9 31zM140 11q0 21 -14 46.5t-51 40.5q-13 -14 -26.5 -30.5t-26.5 -25.5
q23 -5 44 -18.5t21 -39.5q0 -17 -6 -26.5t-14 -16t-15.5 -11.5t-10.5 -14q20 3 38 13t31.5 23t21.5 28.5t8 30.5z" />
    <glyph glyph-name="ellipsis" unicode="&#x2026;" horiz-adv-x="480" 
d="M458 51q-17 14 -33.5 29.5t-26.5 26.5q-14 -17 -29.5 -33.5l-26.5 -27.5q17 -11 33 -27.5l27 -27.5q14 17 29.5 32t26.5 28zM298 51q-17 14 -32 29.5t-29 26.5q-13 -17 -28.5 -32t-26.5 -29q17 -13 33.5 -30t27.5 -25q13 17 28.5 33.5t26.5 26.5zM138 51
q-17 14 -33.5 29.5t-26.5 26.5q-14 -17 -29.5 -32t-26.5 -29q17 -13 32 -29t29 -26q13 17 28.5 33.5t26.5 26.5z" />
    <glyph glyph-name="dagger" unicode="&#x2020;" horiz-adv-x="386" 
d="M364 346q-7 5 -15.5 13t-17.5 15.5l-16 13t-11 5.5q-3 0 -12.5 -4.5l-23 -11t-30 -13.5t-34.5 -11v25q0 6 5.5 18.5t12.5 25.5t13.5 23.5t8.5 12.5q-14 13 -27.5 29.5t-23.5 30.5q-8 -14 -23 -32t-28 -28q14 -15 21 -29t11 -27t6 -24.5t7 -20.5q-27 -3 -43.5 2.5
t-27.5 13t-18.5 14t-15.5 6.5q-3 0 -10.5 -5.5t-16 -13l-17.5 -15t-16 -12.5q7 -5 15.5 -13t17.5 -15.5l16 -13t11 -5.5q3 0 12 6.5t22.5 14t30.5 13t36 4.5q1 -36 -1.5 -74t-8 -74.5t-13.5 -69.5t-18 -58q14 -14 27.5 -30t23.5 -30q8 14 23 32t28 28q-23 58 -32.5 132
t-8.5 147q21 -4 35.5 -8.5t26.5 -10t22 -11t22 -11.5q10 14 27 27.5t28 18.5z" />
    <glyph glyph-name="daggerdbl" unicode="&#x2021;" horiz-adv-x="386" 
d="M364 82q-17 11 -33.5 23.5t-26.5 23.5q-29 -23 -53 -29.5t-43 -8.5l-4 22q4 14 12.5 27l18.5 27q-23 20 -26 33t-3 33q14 4 28.5 1t27.5 -9t25 -13.5t22 -11.5q10 10 25.5 23.5t29.5 23.5q-12 5 -29 18.5t-31 27.5q-15 -11 -26.5 -18t-22 -11t-21.5 -6t-25 -3l-5 23
q7 20 16 40t20 40q-14 14 -25.5 28l-21.5 27l-21.5 -27.5t-25.5 -27.5q12 -29 21.5 -56.5t18.5 -45.5q-3 -4 -11 -3.5l-8 0.5q-8 4 -19.5 7.5l-23.5 7.5t-23 10t-19 15q-14 -13 -31 -27t-29 -19q17 -11 33.5 -23.5t26.5 -23.5q25 18 54.5 29t43.5 4q1 -11 -3 -20t-9 -17
l-10 -16.5t-7 -18.5q12 -9 17.5 -17.5t8 -17t2.5 -17.5q0 -8 1 -15q-8 -5 -21.5 -2t-28.5 9.5t-29 14.5t-24 13q-10 -14 -27 -28t-28 -19q7 -5 15.5 -12.5l17.5 -15l16 -13t11 -5.5t13.5 6.5t22.5 13.5t30.5 12.5t38.5 3.5q-4 -13 -7 -26.5t-7.5 -26.5t-11.5 -25.5
t-19 -22.5q14 -14 27.5 -30t23.5 -30q8 14 23 32t28 28q-13 16 -20.5 28.5t-11.5 23t-5 21.5t-1 25q18 4 34 -1t28.5 -12t22 -13.5t13.5 -6.5t11.5 5.5t16 13l17 15t15.5 12.5z" />
    <glyph glyph-name="circumflex" unicode="&#x2c6;" horiz-adv-x="218" 
d="M196 394q-20 13 -43 30t-43 34q-11 -13 -25 -28l-27.5 -29t-23.5 -27t-12 -22q9 1 18 8.5t17.5 15.5l16 15.5t13.5 8.5q20 -17 40 -31.5t37 -21.5l16 23.5z" />
    <glyph glyph-name="perthousand" unicode="&#x2030;" horiz-adv-x="524" 
d="M502 109l-6.5 15.5t-17 34.5t-23.5 34.5t-26 15.5q-14 0 -28 -14t-25 -32.5t-18 -36t-7 -24.5q0 -12 2.5 -24t10 -24.5t21 -25.5t35.5 -28q35 27 58.5 56t23.5 53zM178 327q0 12 -7 27.5t-18 30t-24 26t-25 16.5l-35 -31t-25.5 -25t-16 -24t-5.5 -27q0 -1 6 -17t16.5 -35
t24.5 -34.5t31 -15.5q15 0 29 15.5t25 34.5t17.5 36.5t6.5 22.5zM303 424l-276 -418q3 0 7 -3l4 -3zM311 109l-4.5 15.5t-13 34.5t-20.5 34.5t-27 15.5q-13 0 -27.5 -14t-26.5 -32t-20 -35.5t-8 -23.5q0 -9 4.5 -23t14 -28.5t23.5 -28.5t32 -24l33 28.5t23 24.5t13 25.5
t4 30.5zM466 89q0 -11 -8 -25.5t-20 -27.5q-28 24 -44 43.5t-16 42.5q0 8 6.5 22t17.5 25q10 -4 21.5 -13t21 -20t15.5 -23.5t6 -23.5zM146 307q0 -11 -8 -25.5t-20 -28.5q-24 19 -42 40t-18 47q0 8 7.5 22t15.5 25q11 -5 22.5 -15t21 -22t15.5 -24t6 -19zM284 89
q0 -11 -8 -25.5t-21 -27.5q-27 24 -43.5 43.5t-16.5 42.5q0 8 7 22t17 25q10 -2 21 -11.5t21 -21.5t16.5 -25t6.5 -22z" />
    <glyph glyph-name="Scaron" unicode="&#x160;" 
 />
    <glyph glyph-name="guilsinglleft" unicode="&#x2039;" horiz-adv-x="186" 
d="M164 96l-89 88q10 10 24.5 21.5t27 23t20.5 21t7 17.5l-132 -109l53.5 -53.5t50.5 -46.5q11 11 21.5 19t16.5 19z" />
    <glyph glyph-name="OE" unicode="&#x152;" horiz-adv-x="774" 
d="M752 142q-13 -6 -23 -21t-23 -31t-32 -28.5t-49 -12.5q-27 0 -47 6t-36 20t-28.5 36t-24.5 55q13 16 27 16q11 0 22.5 -7l24 -15t27.5 -15t32 -7q18 0 33 14t27 32t20.5 36l12.5 26q-14 -9 -20 -17.5t-11 -14.5t-12.5 -10t-24.5 -4q-13 0 -23.5 4t-20 9.5t-19 12
t-19.5 12.5q9 6 36 17t56.5 26t52.5 33.5t23 41.5q0 19 -15.5 49.5t-29.5 74.5q-9 -5 -21 -13.5t-23 -17.5t-18.5 -17t-7.5 -12t5 -10t10.5 -14.5t10.5 -20.5t5 -28q0 -27 -15 -44.5t-37.5 -32.5t-49.5 -30t-51 -36q-4 18 -7.5 36.5t-3.5 26.5q0 32 15 58t36 47.5t42.5 41
t34.5 39.5q-17 -7 -39.5 -19t-46 -28t-44 -35.5t-32.5 -41.5l-24.5 23.5l-25.5 24.5t-20 23.5t-8 21.5q0 8 9.5 24.5t12.5 28.5q-15 -1 -27.5 -12.5t-25 -27t-27 -31.5t-32.5 -26l-5 11.5t-2 12.5q0 25 9.5 38.5t21 22t21 13.5t9.5 12q-3 0 -9 2.5t-20 2.5
q-43 -30 -80.5 -51l-69.5 -38.5t-57 -34t-42.5 -38t-27 -50.5t-9.5 -72q0 -50 20 -90t53 -68.5t75 -44t86 -15.5q29 0 43.5 8t29 23l36 37.5t63.5 51.5q18 -35 38.5 -57t42.5 -34t44.5 -16t42.5 -4q23 0 47 11.5t46 31t38.5 45t24.5 54.5zM418 178q0 -26 -18 -48t-43 -38
t-50.5 -25t-41.5 -9t-33 5.5t-32.5 13.5t-29.5 16.5t-23 14.5q2 5 21 23t43 37.5t46.5 34.5t31.5 15q7 0 13.5 -6t11.5 -13.5t8 -15t3 -10.5q0 -6 -5.5 -11t-12 -8t-12.5 -5l-6 -2q-8 0 -15 7.5t-11 14.5q-7 0 -14 -7v-22q18 -11 36 -11q33 0 45 14.5t12 34.5q0 26 -18 42.5
t-48 20.5v90q0 8 9 18t20 20l66 -68.5t33.5 -42t12 -34.5t1.5 -46zM222 399q-10 -31 -11.5 -59t0 -53t1.5 -47t-7.5 -41.5t-25 -35.5t-52.5 -30q-11 7 -17.5 20t-10 28t-5 28.5t-1.5 21.5q0 21 7.5 44.5t23 46t40 42.5t58.5 35z" />
    <glyph glyph-name="quoteleft" unicode="&#x2018;" horiz-adv-x="164" 
d="M142 310q-14 0 -26 5.5t-21 14.5t-14.5 19t-5.5 18q0 15 6.5 23.5t14.5 14.5t15.5 11t10.5 14q-16 3 -33.5 -6.5t-32.5 -24t-24.5 -32t-9.5 -31.5q0 -11 6.5 -24.5t16 -25.5t21 -21t21.5 -12z" />
    <glyph glyph-name="quoteright" unicode="&#x2019;" horiz-adv-x="156" 
d="M134 356q0 6 -4 19t-11 26.5t-17.5 24t-23.5 10.5q-4 0 -11 -6.5t-14.5 -15l-15.5 -17t-15 -13.5q63 -12 63 -55q0 -20 -15.5 -33.5t-29.5 -27.5q19 -2 36 6t30 21.5t20.5 29.5t7.5 31z" />
    <glyph glyph-name="quotedblleft" unicode="&#x201c;" horiz-adv-x="292" 
d="M270 310q-22 2 -42 15t-20 39q0 16 5.5 26t13 17t15 12t10.5 11q-21 0 -39 -9.5t-31 -24t-20 -31t-7 -29.5q0 -26 20.5 -50.5t44.5 -32.5q10 14 23 28.5t27 28.5zM137 310q-22 2 -42 15t-20 39q0 16 3.5 22.5t9.5 11l14 11t17 21.5q-16 0 -33 -7.5t-31.5 -20.5
t-23.5 -29.5t-9 -34.5q0 -23 15.5 -47t49.5 -38q10 14 23 28.5t27 28.5z" />
    <glyph glyph-name="quotedblright" unicode="&#x201d;" horiz-adv-x="298" 
d="M276 353q0 20 -15 43.5t-50 38.5q-10 -14 -25.5 -30t-29.5 -26q26 -1 46 -14.5t20 -40.5q0 -15 -4.5 -23.5t-11 -14.5t-14.5 -11.5t-14 -15.5q18 1 35.5 10.5t31.5 23t22.5 29.5t8.5 31zM142 353q0 20 -16 45.5t-49 36.5l-55 -56q26 -1 46.5 -14.5t20.5 -40.5
q0 -15 -5.5 -23.5t-13 -14.5t-15.5 -11.5t-12 -15.5q17 0 34.5 8t32 21t23.5 30t9 35z" />
    <glyph glyph-name="bullet" unicode="&#x2022;" horiz-adv-x="191" 
d="M147 218q0 22 -18 40.5t-44 18.5q-9 0 -20 -4t-20 -11.5t-15 -18.5t-6 -25q0 -23 18 -41t43 -18q10 0 21 4t20 11.5t15 18.5t6 25z" />
    <glyph glyph-name="endash" unicode="&#x2013;" horiz-adv-x="288" 
d="M266 190h-221q-8 -15 -12 -28.5t-11 -22.5h225q7 13 11 27t8 24z" />
    <glyph glyph-name="emdash" unicode="&#x2014;" horiz-adv-x="430" 
d="M408 190h-367q-7 -13 -11 -27t-8 -25h367q7 14 11 28t8 24z" />
    <glyph glyph-name="tilde" unicode="&#x2dc;" horiz-adv-x="222" 
d="M200 417l-8.5 -5.5l-10.5 -7t-9.5 -6t-5.5 -2.5q-5 0 -16.5 5l-25 10.5l-25.5 10.5t-16 5q-12 0 -21.5 -8.5t-17 -20.5t-13 -24.5t-9.5 -19.5q9 3 14.5 7.5t9 8t7 6t8.5 2.5q4 0 16 -5t26.5 -10.5t26.5 -10.5t16 -5q10 0 19 8.5t15.5 20t11.5 23z" />
    <glyph glyph-name="trademark" unicode="&#x2122;" horiz-adv-x="662" 
d="M640 398q-11 3 -24.5 9t-26.5 11l-23.5 9t-16.5 4q-4 0 -12 -5t-17.5 -12.5l-19.5 -15t-18 -11.5l-7.5 12.5t-11 14.5t-14.5 12t-18 5q-3 0 -12.5 -7l-22 -16l-25.5 -19t-22 -16q-13 16 -19 34.5t-12 27.5q-14 -6 -28 -16t-24 -21q19 -23 32 -46t13 -45q0 -21 -10 -45.5
t-34 -47.5q5 2 14.5 -2.5t20 -11t20 -13t14.5 -9.5q6 9 14.5 19.5t16 21t13 20t5.5 16.5q-8 -4 -14.5 -10.5l-13.5 -13.5q-11 7 -22.5 13t-19.5 12q10 15 19 36.5l18 41.5t20.5 34t27.5 14q1 0 5 -1t9 -4t9 -8t4 -12v-179l28.5 13t23.5 10v160q14 14 27.5 24.5t22.5 10.5
q7 0 21 -10t23 -19q-22 -24 -25 -46t0 -43.5t4 -44.5t-14 -50q12 4 26.5 10.5t29 14.5t26.5 16.5t19 14.5q-10 0 -19.5 -1.5t-20.5 1.5v119q1 8 15.5 21t25.5 19zM279 248q-15 -3 -25.5 -6l-19.5 -5.5t-18 -4t-21 -1.5q-16 0 -28 0.5t-30 15.5q29 19 36.5 32t6 27t-4.5 32.5
t6 48.5h71q7 14 11 28l7 24q-29 -11 -60.5 -11.5t-58.5 -0.5h-36q-27 0 -61 4l-16 -31.5t-16 -29.5q16 5 24.5 8.5l13.5 5.5t8.5 2.5t11.5 0.5t11.5 0.5t5.5 -2.5q-12 -7 -21 -19.5t-15 -26.5t-9 -27.5t-3 -22.5q0 -32 18 -54.5t44.5 -36t56 -18.5t53.5 -2l27 35t31 35z
M128 386q0 -45 -1 -70.5l-1.5 -39t-1.5 -17.5t-1 -5q-19 14 -26.5 31t-7.5 31q0 6 3 16.5t8 21.5t12.5 20t15.5 12z" />
    <glyph glyph-name="scaron" unicode="&#x161;" 
 />
    <glyph glyph-name="guilsinglright" unicode="&#x203a;" horiz-adv-x="186" 
d="M164 167l-53.5 53t-50.5 47q-11 -11 -21.5 -19t-16.5 -19l89 -89l-45 -40t-39 -37z" />
    <glyph glyph-name="oe" unicode="&#x153;" horiz-adv-x="372" 
d="M350 97q-17 -7 -28.5 -14t-19.5 -7q-7 0 -18.5 6.5t-22 17t-18.5 23t-8 24.5q0 13 14.5 24l32 24t32 28.5t14.5 38.5q0 4 -3 13.5t-6 20.5t-6 23.5t-3 22.5q-15 -9 -32 -17.5t-33.5 -19t-31.5 -25t-25 -36.5q-11 15 -17.5 27.5t-6.5 19.5q0 8 3 20.5t0 21.5
q-18 -15 -42.5 -33.5t-47.5 -40.5t-39 -46.5t-16 -52.5q0 -21 8.5 -39t20.5 -36t24 -38.5t19 -46.5q32 15 51 35.5t39 35.5q8 -8 19 -17.5t20.5 -20t16.5 -21.5t8 -21q28 23 56.5 53t45.5 53zM280 222q0 -4 -5 -9.5t-11.5 -11t-14 -11t-12.5 -8.5q-4 7 -7.5 17.5t-3.5 18.5
t6.5 26t13.5 32q5 -5 11 -12.5t11 -15.5t8.5 -15t3.5 -11zM173 133q0 -4 -3.5 -13t-8 -19t-9.5 -18.5t-8 -11.5q-35 31 -52 64.5t-17 62.5q0 7 4.5 23t19.5 28q5 -3 17 -16.5t25 -31.5t22.5 -36.5t9.5 -31.5z" />
    <glyph glyph-name="Ydieresis" unicode="&#x178;" horiz-adv-x="478" 
d="M323 603q-7 1 -16 7.5t-18 15t-16 16t-9 12.5q6 -7 1.5 -14.5t-13 -15.5l-18 -16.5t-13.5 -15.5q10 -2 18 -9t14 -16t10.5 -17.5t8.5 -11.5q11 17 24 32.5zM203 603q-9 1 -17 7.5t-14.5 14t-10.5 15.5t-3 13q-11 -4 -24 -22.5t-29 -33.5q9 -5 17.5 -13t15.5 -17t11.5 -17
t6.5 -12q12 15 24 33.5t23 31.5zM456 327q0 26 -8 61t-25.5 66.5t-44.5 53t-66 21.5q-4 0 -13.5 -8.5t-21 -21l-23.5 -26.5t-22 -24q-9 5 -23.5 15l-29.5 20.5t-29 18.5t-23 8q-25 0 -44 -15t-32 -36.5t-19.5 -44.5t-6.5 -39q0 -38 14 -53.5t30.5 -23.5t30.5 -15.5t14 -27.5
q0 -5 -5 -11t-11.5 -11t-14 -8.5t-13.5 -3.5q-8 0 -19.5 7t-28.5 10q0 -6 5.5 -12t12.5 -11.5t14.5 -8.5t10.5 -3q11 0 23.5 4.5t23 13t17.5 21.5t7 30q0 36 -14 51t-30.5 23.5t-30 18.5t-13.5 36q0 4 1.5 14t6 20.5t12.5 18t22 7.5q30 0 49.5 -17.5t30.5 -41t15.5 -47
t4.5 -34.5q0 -29 -8.5 -53t-26.5 -46.5t-44.5 -45t-62.5 -49.5q34 10 54 16.5t28 6.5q26 0 37.5 -9.5t15 -23t4 -28t5.5 -23.5l122 128q-17 -7 -35 -16t-29 -19q-12 13 -23.5 21t-22 13.5l-18.5 10t-14 10.5q20 17 39 30.5l39 26.5q6 44 4.5 79.5t-1 60t6.5 37.5t27 13
q35 0 55.5 -22t31 -52t13.5 -61t3 -49q0 -8 -4 -30t-13 -51t-22.5 -60.5t-32.5 -58t-43.5 -43.5t-55.5 -17q-5 0 -16.5 3l-24 6l-24 6t-15.5 3q-6 0 -18 -1.5t-23 -6t-19.5 -11.5t-8.5 -19q0 -20 18 -31t42 -11q4 0 20.5 5.5l35 12l35 12t20.5 5.5q8 0 18 -7t24 -15
t33.5 -15t46.5 -7q7 0 22 2t30 9t26 20t11 35q0 8 -4 19t-12 20.5t-19 16.5t-25 7q-4 0 -12 -4t-15.5 -10t-13.5 -13.5t-6 -15.5q0 -2 2 -7.5t5 -11t7.5 -10t10.5 -4.5q7 0 4 9t-5.5 20t1 20t24.5 9q19 0 29.5 -17.5t10.5 -33.5q0 -15 -13.5 -23.5t-30.5 -13t-31.5 -5.5
t-15.5 -1q-14 0 -23.5 2.5t-19.5 7.5t-22.5 13.5t-30.5 19.5q67 53 108 89t63.5 69t30 70t7.5 92zM198 3q-5 -14 -24 -22t-35 -8q-2 0 -9 1t-14.5 3.5t-13.5 6t-6 9.5q0 10 14 19.5t24 9.5q8 0 27.5 -6t36.5 -13z" />
    <glyph glyph-name="exclamdown" unicode="&#xa1;" horiz-adv-x="168" 
d="M142 256q-17 13 -33.5 29l-26.5 26q-12 -15 -28 -30.5t-28 -29.5q20 -17 35 -31l25 -24q14 17 29.5 33zM146 -65q-13 26 -21.5 56.5t-14.5 62t-10 62t-9 57.5q-12 -17 -19 -45.5t-13 -62t-14 -68t-23 -62.5q17 -14 34 -30l30 -29q14 17 31.5 35t28.5 24z" />
    <glyph glyph-name="cent" unicode="&#xa2;" horiz-adv-x="244" 
d="M222 323l-25 14.5t-30 21.5t-22 26.5t0 29.5q-23 -39 -45.5 -60.5t-39.5 -40t-27.5 -41.5t-10.5 -66q0 -2 4 -25.5t14 -51t25.5 -50t38.5 -22.5q8 0 15 4l7 4l0.5 -21t2 -47t4 -49t5.5 -27q3 13 6 39t4.5 51.5t2.5 44.5l1 19l8 9l17.5 20.5l18.5 22t12 13.5
q-17 -3 -30.5 -8t-27.5 -7q-2 57 -2.5 89t-1 48t0 20t2.5 6q7 -5 13.5 -7.5t12.5 -10.5l27.5 27.5t19.5 24.5zM128 129q-13 10 -21 25.5t-12 32t-5 32.5t-1 28q0 8 3 32t7 41q7 -4 14.5 -9.5t14.5 -9.5v-172z" />
    <glyph glyph-name="sterling" unicode="&#xa3;" horiz-adv-x="434" 
d="M412 95q-17 -7 -25.5 -13.5t-15 -12t-13 -8.5t-19.5 -3q-6 0 -29 5l-52 11t-58.5 10.5t-49.5 3.5q23 20 45 43.5t30 40.5q9 3 19.5 2t22 1.5t21.5 13t17 37.5q-34 -14 -57.5 -8t-38 25t-21 47t-6.5 59q0 9 2 19.5t7.5 19.5t14 15t22.5 6q28 0 40 -18.5t15 -41t0.5 -42
t-3.5 -22.5q15 13 29 22.5l25.5 18t18 17.5t6.5 21q0 18 -13 30t-29.5 19.5t-33.5 10.5t-24 3q-24 0 -50.5 -11t-48.5 -30t-36 -44.5t-14 -54.5q0 -4 1.5 -11.5t3.5 -16.5t3.5 -17.5t1.5 -15.5q-9 1 -14.5 -5.5t-8.5 -15.5t-4.5 -18t-4.5 -12q14 -4 29.5 -3.5t28.5 -10.5
q11 -22 -2 -46t-36 -46.5t-48 -42.5t-38 -34q20 7 35 14.5t28.5 12.5t27 8.5t29.5 3.5q4 0 24.5 -5.5l44 -12l44 -12t24.5 -5.5q18 0 38 9t39 23t33.5 31.5t22.5 35.5z" />
    <glyph glyph-name="currency" unicode="&#xa4;" horiz-adv-x="555" 
d="M125 314q6 19 16.5 37.5t26 34.5t36 27.5t47.5 16.5q-22 -26 -32 -55t-14 -61h-80zM193 173q-2 -14 -5.5 -27t-8.5 -26q-10 3 -21.5 18t-21.5 35h57zM119 221q-5 20 -5 35v10h86q-1 -11 -1 -23q0 -11 -1 -22h-79zM19 221l-50 -48h82q3 -18 8 -32t11 -26l11.5 -23.5
t8.5 -24.5l-31 -5q-11 10 -14.5 20t-2.5 15l-19 -8q-1 -11 3.5 -19.5t11.5 -15.5t15.5 -10.5t15.5 -3.5q9 0 20.5 4.5t17.5 4.5q1 0 21 -7.5l46.5 -17t54 -17t42.5 -7.5q22 0 54 11.5t62.5 30t54.5 42.5t30 49q-27 -26 -47.5 -42.5t-37.5 -25.5t-32 -12.5t-30 -3.5
q-26 0 -49.5 6t-42 14.5t-30.5 18t-14 16.5q26 16 42.5 33.5t27.5 35.5h180l50 48h-213q4 20 4 45h170l50 48h-223q-2 31 -1 58t18 50q18 -6 26.5 -18.5t14 -26l10.5 -25t14 -14.5q1 19 -4.5 34t-13.5 28t-16.5 24t-11.5 22q19 12 34 12q4 0 18.5 -6.5t29.5 -16t27 -22
t12 -24.5q0 -4 -3.5 -10.5t-8 -13.5t-9 -13t-6.5 -9q16 4 36 15.5t38.5 26t32.5 30t19 29.5h-25q-22 16 -35 28.5t-23.5 21t-22.5 13t-31 4.5q-24 0 -45 -8t-37.5 -17.5t-27.5 -17.5t-15 -9q-93 -21 -141.5 -57t-67.5 -88h-23l-50 -48h61q-3 -21 -3 -45h-28z" />
    <glyph glyph-name="currency" unicode="&#x20ac;" horiz-adv-x="555" 
d="M125 314q6 19 16.5 37.5t26 34.5t36 27.5t47.5 16.5q-22 -26 -32 -55t-14 -61h-80zM193 173q-2 -14 -5.5 -27t-8.5 -26q-10 3 -21.5 18t-21.5 35h57zM119 221q-5 20 -5 35v10h86q-1 -11 -1 -23q0 -11 -1 -22h-79zM19 221l-50 -48h82q3 -18 8 -32t11 -26l11.5 -23.5
t8.5 -24.5l-31 -5q-11 10 -14.5 20t-2.5 15l-19 -8q-1 -11 3.5 -19.5t11.5 -15.5t15.5 -10.5t15.5 -3.5q9 0 20.5 4.5t17.5 4.5q1 0 21 -7.5l46.5 -17t54 -17t42.5 -7.5q22 0 54 11.5t62.5 30t54.5 42.5t30 49q-27 -26 -47.5 -42.5t-37.5 -25.5t-32 -12.5t-30 -3.5
q-26 0 -49.5 6t-42 14.5t-30.5 18t-14 16.5q26 16 42.5 33.5t27.5 35.5h180l50 48h-213q4 20 4 45h170l50 48h-223q-2 31 -1 58t18 50q18 -6 26.5 -18.5t14 -26l10.5 -25t14 -14.5q1 19 -4.5 34t-13.5 28t-16.5 24t-11.5 22q19 12 34 12q4 0 18.5 -6.5t29.5 -16t27 -22
t12 -24.5q0 -4 -3.5 -10.5t-8 -13.5t-9 -13t-6.5 -9q16 4 36 15.5t38.5 26t32.5 30t19 29.5h-25q-22 16 -35 28.5t-23.5 21t-22.5 13t-31 4.5q-24 0 -45 -8t-37.5 -17.5t-27.5 -17.5t-15 -9q-93 -21 -141.5 -57t-67.5 -88h-23l-50 -48h61q-3 -21 -3 -45h-28z" />
    <glyph glyph-name="yen" unicode="&#xa5;" horiz-adv-x="416" 
d="M394 265h-35l-1 24.5t-9 54t-25 54t-49 24.5q-4 0 -14.5 -8t-23 -19l-25.5 -22t-23 -18q-3 9 -14.5 20.5t-25.5 22t-27 17.5t-18 7q-4 0 -15 -7t-24 -17l-25 -20t-18 -17q11 1 20 2t17 1q20 0 36.5 -10t27.5 -25t16.5 -31.5t4.5 -29.5l-37 -6q-4 -11 -7 -22t-7 -22h62
v-49h-57q-4 -11 -6.5 -24.5t-7.5 -24.5h71v-147q0 -2 -10 -14.5l-22 -26.5l-22 -26l-10 -12l7 -11l204 235l69 2l15 48h-10t-22.5 1t-21.5 3q2 4 6.5 15.5l8 20.5t4.5 10h29zM297 263h-79q-3 20 -7.5 42t-11.5 40q7 5 18.5 10t19.5 5q10 0 20.5 -7t19.5 -16.5t14.5 -20.5
t5.5 -20v-33zM288 217q-4 -11 -7.5 -24l-6.5 -24h-56v48h70zM257 119q-11 -17 -22 -37l-21 -37q3 17 3 37t-4 37h44z" />
    <glyph glyph-name="brokenbar" unicode="&#xa6;" 
 />
    <glyph glyph-name="section" unicode="&#xa7;" horiz-adv-x="328" 
d="M306 178q0 29 -15 49t-37 33.5t-48 23.5t-48 20.5t-37 23.5t-15 32q0 15 7 26t18.5 18t25 10.5t27.5 3.5l11 -0.5t23.5 -4t23.5 -11t11 -20.5q0 -8 -7.5 -10.5l-17 -5.5t-17 -9.5t-7.5 -20.5q0 -18 15.5 -32.5t33.5 -14.5q19 0 34 15.5t15 35.5q0 23 -14 39.5t-34.5 27
t-42.5 15.5t-38 5q-18 0 -40 -5t-41 -17t-31.5 -31t-12.5 -47q0 -19 2.5 -27.5t7.5 -14.5t11.5 -12.5t14.5 -21.5q-25 -23 -37 -41t-12 -41q0 -31 15 -49t38 -29t49.5 -18.5t49.5 -17t38 -23.5t15 -39q0 -18 -8.5 -31t-21.5 -21.5t-29 -12.5t-30 -4q-1 0 -14.5 1.5t-29 6.5
t-28.5 13t-13 22q0 10 8.5 11t18.5 2.5t18.5 7.5t8.5 25q0 14 -10.5 29.5t-38.5 15.5q-6 0 -14 -1t-16 -5t-13.5 -13.5t-5.5 -25.5q0 -27 15.5 -45.5t37.5 -30t46.5 -16.5t42.5 -5q19 0 43 5t45 18t35.5 34.5t14.5 53.5q0 16 -9.5 37.5t-21.5 35.5q8 6 14.5 16t11 21.5
t7 22.5t2.5 18zM275 138q0 -8 -5.5 -16t-9.5 -15q-9 5 -39 17.5t-62.5 27.5t-58 30.5t-25.5 26.5q0 8 7 19t13 16q3 -2 17.5 -7.5t34.5 -14l42.5 -19t41.5 -21.5t31.5 -22.5t12.5 -21.5z" />
    <glyph glyph-name="dieresis" unicode="&#xa8;" horiz-adv-x="256" 
d="M234 430q-19 5 -32.5 22t-17.5 32q-4 -3 -10 -9.5t-12.5 -15.5t-14.5 -18.5t-15 -16.5q17 -13 31.5 -29.5t24.5 -30.5q10 17 22.5 35t23.5 31zM123 430q-9 1 -18 7t-16.5 14t-13 17t-7.5 16q-5 -8 -12.5 -16.5l-15 -17t-13 -17t-5.5 -14.5q17 -10 29.5 -27t25.5 -27
q7 15 20.5 34t25.5 31z" />
    <glyph glyph-name="copyright" unicode="&#xa9;" horiz-adv-x="492" 
d="M470 213q0 43 -17 83.5t-46.5 71.5t-69.5 49.5t-87 18.5t-88 -17t-72.5 -46.5t-49.5 -70.5t-18 -89q0 -43 16.5 -83t46.5 -71t71 -49.5t90 -18.5q44 0 84.5 15t71.5 43.5t49.5 70t18.5 93.5zM439 213q0 -41 -14.5 -77.5t-40 -63.5t-61 -43t-77.5 -16t-77.5 17.5t-61 46
t-40 64.5t-14.5 72q0 40 16 76.5t43 64t62 43.5t74 16q46 0 81.5 -19t60 -48.5t37 -65t12.5 -67.5zM354 169q-17 -21 -40 -28.5t-41 -7.5q-8 0 -28 4.5t-37 11.5q14 8 26.5 13t22.5 13v60v33q0 12 0.5 15.5t2.5 5.5q31 -3 53 8t21 45q-98 -2 -145 -32t-47 -106
q0 -23 5.5 -44.5t18 -38.5t34.5 -27t55 -10q13 0 27.5 3t28 12t24.5 25.5t19 44.5zM193 160q-16 16 -20.5 38t-4.5 35v13q0 6 2.5 12.5t7.5 15.5t15 24v-138z" />
    <glyph glyph-name="ordfeminine" unicode="&#xaa;" horiz-adv-x="240" 
d="M200 283q-22 5 -31 20.5t-9 32.5q0 23 9.5 37.5t26.5 24.5q-7 3 -15 9.5l-16.5 13t-15.5 11t-11 4.5q-12 0 -29 -13.5t-32.5 -32t-26 -36.5t-10.5 -27q0 -19 15 -43t41 -35l35 35q7 -10 14 -19t17 -16q11 7 21.5 16.5t16.5 17.5zM218 212h-186q0 -3 -3 -9.5t-7 -10.5h186
q0 3 3 10t7 10zM151 376l-15 -44t-22 -48q-17 14 -30 32t-13 31q0 3 3.5 12t9.5 18t13 16t14 7q8 0 19 -8.5t21 -15.5z" />
    <glyph glyph-name="guillemotleft" unicode="&#xab;" horiz-adv-x="292" 
d="M270 96l-88 88l44.5 40l38.5 37l-137 -103l54 -53.5t51 -46.5q10 8 20.5 17.5t16.5 20.5zM168 96l-89 88l45 40t39 37q-20 -7 -38 -19.5t-35.5 -27.5l-34.5 -29.5t-33 -26.5l108 -100z" />
    <glyph glyph-name="logicalnot" unicode="&#xac;" horiz-adv-x="795" 
d="M486 300q9 11 16 22t9 16q-9 6 -21.5 15.5t-23.5 19.5t-18.5 18.5t-7.5 12.5t9.5 23.5l22 45.5l25.5 53t21 46q1 3 3.5 25t9.5 46.5t20 45t35 20.5q11 0 22 -8.5t20 -20t14.5 -24t5.5 -21.5q0 -11 -14 -24t-30.5 -34.5t-30 -55t-13.5 -84.5q0 -2 2.5 -17t8 -35t14 -41.5
t20.5 -36.5q-23 6 -51 6q-17 0 -34 -3.5t-34 -9.5zM483 103q-1 -9 -8 -16t-16.5 -12.5t-19.5 -10.5t-17 -9q-1 5 -0.5 16t4 22.5t10 20t18.5 8.5q8 0 15 -6t14 -13zM549 -94q-9 -8 -23 -18.5t-23 -10.5q-4 0 -12 3.5t-17 8t-17 8t-12 3.5q-8 0 -22.5 -5.5t-27.5 -11.5
q19 42 23 72l6.5 49.5t9.5 28.5t31 9q23 0 38 -18.5t24.5 -42t14 -46t7.5 -29.5zM352 198q-15 0 -29.5 3.5t-24.5 6.5q-7 -10 -18 -20.5t-19 -10.5t-11 5t-3 13t7.5 18l15.5 20l-13 20.5t-14 21.5q11 23 29 47.5l36 48.5q-13 5 -27.5 7t-28 5.5t-25.5 11t-19 22.5
q49 45 74.5 77.5t36 61.5t12 59.5l3.5 72.5q1 18 15.5 23.5t25.5 5.5q19 0 35 -22.5t27.5 -51t18 -55t6.5 -35.5q0 -32 -10.5 -62t-27 -55t-36 -42.5t-37.5 -23.5q3 -10 13.5 -23t24 -26.5t27.5 -25t23 -17.5q-29 -17 -51 -41t-33 -50q-15 -36 -20.5 -60t-5.5 -40t3.5 -27
t5 -22t-1 -24t-13.5 -33q4 0 11.5 -1t10.5 -3q0 -20 2.5 -43.5t2.5 -31.5q0 -10 -5 -20.5t-11 -19.5l-11 -16.5t-5 -12.5q0 -4 5 -10.5t11.5 -13t13 -11.5t9.5 -5q8 10 21.5 25t28.5 15q4 0 13 -5l19.5 -10.5l19.5 -10.5t13 -5t14 8.5t22 20.5l25 25t23 21q10 -10 17 -23
t15 -24.5t18 -19.5t26 -8q12 0 22.5 11t18.5 26t14 29.5l9 21.5q-14 -3 -24 -8t-18 -5q-4 0 -18 23l-34 54.5t-44 64t-48 52.5l32 28.5t12 24.5q0 6 -4.5 16l-10 21.5t-9.5 23.5t-4 21q-23 -17 -49 -39.5t-49 -35.5q-7 16 -7 29q0 20 9 43.5t25.5 44t39 34t50.5 13.5
q60 0 99 -34t39 -104q0 -3 -3 -13.5t-9.5 -22.5t-16 -21t-22.5 -9q-8 0 -20 3.5t-18 -0.5q0 -3 3.5 -10t6.5 -11h45q16 0 27.5 12.5t19 29t11 33t3.5 23.5q0 40 -15 69.5t-42 46.5q14 2 26.5 9.5t21.5 17.5t14.5 21t5.5 20q-8 -3 -16.5 -8.5l-17 -11t-15.5 -9.5t-10 -4
q-17 0 -24 16t-8.5 37t0 41.5t1.5 29.5q0 32 1 62t13.5 60t41.5 61t86 64q-17 10 -36.5 12t-32.5 5q-19 4 -24 14.5t-9 22t-12 20t-33 8.5q-24 0 -41 -12t-30 -29t-22.5 -35t-19.5 -30q-8 9 -14.5 25t-15.5 31t-22 26t-33 11q-28 0 -56.5 -17.5t-45.5 -40.5
q-17 9 -29.5 18.5t-24.5 17t-25 12.5t-32 5q-22 0 -55 -9t-63.5 -27t-52.5 -45t-22 -63q0 -4 3.5 -17l7.5 -27.5l7.5 -27.5t3.5 -17q0 -8 -4.5 -23.5t-8.5 -22.5q22 5 36 15t22 22t10.5 24t2.5 21q0 4 -3 19t-6 32t-6 32t-3 19q0 2 3.5 12t10 21.5t16.5 21t23 9.5
q24 0 46.5 -14.5t40 -36t28 -46.5t10.5 -47q0 -38 -20.5 -74.5t-48.5 -68t-56 -55.5l-44 -38q23 0 30.5 1.5t16.5 1.5t23.5 -9.5t29 -22l27.5 -24.5t19 -17q-6 -13 -13 -25.5t-14 -21.5l12.5 -19.5t5.5 -16.5t-2 -12l-2 -4q-13 1 -20.5 5.5t-11.5 9.5t-4.5 9.5t-0.5 6.5
q-20 -4 -35.5 -6.5t-25.5 1.5q10 -7 20.5 -20t20.5 -23q7 3 13 6t14 3q13 0 25 -12q-3 -7 -9.5 -12.5t-13.5 -9.5t-12.5 -5.5t-8.5 -1.5q0 -14 -2.5 -28t-6.5 -24q14 7 28 13l24 10q-3 12 2 27.5t18 19.5q16 -11 17.5 -26t3.5 -26q10 -4 23.5 -10t24.5 -13q-3 12 -4 27.5
t0 29.5q-12 1 -24 11t-16 18q7 7 11 9.5t11 2.5q8 0 12.5 -4.5t12.5 -4.5t20 14z" />
    <glyph glyph-name="registered" unicode="&#xae;" horiz-adv-x="492" 
d="M470 213q0 43 -16.5 83.5t-46.5 71.5t-70.5 49.5t-88.5 18.5q-45 0 -86 -17t-72 -46.5t-49.5 -70.5t-18.5 -89q0 -43 17 -83t46.5 -71t70 -49.5t88.5 -18.5q41 0 81.5 15t72.5 43.5t52 70t20 93.5zM439 213q0 -41 -16 -77.5t-42.5 -63.5t-61.5 -43t-73 -16
q-42 0 -77.5 17.5t-61 46t-40 64.5t-14.5 72q0 37 14.5 72.5t40 64t61 46t77.5 17.5t77.5 -17.5t61 -46t40 -64t14.5 -72.5zM382 127q-13 3 -25 21t-21.5 39t-15 39t-5.5 21t5 10l10.5 14.5l10.5 14t5 10.5q0 8 -6 16t-14 15t-17.5 11t-15.5 4q-4 0 -10 -5t-13 -12
l-14 -14.5t-14 -12.5q-19 20 -39.5 30t-36.5 10q-6 0 -16 -6t-19 -14.5t-15 -17.5t-5 -15q7 0 16 2t17 2q9 0 21 -4.5t22.5 -12.5t18 -20t7.5 -28q0 -14 -7 -27t-18.5 -22.5t-25 -16.5t-25.5 -9q20 -13 38 -29.5t35 -30.5q20 17 40 32t34 29q-11 -2 -23.5 -8t-23.5 -13
l-38 37q20 14 35 30.5l25 27.5q13 -16 20.5 -32.5t12 -34t7.5 -34.5t8 -34q20 10 41 19t34 19zM306 268q-3 -2 -5.5 -6.5t-7.5 -9t-13 -8t-22 -3.5q0 7 -3 19.5t-6 23.5q3 0 9.5 2.5t14.5 2.5l5 -0.5t10.5 -2.5t10.5 -6t7 -12z" />
    <glyph glyph-name="macron" unicode="&#xaf;" horiz-adv-x="226" 
d="M204 390h-168l-6.5 -21t-7.5 -22h168l6.5 21.5t7.5 21.5z" />
    <glyph glyph-name="degree" unicode="&#xb0;" horiz-adv-x="226" 
d="M204 316q0 38 -23 61t-66 23q-14 0 -30.5 -4.5t-30.5 -14.5t-23 -26t-9 -39q0 -17 7 -33t19 -28.5t29 -20t38 -7.5q17 0 33 5t28.5 16t20 28t7.5 40zM173 316q0 -26 -17.5 -42t-40.5 -16q-29 0 -43.5 19t-14.5 39q0 26 19 41.5t39 15.5q13 0 24 -5.5t18.5 -14t11.5 -18.5
t4 -19z" />
    <glyph glyph-name="plusminus" unicode="&#xb1;" horiz-adv-x="300" 
d="M278 227v50h-102v87h-54q3 -48 0 -89h-100v-50h102v-82h54q-3 43 0 84h100zM278 41v43h-256v-43h256z" />
    <glyph glyph-name="twosuperior" unicode="&#xb2;" 
 />
    <glyph glyph-name="threesuperior" unicode="&#xb3;" 
 />
    <glyph glyph-name="acute" unicode="&#xb4;" horiz-adv-x="168" 
d="M146 462q-18 -5 -34.5 -7.5t-30.5 -6.5q-3 -12 -12 -26.5t-18.5 -28l-18 -25t-10.5 -18.5q16 0 36.5 10t38.5 25.5t32 35.5t17 41z" />
    <glyph glyph-name="mu" unicode="&#xb5;" horiz-adv-x="158" 
d="M226 403q-13 -3 -25 0.5t-24 9t-23 10t-21 4.5q-20 0 -40 -22.5t-36 -51.5t-25.5 -56.5t-9.5 -36.5q0 -4 2 -29.5t6 -62.5l9 -79.5t11.5 -80.5t13.5 -67.5t14 -38.5q12 45 18.5 84.5t8 78t-2 79.5t-9.5 89q-2 15 -5 23l-6 16.5t-5 21.5t-2 37q0 2 3.5 11t11 20t19.5 11
q4 0 12.5 -2.5t17.5 -6t17.5 -6t12.5 -2.5q16 0 29.5 13.5t27.5 33.5z" />
    <glyph glyph-name="paragraph" unicode="&#xb6;" horiz-adv-x="369" 
d="M347 416q-25 3 -57 8l-61.5 9.5t-51 7.5t-25.5 3q-29 0 -53 -19t-41 -45.5t-26 -54t-9 -43.5q0 -18 1 -36.5t9 -37t26.5 -36t54.5 -34.5l39 40q4 -11 6 -18.5t2 -15.5v-102l15 -166q3 20 6.5 47l6.5 52t5 44t2 23v323q21 1 30 0.5t19 -0.5v-252l20 -237l24 489h35
q5 14 10.5 27.5t12.5 23.5z" />
    <glyph glyph-name="periodcentered" unicode="&#xb7;" horiz-adv-x="160" 
d="M138 162l-32 31t-29 25q-13 -17 -28.5 -32t-26.5 -28q15 -13 30.5 -28.5t29.5 -27.5q14 17 29.5 32t26.5 28z" />
    <glyph glyph-name="periodcentered" unicode="&#x2219;" horiz-adv-x="160" 
d="M138 162l-32 31t-29 25q-13 -17 -28.5 -32t-26.5 -28q15 -13 30.5 -28.5t29.5 -27.5q14 17 29.5 32t26.5 28z" />
    <glyph glyph-name="cedilla" unicode="&#xb8;" horiz-adv-x="126" 
d="M104 -42q0 8 -9 19.5t-11 13.5q-9 -9 -23 -21l-24 -21q12 -6 13.5 -16t-3 -20.5t-12 -19t-13.5 -11.5q19 3 34.5 12.5t26 21t16 23.5t5.5 19z" />
    <glyph glyph-name="onesuperior" unicode="&#xb9;" 
 />
    <glyph glyph-name="ordmasculine" unicode="&#xba;" horiz-adv-x="234" 
d="M199 349q0 18 -5.5 30t-16 22t-25.5 19l-35 20q-20 -20 -34.5 -31.5t-24 -21t-14.5 -20t-5 -29.5q0 -15 4 -25.5t13 -20.5t24 -20t37 -23q20 17 35.5 29t26 22.5t15.5 22t5 26.5zM212 213h-181q0 -4 -3 -10.5t-6 -10.5h186q0 3 2 10t2 11zM168 324q0 -20 -10 -25.5
t-21 -5.5q-13 0 -26 8.5t-23 20t-16 23.5t-6 19q0 17 11.5 24.5t19.5 7.5q15 0 28 -8t22.5 -19.5t15 -24t5.5 -20.5z" />
    <glyph glyph-name="guillemotright" unicode="&#xbb;" horiz-adv-x="292" 
d="M270 167l-53.5 53t-50.5 47l-38 -38l89 -89l-45 -40t-39 -37q19 6 37.5 19t36 28.5l33.5 30.5t30 26zM168 167l-53.5 53t-50.5 47q-11 -8 -22.5 -17.5t-19.5 -20.5q24 -20 47 -42.5l46 -46.5l-45.5 -38.5t-40.5 -38.5z" />
    <glyph glyph-name="onequarter" unicode="&#xbc;" 
 />
    <glyph glyph-name="onehalf" unicode="&#xbd;" 
 />
    <glyph glyph-name="threequarters" unicode="&#xbe;" 
 />
    <glyph glyph-name="questiondown" unicode="&#xbf;" horiz-adv-x="302" 
d="M213 255l-60 61l-60 -61q17 -13 35.5 -30t29.5 -25q10 14 26 29.5t29 25.5zM280 17q-17 -3 -26.5 -9.5l-19 -13t-23 -11.5t-38.5 -5q-11 0 -23 2.5t-23 9.5t-18 19.5t-7 32.5q0 19 8.5 34.5t19 31t19 31.5t8.5 37q-17 -14 -40.5 -36t-44.5 -47t-35.5 -49t-14.5 -40
q0 -32 15.5 -49t37 -28.5t45.5 -22t42 -28.5l59 70z" />
    <glyph glyph-name="Agrave" unicode="&#xc0;" horiz-adv-x="448" 
d="M249 549q-9 2 -22.5 12t-25.5 23.5t-18.5 28.5t-2.5 27q-18 6 -36 3.5t-28 -4.5q-2 -12 12 -28.5t33.5 -32t39 -26t30.5 -10.5q8 0 11 3.5t7 3.5zM426 524q-11 -5 -30 -15t-37.5 -25.5t-34 -35.5t-20.5 -44q-5 13 -6 31.5t-4 38t-11.5 38t-28.5 30.5q5 -36 10 -55.5
l8 -30.5t3.5 -17.5t-2.5 -16.5q-17 15 -28 26t-20 18t-19.5 10.5t-25.5 3.5q-20 0 -45.5 -9t-47.5 -25t-37 -38.5t-15 -49.5q0 -26 7 -35t19.5 -14l30 -12.5t37.5 -28.5q-4 -12 -15.5 -16t-23.5 -5.5t-21.5 -3.5t-10.5 -9l51 -7q25 11 42.5 25.5t17.5 43.5q0 23 -6.5 33.5
t-18 18.5l-28 19t-36.5 35q10 11 18.5 18t16.5 7q26 0 47.5 -14t36.5 -34t23.5 -42t8.5 -39q0 -30 -13.5 -53t-34 -40.5t-45.5 -29.5t-48 -20t-41.5 -12.5l-26.5 -6.5q8 -4 28 -9t40 -15t34.5 -27.5t11.5 -46.5q-1 -10 -0.5 -23t3.5 -19q17 16 31.5 35.5l29 38.5t30 34.5
t34.5 24.5q7 -15 10 -34.5t7 -38.5t11.5 -34.5t22.5 -21.5v29q0 10 -5 17.5t-10.5 25t-10.5 51t-5 95.5q0 4 2 25l4.5 49l5 57.5t4.5 50.5l2 -100q-8 -30 -6 -70.5t8.5 -80t14.5 -73t11 -49.5q12 7 25.5 18t26.5 23.5t22.5 26t12.5 26.5q-8 5 -16.5 4.5t-14.5 2.5
q-9 36 -12.5 56t-4.5 32.5t-0.5 21.5t0.5 24q0 54 6 97t15 75.5t19 55t17 34.5zM266 182q0 -17 -4.5 -25.5t-13 -14.5t-20.5 -12t-26 -19q-9 7 -20 24.5t-18 31.5l50 36t47 41q0 -6 1 -15t1.5 -18t1.5 -17t1 -12z" />
    <glyph glyph-name="Aacute" unicode="&#xc1;" horiz-adv-x="452" 
d="M430 653q-18 -5 -35 -7.5t-30 -6.5q0 -12 -6 -25.5t-15.5 -26t-21.5 -23t-24 -16.5q3 0 6 -3t11 -3q12 0 30 10.5t36 26.5t32 36t17 38zM421 522q-31 -10 -54 -24.5t-38 -31t-21.5 -33t-3.5 -29.5q-5 13 -6 31.5t-4 38t-11.5 38t-28.5 30.5q5 -36 10 -55.5l8 -30.5
t3.5 -17.5t-3.5 -16.5q-19 16 -30 27.5t-19 18t-17 9.5t-24 3q-21 0 -46.5 -8t-48 -24t-37.5 -38.5t-15 -51.5q0 -26 7 -35t19.5 -14l30 -12.5t37.5 -28.5q-4 -12 -15.5 -16t-23.5 -5.5t-21.5 -3.5t-10.5 -9l51 -7q25 11 42.5 25.5t17.5 43.5q0 23 -6.5 33.5t-18 18.5
l-28 19t-36.5 35q9 11 18 18t17 7q26 0 47.5 -14t36.5 -34t23.5 -42t8.5 -39q0 -30 -13.5 -53t-34 -40.5t-45.5 -29.5t-48.5 -20t-42 -12.5t-25.5 -6.5q8 -4 28 -9t40 -15t34.5 -27.5t11.5 -46.5q-1 -10 -0.5 -23t3.5 -19q17 16 31.5 35.5l28.5 38.5t29.5 34.5t34.5 24.5
q7 -15 10.5 -34.5t7.5 -38.5t11.5 -34.5t22.5 -21.5v29q0 10 -5 17.5t-10.5 25t-10.5 51t-5 95.5q0 4 2 25l4.5 49l5 57.5t4.5 50.5l2 -100q-8 -30 -6 -70.5t8.5 -80t14.5 -73t11 -49.5q14 10 29 22t27.5 24.5t21 24.5t9.5 23q-8 5 -16.5 4.5t-14.5 2.5q-9 36 -12.5 54
t-4.5 29t-0.5 20.5t0.5 28.5q0 68 6 112t14.5 72.5t17 45.5t14.5 32zM266 182q0 -17 -4.5 -25.5t-13 -14.5t-20.5 -12t-26 -19q-9 7 -20 24.5t-18 31.5l50 36t47 41q0 -6 1 -15t1.5 -18t1.5 -17t1 -12z" />
    <glyph glyph-name="Acircumflex" unicode="&#xc2;" horiz-adv-x="448" 
d="M378 585l-48 33.5l-44 30.5l-86 -101q9 1 18 8t17 15.5t15.5 15.5t13.5 9q20 -20 39.5 -33.5t36.5 -20.5q11 11 19.5 22t18.5 21zM426 524q-11 -5 -30 -15t-37.5 -25.5t-34 -35.5t-20.5 -44q-5 13 -6 31.5t-4 38t-11.5 38t-28.5 30.5q5 -36 10 -55.5l8 -30.5t3.5 -17.5
t-2.5 -16.5q-17 15 -28 26t-20 18t-19.5 10.5t-25.5 3.5q-20 0 -45.5 -9t-47.5 -25t-37 -38.5t-15 -49.5q0 -26 7 -35t19.5 -14l30 -12.5t37.5 -28.5q-4 -12 -15.5 -16t-23.5 -5.5t-21.5 -3.5t-10.5 -9l51 -7q25 11 42.5 25.5t17.5 43.5q0 23 -6.5 33.5t-18 18.5l-28 19
t-36.5 35q10 11 18.5 18t16.5 7q26 0 47.5 -14t36.5 -34t23.5 -42t8.5 -39q0 -30 -13.5 -53t-34 -40.5t-45.5 -29.5t-48 -20t-41.5 -12.5l-26.5 -6.5q8 -4 28 -9t40 -15t34.5 -27.5t11.5 -46.5q-1 -10 -0.5 -23t3.5 -19q17 16 31.5 35.5l29 38.5t30 34.5t34.5 24.5
q7 -15 10 -34.5t7 -38.5t11.5 -34.5t22.5 -21.5v29q0 10 -5 17.5t-10.5 25t-10.5 51t-5 95.5q0 4 2 25l4.5 49l5 57.5t4.5 50.5l2 -100q-8 -30 -6 -70.5t8.5 -80t14.5 -73t11 -49.5q12 7 25.5 18t26.5 23.5t22.5 26t12.5 26.5q-8 5 -16.5 4.5t-14.5 2.5q-9 36 -12.5 56
t-4.5 32.5t-0.5 21.5t0.5 24q0 54 6 97t15 75.5t19 55t17 34.5zM266 182q0 -17 -4.5 -25.5t-13 -14.5t-20.5 -12t-26 -19q-9 7 -20 24.5t-18 31.5l50 36t47 41q0 -6 1 -15t1.5 -18t1.5 -17t1 -12z" />
    <glyph glyph-name="Atilde" unicode="&#xc3;" horiz-adv-x="448" 
d="M370 608q-15 -3 -21 -12t-14 -9q-4 0 -16 5l-25 10.5l-25 10.5t-16 5q-11 0 -19.5 -6t-16 -16t-13.5 -22t-13 -24q11 3 22 12.5t15 10.5q11 -5 24.5 -10.5t26 -10t22 -7.5t12.5 -3q12 0 21.5 8.5t16.5 19.5t11.5 22t7.5 16zM426 519h-24q-15 0 -33 -13.5t-33 -32
t-24.5 -38t-7.5 -31.5q-7 18 -7.5 35.5t-3 34.5t-10 33t-29.5 30q2 -17 6.5 -34t8 -32t5 -28.5t-1.5 -24.5q-21 19 -32.5 31.5t-20 19t-16.5 9t-21 2.5q-15 0 -40 -8t-49 -23t-41 -38t-17 -53q0 -27 7 -36t19.5 -13.5l29.5 -11t38 -28.5q-6 -12 -17.5 -16.5t-23 -7t-20.5 -4
t-10 -7.5l51 -7q30 11 45 30t15 39q0 23 -6.5 33.5t-18 18.5l-28 19t-36.5 35q11 14 18 17t22 3q23 0 43.5 -12.5t35.5 -31t23.5 -40t8.5 -40.5q0 -30 -13.5 -53t-34 -40.5t-45.5 -29.5t-48.5 -20t-42 -12.5t-25.5 -6.5q8 -4 28 -9t40 -15t34.5 -27.5t11.5 -46.5
q-1 -10 -0.5 -23t3.5 -19q17 16 31.5 35.5l28.5 38.5t29.5 34.5t34.5 24.5q7 -15 10.5 -34.5t7.5 -38.5t11.5 -34.5t22.5 -21.5v29q0 10 -5 17.5t-10.5 25t-10.5 51t-5 95.5q0 4 2 25l4.5 49l5 57.5t4.5 50.5l2 -100q-8 -30 -6 -70.5t8.5 -80t14 -73t11.5 -49.5
q12 7 25.5 18t26.5 23.5t22.5 26t12.5 26.5q-8 5 -16.5 4.5t-14.5 2.5q-9 36 -13 56t-4.5 32.5t0 21.5t0.5 24q0 60 6 104.5t15 75.5t19 50t17 27zM266 182q0 -17 -4.5 -25.5t-13 -14.5t-20.5 -12t-26 -19q-9 7 -20 24.5t-18 31.5l50 36t46 41q0 -6 1 -15l2 -18t2 -17t1 -12
z" />
    <glyph glyph-name="Adieresis" unicode="&#xc4;" horiz-adv-x="448" 
d="M373 603q-9 4 -18.5 12.5l-18 16.5l-15.5 15l-10 10q6 -8 1.5 -16.5t-13 -16.5t-17 -15t-11.5 -12q17 -13 31 -28.5l24 -26.5l24 30.5t23 30.5zM262 603q-7 -1 -16.5 6t-18.5 16t-16.5 18.5t-9.5 14.5q4 -16 0 -23.5t-11.5 -12.5t-17 -10t-17.5 -15q17 -10 31 -25.5
t25 -29.5l25 34t26 27zM426 518l-25 6q-11 -18 -24.5 -28.5l-27 -22t-26 -27t-19.5 -42.5q-5 20 -7 43t-6 42.5t-12.5 34t-24.5 18.5q5 -36 10 -55.5l8 -30.5t3.5 -17.5t-3.5 -16.5q-19 19 -32 30.5t-22.5 17.5t-18.5 8t-19 2q-24 0 -50 -9t-47 -25t-34.5 -38.5t-13.5 -49.5
q0 -26 7 -35t19.5 -14l30 -12.5t37.5 -28.5q-4 -12 -15.5 -16t-23.5 -5.5t-22 -3.5t-10 -9l51 -7q25 11 42 25.5t17 43.5q0 28 -14 43t-30.5 24.5t-30 16.5t-13.5 20q0 8 12 17.5t23 9.5q24 0 45 -13t36.5 -32.5t25 -42t9.5 -41.5q0 -30 -13.5 -53t-34 -40.5t-45.5 -29.5
t-48.5 -20t-42 -12.5t-25.5 -6.5q8 -4 28 -9t40 -15t34.5 -27.5t11.5 -46.5q-1 -10 -0.5 -23t3.5 -19q17 16 31.5 35.5l28.5 38.5t29.5 34.5t34.5 24.5q7 -15 10.5 -34.5t7.5 -38.5t11.5 -34.5t22.5 -21.5v29q0 10 -5 17.5t-10.5 25t-10.5 51t-5 95.5q0 4 2 25l4.5 49
l5 57.5t4.5 50.5l2 -100q-8 -30 -6 -70.5t8.5 -80t14 -73t11.5 -49.5q12 7 25.5 18t26.5 23.5t22.5 26t12.5 26.5q-8 5 -16.5 4.5t-14.5 2.5q-9 36 -13 56t-5 32.5t-0.5 21.5t0.5 24q0 51 6.5 95.5t15.5 78t19 55t17 27.5zM266 182q0 -17 -4.5 -25.5t-13 -14.5t-20.5 -12
t-26 -19q-9 7 -20 24.5t-18 31.5l50 36t46 41q0 -6 1 -15l2 -18t2 -17t1 -12z" />
    <glyph glyph-name="Aring" unicode="&#xc5;" horiz-adv-x="444" 
d="M422 522q-62 -20 -92.5 -55t-25.5 -63q-7 34 -10.5 63t-13.5 59q24 21 34.5 31.5t10.5 31.5q0 2 -5.5 13t-14.5 23.5t-19 22.5t-19 10q-11 0 -22 -10t-20 -23t-14.5 -25t-5.5 -16q0 -2 11.5 -20.5t25 -43.5t24.5 -50.5t9 -41.5q-23 12 -34.5 22l-19 16.5t-16 10
t-25.5 3.5q-22 0 -47.5 -9.5t-47 -26t-35.5 -39t-14 -47.5q0 -26 7 -35t19.5 -14l29.5 -12t37 -28q-5 -12 -16.5 -16.5t-23.5 -7t-21 -4t-10 -7.5l51 -7q25 11 42.5 25.5t17.5 43.5q0 23 -6 33.5t-17.5 18.5l-28 19t-37.5 35q9 11 14 15.5t8.5 5.5t7 0t10.5 -1
q21 0 41 -11.5t35.5 -29.5t25 -40t9.5 -43q0 -30 -13.5 -53t-34 -40.5t-45.5 -29.5t-48 -20t-41.5 -12.5l-26.5 -6.5q8 -4 28 -9t40 -15t34.5 -27.5t11.5 -46.5q-1 -10 -0.5 -23t4.5 -19q16 16 30.5 35.5l29 38.5t30 34.5t34.5 24.5q10 -29 14 -51t7.5 -37.5t9.5 -25.5
t20 -15v29q0 11 -4.5 18.5t-10.5 24.5t-10.5 49.5t-4.5 94.5q0 4 1 25t3.5 49.5l5 58.5t5.5 51l2 -100q-8 -30 -6 -70.5t8.5 -80t14.5 -73t11 -49.5q12 7 25.5 18t26.5 23.5t23 26t13 26.5q-8 5 -16.5 4.5t-15.5 2.5q-9 36 -12.5 56t-4.5 32.5t-0.5 21.5t0.5 24
q0 71 6.5 115t15 71.5t17.5 43t14 30.5zM289 578q0 -8 -6 -18.5t-9 -17.5l-28 24t-15 27q0 2 1.5 7.5t4.5 11.5t7 10.5t9 4.5q9 0 15.5 -7t11 -16t7 -17t2.5 -9zM267 182q0 -15 -5 -23.5t-14 -15.5t-21 -14t-25 -18q-8 7 -19.5 24.5t-17.5 31.5l49 36t47 41q0 -6 1 -15
l2 -18t2 -17t1 -12z" />
    <glyph glyph-name="AE" unicode="&#xc6;" horiz-adv-x="652" 
d="M266 182q0 4 -1 12t-2 17l-2 18t-1 15q-21 -22 -47 -41l-49 -36q7 -14 18 -31.5t20 -24.5q14 13 25.5 19t20 12t13.5 14.5t5 25.5zM630 144q-12 -9 -23 -25t-24 -31.5t-31 -27t-44 -11.5q-11 0 -30 3t-36 11t-27 22.5t-3 37.5q-11 1 -17.5 6.5t-10.5 13t-6.5 15
l-4.5 13.5q6 7 14 9t15 2q12 0 22.5 -7l22 -15t26 -15t33.5 -7q15 0 29.5 13.5t26.5 31.5t21.5 36t15.5 27q-12 -5 -20.5 -12.5t-16 -15t-14 -13t-13.5 -5.5q-14 0 -24 5t-19.5 12t-20 14t-23.5 12q5 3 19 9.5l32.5 15t38.5 19t36.5 22t27.5 24t11 25.5q0 4 -6 18.5
l-13.5 33.5l-15.5 39t-11 35q-9 -6 -20 -15l-21 -17.5t-17 -16t-7 -11.5t5 -11.5t10.5 -17t10.5 -21.5t5 -25q0 -23 -20 -43.5t-46 -38.5t-51 -32.5t-36 -25.5q-7 15 -9.5 35t-2.5 27q0 34 15.5 60t36.5 46.5t42.5 38.5t34.5 36q-16 -1 -32 -9.5t-31.5 -19l-30 -20
t-27.5 -12.5q0 26 5.5 45t13.5 33.5t16.5 26.5t14.5 23l-25 5q-25 -21 -44 -34.5t-31.5 -24.5t-18 -21.5t-4.5 -25.5q-5 15 -8 34.5t-7 38t-12 32.5t-23 19q5 -36 10 -55.5t8.5 -30.5t4 -17.5t-3.5 -16.5q-19 19 -32 30.5t-23 17.5t-18.5 8t-19.5 2q-20 0 -45 -9t-47 -25
t-37 -38.5t-15 -49.5q0 -26 7 -35t19.5 -14l29.5 -12t37 -28q-5 -12 -16.5 -16.5t-23.5 -7t-21 -4t-9 -7.5l51 -7q24 11 41.5 25.5t17.5 43.5q0 23 -6 33.5t-17.5 18.5l-28 19t-37.5 35q11 10 20.5 17.5t17.5 7.5q24 0 45 -14t36 -34t23.5 -42t8.5 -39q0 -29 -14 -52
t-35 -40.5t-46.5 -30.5t-48.5 -22t-41 -14t-23 -8q19 -2 40.5 -14.5t39.5 -31t29 -42t7 -47.5q17 16 31.5 35.5l29 38.5t30 34.5t34.5 24.5q10 -29 14.5 -51t8 -37.5t9 -25.5t19.5 -15v25q0 10 -4.5 19t-10.5 27.5t-10.5 52t-4.5 92.5q0 4 1 23t2.5 44t3.5 52t4 47l2 -122
q-7 -18 -4.5 -49.5t9 -66t14.5 -66.5l13 -51q17 3 23 8t9 5q9 -10 24.5 -17.5t32 -12.5t32.5 -7.5t27 -2.5q24 0 49.5 12.5t47 33t37 46.5t19.5 52z" />
    <glyph glyph-name="Ccedilla" unicode="&#xc7;" horiz-adv-x="554" 
d="M532 444h-25q-22 16 -35 28.5t-23.5 21t-22.5 13t-31 4.5q-24 0 -45 -8t-37.5 -17.5t-27.5 -17.5t-15 -9q-65 -15 -108 -37t-69 -52t-36.5 -68t-10.5 -84q0 -20 2 -36t7.5 -33t14 -36.5t21.5 -44.5l-33 -6q-11 10 -14.5 20t-2.5 15l-19 -8q2 -18 7.5 -27.5t12 -13
t14.5 -4t14 -0.5q10 0 19 2.5t17 2.5q4 0 18 -5.5l32.5 -13l39 -15.5t37.5 -14v-25q0 -14 -8 -21.5t-18.5 -10.5t-19.5 -3.5t-12 0.5l17 -12t12 -8t11 -4t15 -1q34 0 49.5 22.5t25.5 62.5q6 13 30 26.5l51.5 29.5t52 34t33.5 41q-9 -1 -21.5 -14t-30.5 -28.5t-41.5 -28
t-54.5 -12.5q-13 0 -35.5 4.5t-44 13t-38 19t-18.5 22.5q39 23 58.5 50.5t26.5 56.5t5.5 58.5l-3 56.5t1 51t16.5 41q18 -6 26.5 -18.5t14 -26l10.5 -25t14 -14.5q1 19 -4.5 34t-13.5 28t-16.5 24t-11.5 22q19 12 34 12q4 0 18.5 -6t29.5 -16t27 -22.5t12 -24.5
q0 -4 -3.5 -10.5t-8 -13.5t-9 -13t-6.5 -9q46 19 81 47.5t45 53.5zM250 430q-28 -33 -37 -71t-12 -77.5t-5.5 -80.5t-17.5 -81q-12 9 -24 24.5t-21 34.5t-14.5 39t-5.5 38q0 19 7 46.5t23 53.5t42 46.5t65 27.5z" />
    <glyph glyph-name="Egrave" unicode="&#xc8;" horiz-adv-x="564" 
d="M293 546q-11 11 -23 25t-20.5 28t-12 27t2.5 22q-20 -4 -37 -5t-29 -4q8 -21 23.5 -38.5t33 -30t34.5 -19t28 -5.5zM542 141q-27 -11 -46 -25l-36.5 -26t-37 -20t-48.5 -8q-15 0 -26.5 2t-30 9.5l-50.5 21l-89 36.5l29 23t41 36.5t39 43t23 42.5q7 -4 20.5 -5.5t27 -4.5
t25.5 -9.5t17 -18.5q-6 -10 -10.5 -21.5t-5.5 -20.5q16 19 39.5 44l44 48t34 40t10.5 21q-9 -4 -18.5 -10.5l-18.5 -12.5t-16.5 -10.5t-11.5 -4.5q-7 0 -18.5 6.5t-19.5 17.5q4 4 16 12.5t25.5 19.5t24 22t10.5 20q0 4 -5 12l-10.5 17l-10.5 17t-5 12q0 8 4.5 13t8.5 13h-24
q-5 0 -21 -9.5l-36 -21t-41 -20.5t-36 -7q-1 21 7.5 33t19 17.5t20.5 7t13 1.5q-4 14 -8 20t-12 6q-1 0 -22.5 -13t-48 -31t-50.5 -37.5t-31 -33.5q15 4 21.5 -3t8.5 -19t1 -24.5t-1 -18.5q0 -38 -5.5 -52t-11.5 -17.5t-10 -4t0 -10.5q20 1 23.5 -7t3.5 -16
q0 -23 -12.5 -42.5t-31.5 -37.5t-42 -34.5l-44 -33t-37 -33t-21 -33.5l46 27t40 12q3 0 18.5 -4.5l37.5 -10.5t47 -14t47.5 -14t38 -10.5t18.5 -4.5q23 0 52 13.5t58.5 34.5t55.5 46t44 47zM243 520l-79.5 -59t-52.5 -45.5t-29.5 -43.5t-9.5 -52l17 -167q0 -17 -12 -34
t-37 -17q-8 0 -10.5 2t-5.5 2q-4 -5 -1 -14t6 -12q26 1 50 12.5t42 30t28.5 40.5t10.5 44q0 39 -8.5 80t-8.5 75q0 19 16.5 43t36 46.5l34.5 41t13 27.5zM405 389q0 -18 -10 -28.5t-24 -17.5t-29.5 -11.5t-27.5 -11.5q-7 6 -9 12.5t-2 14.5q0 9 2 23t8 26.5t18.5 21.5
t33.5 9q9 0 16.5 -4.5t13 -10.5t8 -12.5t2.5 -10.5z" />
    <glyph glyph-name="Eacute" unicode="&#xc9;" horiz-adv-x="564" 
d="M453 653q-21 -3 -41.5 -8.5t-28.5 -5.5q0 -15 -6 -29t-16 -25.5t-22 -21t-23 -15.5q4 0 10 -3t19 -3l32.5 18t31.5 21.5t26.5 29.5t17.5 42zM542 141q-27 -11 -46 -25l-36.5 -26t-37 -20t-48.5 -8q-28 0 -75 20l-116 49l35 31t39 38t33.5 39.5t19.5 36.5q7 -4 20.5 -5.5
t27 -4.5t25.5 -9.5t17 -18.5q-6 -10 -10.5 -21.5t-5.5 -20.5q16 19 39.5 44l44 48t34 40t10.5 21q-9 -4 -18.5 -10.5l-18.5 -12.5t-16.5 -10.5t-11.5 -4.5q-7 0 -18.5 6.5t-19.5 17.5q4 4 16 12.5t25.5 19.5t24 22t10.5 20q0 4 -5 12l-10.5 17l-10.5 17t-5 12q0 8 4.5 13
t8.5 13h-24q-5 0 -21 -9.5l-36 -21t-41 -20.5t-36 -7q-1 21 7.5 33t19 17.5t20.5 7t13 1.5q-4 14 -8 20t-12 6q-1 0 -22 -12.5t-47 -30.5t-50.5 -37.5t-33.5 -33.5q18 0 26 -9t10 -20.5t1 -22.5t-1 -14q0 -27 -3 -41t-8 -21.5t-12.5 -11.5t-16.5 -11q3 0 8.5 1.5t13.5 1.5
t13 -3.5t5 -21.5q0 -26 -26.5 -55.5t-60.5 -58l-65 -54.5t-41 -45q26 14 46 26t40 12q3 0 18.5 -4.5l37.5 -10.5t47 -14t47.5 -14t38 -10.5t18.5 -4.5q23 0 52 13.5t58.5 34.5t55.5 46t44 47zM248 520q-46 -30 -79 -53.5t-54.5 -46t-32 -46.5t-10.5 -54l17 -167
q0 -17 -12 -34t-37 -17q-8 0 -10.5 2t-5.5 2q-4 -5 -1 -14t6 -12q26 1 50 12.5t42 30t28.5 40.5t10.5 44q0 39 -8.5 80t-8.5 75q0 22 16.5 44t36.5 42.5t36 38.5t16 33zM405 389q0 -18 -10 -28.5t-24 -17.5t-29.5 -11.5t-27.5 -11.5q-7 6 -9 12.5t-2 14.5q0 9 2 23t8 26.5
t18.5 21.5t33.5 9q9 0 16.5 -4.5t13 -10.5t8 -12.5t2.5 -10.5z" />
    <glyph glyph-name="Ecircumflex" unicode="&#xca;" horiz-adv-x="564" 
d="M414 585l-47.5 33.5l-44.5 30.5l-23.5 -28.5l-24.5 -28.5t-21 -26t-12 -21q4 0 12 6.5t17 15l17 16t13 8.5q20 -17 40.5 -29.5t40.5 -19.5l16 21zM542 141q-27 -11 -46 -25l-36.5 -26t-37 -20t-48.5 -8q-15 0 -26.5 2t-30 9.5l-50.5 21l-89 36.5l29 23t41 36.5t39 43
t23 42.5q7 -4 20.5 -5.5t27 -4.5t25.5 -9.5t17 -18.5q-6 -10 -10.5 -21.5t-5.5 -20.5q16 19 39.5 44l44 48t34 40t10.5 21q-9 -4 -18.5 -10.5l-18.5 -12.5t-16.5 -10.5t-11.5 -4.5q-7 0 -18.5 6.5t-19.5 17.5q4 4 16 12.5t25.5 19.5t24 22t10.5 20q0 4 -5 12l-10.5 17
l-10.5 17t-5 12q0 8 4.5 13t8.5 13h-24q-5 0 -21 -9.5l-36 -21t-41 -20.5t-36 -7q-1 21 7.5 33t19 17.5t20.5 7t13 1.5q-4 14 -8 20t-12 6q-1 0 -22.5 -13t-48 -31t-50.5 -37.5t-31 -33.5q15 4 21.5 -3t8.5 -19t1 -24.5t-1 -18.5q0 -38 -5.5 -52t-11.5 -17.5t-10 -4t0 -10.5
q20 1 23.5 -7t3.5 -16q0 -23 -12.5 -42.5t-31.5 -37.5t-42 -34.5l-44 -33t-37 -33t-21 -33.5l46 27t40 12q3 0 18.5 -4.5l37.5 -10.5t47 -14t47.5 -14t38 -10.5t18.5 -4.5q23 0 52 13.5t58.5 34.5t55.5 46t44 47zM243 520l-79.5 -59t-52.5 -45.5t-29.5 -43.5t-9.5 -52
l17 -167q0 -17 -12 -34t-37 -17q-8 0 -10.5 2t-5.5 2q-4 -5 -1 -14t6 -12q26 1 50 12.5t42 30t28.5 40.5t10.5 44q0 39 -8.5 80t-8.5 75q0 19 16.5 43t36 46.5l34.5 41t13 27.5zM405 389q0 -18 -10 -28.5t-24 -17.5t-29.5 -11.5t-27.5 -11.5q-7 6 -9 12.5t-2 14.5q0 9 2 23
t8 26.5t18.5 21.5t33.5 9q9 0 16.5 -4.5t13 -10.5t8 -12.5t2.5 -10.5z" />
    <glyph glyph-name="Edieresis" unicode="&#xcb;" horiz-adv-x="564" 
d="M414 603q-8 0 -16.5 7t-16.5 16t-14 18t-8 14q-14 -16 -24.5 -30t-27.5 -30q15 -13 31.5 -32.5t24.5 -27.5q14 17 25.5 34.5t25.5 30.5zM298 603q-19 5 -33 22t-17 33q-5 -8 -13.5 -17t-16 -18t-13 -17t-4.5 -14q10 -1 17 -8.5t13 -16.5t10.5 -17.5t10.5 -11.5
q10 17 22.5 35t23.5 30zM542 141q-32 -15 -52.5 -29.5t-38 -25.5t-34 -17.5t-39.5 -6.5q-13 0 -37.5 7t-53.5 17.5t-58 22.5t-51 22q41 32 76.5 68.5t55.5 76.5q17 -5 30.5 -7t25 -5t20 -8.5t14.5 -17.5q-14 -20 -21 -42q19 15 38 34.5t37 40.5l34 41l28 36q-7 0 -16.5 -6
t-19.5 -13l-18.5 -12.5t-12.5 -5.5t-10.5 2t-13 5.5t-11 7.5t-5.5 9q4 4 16 12.5t25.5 19.5t24 22t10.5 20q0 4 -5 13l-10.5 18l-10.5 17t-5 12q0 7 4 14t4 12q-22 -4 -42 -13.5t-39 -19.5t-37 -18t-35 -9q-1 24 7.5 35t19 16.5l20.5 10.5t13 18q-4 0 -8 2.5t-12 2.5
q-3 0 -24 -12.5t-46.5 -30t-49.5 -37.5t-32 -35q15 4 21.5 -3t8.5 -19t1 -24.5t-1 -18.5q0 -24 -2 -37t-6.5 -20.5t-10.5 -12t-14 -11.5q9 3 20 -0.5t13 -11.5q2 -26 -8 -47t-27.5 -39t-40 -34t-44 -33t-40 -35.5t-28.5 -40.5q15 9 25 16.5t19 13t18.5 8t23.5 2.5
q3 0 18.5 -4.5t38 -10.5t48 -14t48 -14t38 -10.5t18.5 -4.5q24 0 56 16.5t62.5 39.5t55 47t34.5 38zM241 520q-35 -27 -66 -48.5t-54 -43t-36 -47t-13 -59.5l17 -166q0 -6 -2 -15t-7.5 -17.5t-15 -15t-24.5 -6.5q-8 0 -10.5 2t-5.5 2q-4 -5 -1 -14t6 -12q23 0 46.5 12
t42 30.5t30.5 41.5t12 45q0 13 -2.5 31.5t-6 39.5t-6 42.5t-2.5 39.5q0 22 16 45t35 44l34 39t13 30zM405 389q0 -17 -10.5 -28t-25.5 -18.5t-31.5 -11.5t-28.5 -6q-6 4 -6 22q0 10 1.5 24t7.5 26.5t18 21t33 8.5q11 0 26.5 -10t15.5 -28z" />
    <glyph glyph-name="Igrave" unicode="&#xcc;" horiz-adv-x="524" 
d="M320 543q-13 10 -27 22t-24.5 24.5t-15.5 27t0 31.5q-20 -3 -37 -4.5t-29 -4.5q0 -8 12.5 -24t29.5 -32t36 -28t31 -12h24zM502 191l-62 209q1 13 8.5 29t17.5 30t19 25l13 16q-7 7 -14 11.5t-15 4.5q-6 0 -15 -5.5t-22 -12.5t-30 -12.5t-40 -5.5q-4 0 -31 6l-59 13.5
l-59 14t-31 6.5q-14 0 -35.5 -6t-41 -17.5t-33.5 -29t-14 -40.5q0 -38 16 -54.5t35 -24t35 -12.5t16 -20q0 -8 -8.5 -20t-22.5 -12q-9 0 -13.5 4t-8.5 8.5t-10 8t-18 3.5q-2 -14 3 -22.5t12.5 -14t14.5 -7.5t9 -2q12 0 26.5 5t26.5 14t20.5 22t8.5 28q0 24 -17.5 37
t-38 21.5t-38 16.5t-17.5 23q0 22 16.5 30t32.5 8q24 0 43.5 -6.5t38.5 -14t37.5 -13.5t40.5 -6q12 0 26.5 3.5t29.5 7.5t29.5 7t25.5 1q-14 -14 -21.5 -22.5t-10.5 -15t-3.5 -13.5t-0.5 -17q0 -26 12 -63.5t26 -72.5t26 -61t12 -30q0 -8 -1 -11t-5 -7q-5 12 -17 28
t-27.5 33t-32 32.5t-29.5 25.5q8 16 15 24.5t11.5 14.5t7 12.5t2.5 18.5q0 16 -8.5 28.5t-20.5 21.5t-25.5 14t-23.5 5q-29 0 -45 -18t-23.5 -43t-8.5 -50.5t0 -40.5q-44 4 -62.5 7t-26.5 3q-3 0 -16 -3.5t-27.5 -10t-25.5 -16.5t-11 -23q0 -19 10 -34t43 -15h7t13 2.5
t13 8.5t6 19h-23q-8 1 -10 -3.5t-10 -4.5q-6 0 -14.5 7.5t-8.5 21.5q0 10 9 16t21 10t23.5 5.5t15.5 1.5q11 0 34.5 -4t52 -12.5t59.5 -20.5t56 -28t41.5 -36t16.5 -43q0 -11 -6 -19.5t-15.5 -14.5t-20.5 -9.5t-20 -3.5q-32 0 -58 15t-44 32q18 11 38 11q8 0 17 -2t16 -9
q-9 -6 -10.5 -15t3.5 -10q6 0 13.5 1.5t15 6t12.5 11t6 16.5q-14 14 -33 16.5t-36 2.5q-5 0 -15.5 -2t-22 -5t-22 -5t-13.5 -2q-4 0 -17.5 3.5l-28.5 7.5l-28 7.5t-17 3.5q-3 0 -18 -1.5t-32.5 -7t-31.5 -16.5t-14 -30q0 -9 7 -16t16.5 -12t18.5 -7.5t14 -2.5q4 0 16 3l25 6
t24.5 6t14.5 3q11 0 24 -7.5l30.5 -17t40.5 -17t53 -7.5q33 0 66.5 13.5t61 38.5t46 60.5t22.5 78.5zM346 320q0 -5 -2.5 -13.5t-6.5 -16.5t-10.5 -13.5t-13.5 -5.5t-16.5 7t-18 16t-14.5 18.5t-6 14.5q0 7 4 14.5t10.5 13.5t14 10t13.5 4q12 0 20.5 -5.5t14.5 -13.5
t8.5 -16t2.5 -14zM137 74q-13 -12 -28 -16.5t-25 -4.5q-8 0 -16.5 3t-16.5 7q1 11 12 20.5t19 9.5t25 -8t30 -11z" />
    <glyph glyph-name="Iacute" unicode="&#xcd;" horiz-adv-x="524" 
d="M435 653q-18 -5 -35 -7.5t-31 -6.5q-1 -9 -7 -23t-15 -27.5t-21 -24.5t-24 -16q3 0 9.5 -3t20.5 -3l28 17t33.5 23t28.5 30.5t13 40.5zM502 191l-62 209q1 13 8.5 29t17.5 30t19 25l13 16q-7 7 -14 11.5t-15 4.5q-6 0 -15 -5.5t-22 -12.5t-30 -12.5t-40 -5.5q-4 0 -31 6
l-59 13.5l-59 14t-31 6.5q-14 0 -35.5 -6.5t-41 -18.5t-33.5 -29t-14 -39q0 -38 16 -54.5t35 -24t35 -12.5t16 -20q0 -8 -8.5 -20t-22.5 -12q-9 0 -13.5 4t-8.5 8.5t-10 8t-18 3.5q-2 -14 3 -22.5t12.5 -14t14.5 -7.5t9 -2q12 0 26.5 5t26.5 14t20.5 22t8.5 28
q0 24 -17.5 37t-38 21.5t-38 16.5t-17.5 23q0 22 16.5 30t32.5 8q24 0 43.5 -6.5t38.5 -14t37.5 -13.5t40.5 -6q12 0 26.5 3.5t29.5 7.5t29.5 7t25.5 1q-14 -14 -21.5 -22.5t-10.5 -15t-3.5 -13.5t-0.5 -17q0 -26 12 -63.5t26 -72.5t26 -61t12 -30q0 -8 -1 -11t-5 -7
q-5 12 -17 28t-27.5 33t-32 32.5t-29.5 25.5q8 16 15 24.5t11.5 14.5t7 12.5t2.5 18.5q0 16 -8.5 28.5t-20.5 21.5t-25.5 14t-23.5 5q-29 0 -45 -18t-23.5 -43t-8.5 -50.5t0 -40.5q-44 4 -62.5 7t-26.5 3q-3 0 -16 -3.5t-27.5 -10t-25.5 -16.5t-11 -23q0 -19 10 -34t43 -15
h7t13 2.5t13 8.5t6 19h-23q-8 1 -10 -3.5t-10 -4.5q-6 0 -14.5 7.5t-8.5 21.5q0 10 9 16t21 10t23.5 5.5t15.5 1.5q11 0 34.5 -4t52 -12.5t59.5 -20.5t56 -28t41.5 -36t16.5 -43q0 -11 -6 -19.5t-15.5 -14.5t-20.5 -9.5t-20 -3.5q-32 0 -58 15t-44 32q18 11 38 11q8 0 17 -2
t16 -9q-9 -6 -10.5 -15t3.5 -10q6 0 13.5 1.5t15 6t12.5 11t6 16.5q-14 14 -33 16.5t-36 2.5q-5 0 -15.5 -2t-22 -5t-22 -5t-13.5 -2q-4 0 -17.5 3.5l-28.5 7.5l-28 7.5t-17 3.5q-3 0 -18 -1.5t-32.5 -7t-31.5 -16.5t-14 -30q0 -9 7 -16t16.5 -12t18.5 -7.5t14 -2.5
q4 0 16 3l25 6t24.5 6t14.5 3q11 0 24 -7.5l30.5 -17t40.5 -17t53 -7.5q33 0 66.5 13.5t61 38.5t46 60.5t22.5 78.5zM346 320q0 -5 -2.5 -13.5t-6.5 -16.5t-10.5 -13.5t-13.5 -5.5t-16.5 7t-18 16t-14.5 18.5t-6 14.5q0 7 4 14.5t10.5 13.5t14 10t13.5 4q12 0 20.5 -5.5
t14.5 -13.5t8.5 -16t2.5 -14zM137 74q-13 -12 -28 -16.5t-25 -4.5q-8 0 -16.5 3t-16.5 7q1 11 12 20.5t19 9.5t25 -8t30 -11z" />
    <glyph glyph-name="Icircumflex" unicode="&#xce;" horiz-adv-x="524" 
d="M413 585l-43.5 30.5t-43.5 33.5q-11 -12 -26 -26.5l-28.5 -28.5t-23.5 -26.5t-12 -22.5q7 0 16 6t17.5 14t16.5 17t14 14q8 -9 18.5 -18.5t21 -17.5t19 -13t12.5 -5q3 0 9 4.5t12 11.5l12 14.5t9 12.5zM502 191l-62 209q1 13 8.5 29t17.5 30t19 25l13 16q-7 7 -14 11.5
t-15 4.5q-6 0 -15 -5.5t-22 -12.5t-30 -12.5t-40 -5.5q-4 0 -31 6l-59 13.5l-59 14t-31 6.5q-14 0 -35.5 -6.5t-41 -18.5t-33.5 -29t-14 -39q0 -38 16 -54.5t35 -24t35 -12.5t16 -20q0 -8 -8.5 -20t-22.5 -12q-9 0 -13.5 4t-8.5 8.5t-10 8t-18 3.5q-2 -14 3 -22.5t12.5 -14
t14.5 -7.5t9 -2q12 0 26.5 5t26.5 14t20.5 22t8.5 28q0 24 -17.5 37t-38 21.5t-38 16.5t-17.5 23q0 22 16.5 30t32.5 8q24 0 43.5 -6.5t38.5 -14t37.5 -13.5t40.5 -6q12 0 26.5 3.5t29.5 7.5t29.5 7t25.5 1q-14 -14 -21.5 -22.5t-10.5 -15t-3.5 -13.5t-0.5 -17
q0 -26 12 -63.5t26 -72.5t26 -61t12 -30q0 -8 -1 -11t-5 -7q-5 12 -17 28t-27.5 33t-32 32.5t-29.5 25.5q8 16 15 24.5t11.5 14.5t7 12.5t2.5 18.5q0 16 -8.5 28.5t-20.5 21.5t-25.5 14t-23.5 5q-29 0 -45 -18t-23.5 -43t-8.5 -50.5t0 -40.5q-44 4 -62.5 7t-26.5 3
q-3 0 -16 -3.5t-27.5 -10t-25.5 -16.5t-11 -23q0 -19 10 -34t43 -15h7t13 2.5t13 8.5t6 19h-23q-8 1 -10 -3.5t-10 -4.5q-6 0 -14.5 7.5t-8.5 21.5q0 10 9 16t21 10t23.5 5.5t15.5 1.5q11 0 34.5 -4t52 -12.5t59.5 -20.5t56 -28t41.5 -36t16.5 -43q0 -11 -6 -19.5
t-15.5 -14.5t-20.5 -9.5t-20 -3.5q-32 0 -58 15t-44 32q18 11 38 11q8 0 17 -2t16 -9q-9 -6 -10.5 -15t3.5 -10q6 0 13.5 1.5t15 6t12.5 11t6 16.5q-14 14 -33 16.5t-36 2.5q-5 0 -15.5 -2t-22 -5t-22 -5t-13.5 -2q-4 0 -17.5 3.5l-28.5 7.5l-28 7.5t-17 3.5q-3 0 -18 -1.5
t-32.5 -7t-31.5 -16.5t-14 -30q0 -9 7 -16t16.5 -12t18.5 -7.5t14 -2.5q4 0 16 3l25 6t24.5 6t14.5 3q11 0 24 -7.5l30.5 -17t40.5 -17t53 -7.5q33 0 66.5 13.5t61 38.5t46 60.5t22.5 78.5zM346 320q0 -5 -2.5 -13.5t-6.5 -16.5t-10.5 -13.5t-13.5 -5.5t-16.5 7t-18 16
t-14.5 18.5t-6 14.5q0 7 4 14.5t10.5 13.5t14 10t13.5 4q12 0 20.5 -5.5t14.5 -13.5t8.5 -16t2.5 -14zM137 74q-13 -12 -28 -16.5t-25 -4.5q-8 0 -16.5 3t-16.5 7q1 11 12 20.5t19 9.5t25 -8t30 -11z" />
    <glyph glyph-name="Idieresis" unicode="&#xcf;" horiz-adv-x="524" 
d="M400 603q-7 0 -16 6.5t-16.5 15t-12.5 18t-5 15.5q-4 -3 -11.5 -11l-16 -17l-16.5 -18t-13 -14q6 -4 14.5 -10.5t16.5 -15t13.5 -17.5t5.5 -17q14 14 28.5 31zM284 603q-12 0 -21 6t-16 14.5t-11.5 17.5t-6.5 17q-6 -7 -14 -15.5t-15.5 -17.5t-13.5 -17t-8 -15
q17 -11 31 -26t24 -29q14 17 25.5 34.5t25.5 30.5zM502 191l-62 209q1 13 8.5 29t17.5 30t19 25l13 16q-7 7 -14 11.5t-15 4.5q-7 0 -16 -5.5t-21.5 -12.5t-29.5 -12.5t-40 -5.5q-4 0 -31 6l-59 13.5l-59 14t-31 6.5q-14 0 -35.5 -6t-41 -17.5t-33.5 -29t-14 -40.5
q0 -38 16 -54.5t35 -24t35 -12.5t16 -20q0 -8 -8.5 -20t-22.5 -12q-9 0 -13.5 4t-8.5 8.5t-10 8t-18 3.5q-2 -14 3 -22.5t12.5 -14t14.5 -7.5t9 -2q12 0 26.5 5t26.5 14t20.5 22t8.5 28q0 24 -17.5 37t-38 21.5t-38 16.5t-17.5 23q0 22 16.5 30t32.5 8q24 0 43.5 -6.5
t38.5 -14t37.5 -13.5t40.5 -6q12 0 26.5 3.5t29.5 7.5t29.5 7t25.5 1q-14 -14 -21.5 -22.5t-10.5 -15t-3.5 -13.5t-0.5 -17q0 -26 12 -63.5t26 -72.5t26 -61t12 -30q0 -8 -1 -11t-5 -7q-5 12 -17 28t-27.5 33t-32 32.5t-29.5 25.5q8 16 15 24.5t11.5 14.5t7 12.5t2.5 18.5
q0 16 -8.5 28.5t-20.5 21.5t-25.5 14t-23.5 5q-29 0 -45 -18t-23.5 -43t-8.5 -50.5t0 -40.5q-44 4 -62.5 7t-26.5 3q-3 0 -16 -3.5t-27.5 -10t-25.5 -16.5t-11 -23q0 -19 10 -34t43 -15h7t13 2.5t13 8.5t6 19h-23q-8 1 -10 -3.5t-10 -4.5q-6 0 -14.5 7.5t-8.5 21.5
q0 10 9 16t21 10t23.5 5.5t15.5 1.5q11 0 34.5 -4t52 -12.5t59.5 -20.5t56 -28t41.5 -36t16.5 -43q0 -11 -6 -19.5t-15.5 -14.5t-20.5 -9.5t-20 -3.5q-32 0 -58 15t-44 32q18 11 38 11q8 0 17 -2t16 -9q-9 -6 -10.5 -15t3.5 -10q6 0 13.5 1.5t15 6t12.5 11t6 16.5
q-14 14 -33 16.5t-36 2.5q-5 0 -15.5 -2t-22 -5t-22 -5t-13.5 -2q-4 0 -17.5 3.5l-28.5 7.5l-28 7.5t-17 3.5q-3 0 -18 -1.5t-32.5 -7t-31.5 -16.5t-14 -30q0 -9 7 -16t16.5 -12t18.5 -7.5t14 -2.5q4 0 16 3l25 6t24.5 6t14.5 3q11 0 24 -7.5l30.5 -17t40.5 -17t53 -7.5
q33 0 66.5 13.5t61 38.5t46 60.5t22.5 78.5zM346 320q0 -5 -2.5 -13.5t-6.5 -16.5t-10.5 -13.5t-13.5 -5.5t-16.5 7t-18 16t-14.5 18.5t-6 14.5q0 7 4 14.5t10.5 13.5t14 10t13.5 4q12 0 20.5 -5.5t14.5 -13.5t8.5 -16t2.5 -14zM137 74q-13 -12 -28 -16.5t-25 -4.5
q-8 0 -16.5 3t-16.5 7q1 11 12 20.5t19 9.5t25 -8t30 -11z" />
    <glyph glyph-name="Eth" unicode="&#xd0;" 
 />
    <glyph glyph-name="Ntilde" unicode="&#xd1;" horiz-adv-x="591" 
d="M399 611q-10 -5 -18 -14.5t-14 -9.5q-5 0 -17 5l-26 10.5l-26 10.5t-16 5q-10 0 -20.5 -8.5t-19 -20.5t-14 -24.5t-5.5 -19.5q9 4 17 13t16 15q31 -12 55.5 -23.5t32.5 -11.5q9 0 19 10t17.5 23t13 25t5.5 15zM568 142q-20 -7 -31 -12.5t-19 -5.5q-15 0 -26 17.5
t-17.5 39.5t-9.5 42.5t-3 25.5q0 31 13.5 56.5t29 47.5l29 40t13.5 34q0 2 -2 10t-6 16.5t-11 15.5t-16 6q0 -3 1 -10.5t0.5 -16t-5 -15t-15.5 -6.5q-10 0 -24 11l-30.5 24.5t-34.5 24.5t-35 11q-20 0 -42.5 -18t-48.5 -44q-34 32 -68.5 42.5t-67.5 10.5q-25 0 -46.5 -18
t-38 -42.5t-26 -50.5t-9.5 -42q0 -29 14.5 -39.5t32 -15t32 -10t14.5 -24.5q0 -4 -3.5 -10t-8.5 -11t-10 -9t-9 -4q-8 0 -24.5 9t-31.5 11q1 -8 7.5 -14.5t13.5 -11.5t14 -8t10 -3q11 0 26 6t28.5 17t23 25.5t9.5 31.5q0 25 -13 38.5t-31.5 21.5t-38.5 14t-33 17q4 35 26 52
t52 17q22 0 41.5 -11t33.5 -28t22 -37t8 -38t-3.5 -37t-11.5 -38t-20.5 -35.5t-30.5 -28.5q-12 -9 -31.5 -19t-38.5 -22t-33.5 -26.5t-16.5 -32.5q13 2 29 10.5t23 8.5q21 0 33.5 -11.5t19.5 -28t10 -33.5t3 -29q35 23 69.5 48.5t64.5 52.5q-8 2 -16 -0.5t-15.5 -6t-13.5 -7
t-10 -3.5t-11 9t-15.5 21l-17.5 25.5t-16 22.5q80 38 113.5 99t2.5 138q-2 5 1.5 11.5t9.5 12t13 9.5t13 4q4 0 22 -12l38 -26l38 -26t22 -12q8 0 12.5 2.5t7.5 -0.5q-9 -21 -19 -31.5t-19.5 -17l-17.5 -11.5t-14.5 -13.5t-10 -23.5t-3.5 -41q0 -49 9 -82.5t19.5 -55.5
t19.5 -33t9 -15q0 -8 -4.5 -16.5t-8.5 -11.5q27 13 52 32.5t44 38.5t30.5 35.5t10.5 25.5z" />
    <glyph glyph-name="Ograve" unicode="&#xd2;" horiz-adv-x="520" 
d="M316 546q-5 5 -15 17t-20.5 27t-18 30.5t-5.5 27.5q-20 -3 -36.5 -4.5t-29.5 -4.5q3 -17 17 -33.5t32.5 -30t38.5 -22t37 -7.5zM498 216q0 46 -19 77.5t-41.5 54.5t-41 40t-18.5 34q0 8 9.5 23.5t16.5 28.5q-3 0 -10 5t-10 5l-49 -54t-52 -48l-3 47q3 14 11 21t18 12
t19 10t14 15q-7 4 -11.5 7.5t-12.5 3.5q-20 0 -49.5 -14.5t-62.5 -38.5t-66 -54.5t-59 -63t-42.5 -63.5t-16.5 -55q0 -50 20 -90t53 -68.5t75.5 -44t87.5 -15.5q12 0 34.5 11.5t49.5 30.5t54.5 43.5t50 49.5t37 48.5t14.5 41.5zM431 218q0 -35 -15 -64t-39 -50.5t-53 -33.5
t-57 -12q-17 0 -35.5 6t-35 14t-30 16.5t-19.5 13.5q1 4 20 22t43 37.5t47.5 35t33.5 15.5q15 0 24 -14t9 -28t-10.5 -21.5t-22.5 -7.5q-8 0 -14.5 7.5l-12.5 14.5q-6 -2 -10.5 -6t-4.5 -12q0 -11 6 -15.5t13.5 -6t13.5 -1t7 0.5q29 0 43.5 13t14.5 36q0 29 -21 44.5
t-50 18.5v85q0 8 11.5 20.5l21.5 22.5l28 -28l41 -43t37 -45t16 -35zM222 399q-9 -28 -10 -55t0 -52t1 -48t-8 -43t-26 -37.5t-53 -30.5q-10 7 -16.5 20t-10 28t-5 28.5t-1.5 21.5q0 18 6.5 41t21.5 46t39.5 44.5t61.5 36.5z" />
    <glyph glyph-name="Oacute" unicode="&#xd3;" horiz-adv-x="565" 
d="M542 653q-18 -5 -35 -7t-31 -7q0 -13 -8 -28t-18.5 -28.5t-20 -23.5l-12.5 -13q13 -3 34.5 7t42 27t35 37t13.5 36zM498 218q0 44 -19 75.5t-41.5 54.5t-41 40t-18.5 34q0 6 3 12.5t7 14t7 15t2 16.5q-18 -8 -33 -22.5t-28.5 -30.5t-26 -29t-25.5 -16l-4 47q3 12 12 20
t19 14.5l19 12t12 12.5l-33 5q-35 -25 -69.5 -43.5l-66.5 -35t-59.5 -34t-48 -41t-32 -55t-11.5 -75.5q0 -50 20 -90t53 -68.5t75.5 -44t87.5 -15.5q11 0 33 11t48.5 29.5t55 42.5t51.5 49t37.5 50t14.5 45zM431 218q0 -35 -15 -64t-39 -50.5t-53 -33.5t-57 -12
q-17 0 -35.5 6t-35 14t-30 16.5t-19.5 13.5q1 3 10.5 12l23 21.5t30 26t32.5 24.5t29 18.5t19 7.5q15 0 24.5 -14t9.5 -28t-11 -21.5t-23 -7.5q-8 0 -14.5 7.5l-12.5 14.5q-6 -2 -10.5 -6t-4.5 -12q0 -11 6 -15.5t13.5 -6t13.5 -1t7 0.5q29 0 43.5 13t14.5 36q0 29 -21 44.5
t-50 18.5v85q0 8 11.5 20.5l21.5 22.5l28 -28l41 -43t37 -45t16 -35zM222 399q-9 -28 -10 -55t0 -52t1 -48t-7.5 -43t-25.5 -37.5t-53 -30.5q-11 7 -17 20t-10 28t-5 28.5t-1 21.5q0 18 6 41t21 46t39.5 44.5t61.5 36.5z" />
    <glyph glyph-name="Ocircumflex" unicode="&#xd4;" horiz-adv-x="520" 
d="M471 585q-23 13 -47 31.5t-44 32.5q-9 -12 -24 -26.5l-29 -29t-23.5 -27.5t-9.5 -21q8 0 16.5 6t17 14t16.5 17t14 14q8 -9 18.5 -18.5t21 -17.5t19 -13t12.5 -5t9 5t10.5 11.5l11.5 14t11 12.5zM498 216q0 46 -19 77.5t-41.5 54.5t-41 40t-18.5 34q0 6 3 12.5t7 14t7 15
t2 16.5q-18 -8 -33 -22.5t-28.5 -30.5t-26 -29t-25.5 -16l-4 47q3 12 12 20t19 14.5l19 12t12 12.5l-34 5q-35 -25 -69.5 -43.5l-66.5 -35t-59.5 -34t-47.5 -41t-31.5 -55t-11.5 -75.5q0 -50 20 -90t53 -68.5t75.5 -44t87.5 -15.5q12 0 34.5 11.5t49.5 30.5t54.5 43.5
t50 49.5t37 48.5t14.5 41.5zM431 218q0 -35 -15 -64t-39 -50.5t-53 -33.5t-57 -12q-17 0 -35.5 6t-35 14t-30 16.5t-19.5 13.5q1 4 20 22t43 37.5t47.5 35t33.5 15.5q15 0 24 -14t9 -28t-10.5 -21.5t-22.5 -7.5q-8 0 -14.5 7.5l-12.5 14.5q-6 -2 -10.5 -6t-4.5 -12
q0 -11 6 -15.5t13.5 -6t13.5 -1t7 0.5q29 0 43.5 13t14.5 36q0 29 -21 44.5t-50 18.5v85q0 8 11.5 20.5l21.5 22.5l28 -28l41 -43t37 -45t16 -35zM222 399q-9 -28 -10 -55t0 -52t1 -48t-8 -43t-26 -37.5t-53 -30.5q-10 7 -16.5 20t-10 28t-5 28.5t-1.5 21.5q0 18 6.5 41
t21.5 46t39.5 44.5t61.5 36.5z" />
    <glyph glyph-name="Otilde" unicode="&#xd5;" horiz-adv-x="520" 
d="M463 609q-6 -5 -18.5 -13.5t-15.5 -8.5q-4 0 -16 5l-25 10.5l-25 10.5t-16 5q-11 0 -20 -7t-16 -17.5t-13 -23l-11 -22.5q7 1 19.5 11.5t16.5 13.5l26 -11l27 -11.5t22.5 -9t12.5 -3.5q10 0 19.5 10.5t17 23t12 24t3.5 13.5zM498 216q0 39 -19 72t-41.5 59.5t-41 45
t-18.5 29.5q0 9 9.5 23.5t16.5 23.5l-24 11q-10 -9 -21.5 -25l-24 -32t-25.5 -29t-25 -17l-4 52q4 13 13 20.5t19 13.5l18.5 11.5t11.5 13.5l-34 5q-43 -30 -80.5 -51l-69.5 -38.5t-57 -34t-42.5 -38t-27 -50.5t-9.5 -72q0 -50 20 -90t53 -68.5t75.5 -44t87.5 -15.5
q12 0 34.5 11.5t49.5 30.5t54.5 43.5t50 49.5t37 48.5t14.5 41.5zM431 218q0 -35 -15 -64t-39 -50.5t-53 -33.5t-57 -12q-17 0 -35.5 6t-35 14t-30 16.5t-19.5 13.5q1 4 20 22t43 37.5t47.5 35t33.5 15.5q15 0 24 -14t9 -28t-10.5 -21.5t-22.5 -7.5q-8 0 -14.5 7.5
l-12.5 14.5q-6 -2 -10.5 -6t-4.5 -12q0 -11 6 -15.5t13.5 -6t13.5 -1t7 0.5q29 0 43.5 13t14.5 36q0 29 -21 44.5t-50 18.5v85q0 8 11.5 20.5l21.5 22.5q7 -8 27 -28l41 -43t37.5 -45t16.5 -35zM222 399q-9 -29 -10 -56t0 -52t1 -48q0 -22 -8 -42t-26 -37t-53 -31
q-10 7 -16.5 20t-10 28t-5 28.5t-1.5 21.5q0 21 8 46t24.5 48.5t40.5 43t56 30.5z" />
    <glyph glyph-name="Odieresis" unicode="&#xd6;" horiz-adv-x="520" 
d="M418 603q-22 9 -34.5 24t-16.5 31q-14 -16 -24 -30t-27 -30q7 -6 15 -15l15.5 -17.5l14 -16t10.5 -11.5q11 17 23.5 34.5t23.5 30.5zM307 603q-9 1 -18 7t-16.5 14t-13 17t-7.5 17q-14 -16 -24.5 -30t-27.5 -30q17 -14 32 -32t29 -28q6 15 19.5 34t26.5 31zM498 216
q0 46 -19 77.5t-41.5 54.5t-41 40t-18.5 34q0 8 9.5 23t16.5 29q-3 3 -10 6.5t-10 3.5l-49 -54t-52 -48l-3 47q4 14 13 22t19 14t18.5 10.5t11.5 11.5q-3 4 -8.5 7.5t-13.5 3.5q-20 0 -50 -14.5t-63 -38.5t-66 -54.5t-59.5 -63t-43 -63.5t-16.5 -55q0 -50 20 -90t53 -68.5
t75.5 -44t87.5 -15.5q12 0 34.5 11.5t49.5 30.5t54.5 43.5t50 49.5t37 48.5t14.5 41.5zM431 218q0 -35 -15 -64t-39 -50.5t-53 -33.5t-57 -12q-17 0 -35.5 6t-35 14t-30 16.5t-19.5 13.5q1 4 20 22t43 37.5t47.5 35t33.5 15.5q15 0 24 -14t9 -28t-10.5 -21.5t-22.5 -7.5
q-8 0 -14.5 7.5l-12.5 14.5q-6 -2 -10.5 -6t-4.5 -12q0 -11 6 -15.5t13.5 -6t13.5 -1t7 0.5q29 0 43.5 13t14.5 36q0 29 -21 44.5t-50 18.5v85q0 8 11.5 20.5l21.5 22.5l28 -28l41 -43t37 -45t16 -35zM217 402q-7 -20 -6.5 -43.5t1.5 -49t1 -51.5q0 -25 -8 -48.5t-26 -43
t-53 -33.5q-10 7 -16.5 20t-10 28t-5 28.5t-1.5 21.5q0 49 29 92.5t95 78.5z" />
    <glyph glyph-name="multiply" unicode="&#xd7;" 
 />
    <glyph glyph-name="Oslash" unicode="&#xd8;" horiz-adv-x="545" 
d="M523 410v39q-27 -17 -51.5 -36.5l-47.5 -39.5q-17 14 -25 27.5t-8 21.5t9 24.5t12 28.5q-14 0 -23.5 -7.5t-20.5 -20l-27.5 -30.5t-44.5 -39l-3 51q4 13 13.5 21t19 13.5t18 11t11.5 13.5q-4 0 -10 2.5t-20 2.5q-36 -25 -71.5 -43.5l-67.5 -35t-59.5 -34t-48 -41t-32 -55
t-11.5 -75.5q0 -24 6 -44.5t13.5 -36.5t14 -27t6.5 -17q0 -5 -8.5 -12t-19 -17.5t-18.5 -26t-6 -37.5l39.5 33.5t36.5 28.5q10 -13 30 -24t44.5 -19.5t50.5 -13.5t47 -5q11 0 33 11t48.5 29.5t55 42.5t51.5 49t37.5 50t14.5 45q0 15 -5 34.5t-13.5 38t-20 34.5t-24.5 24z
M364 327q-14 -14 -34.5 -31l-40.5 -34v64q-1 8 10.5 20l21.5 23q10 -4 21.5 -16.5t21.5 -25.5zM444 218q0 -35 -15.5 -64t-39.5 -50.5t-53 -33.5t-57 -12q-17 0 -35.5 6t-35 14.5t-29.5 17t-20 13.5q6 4 26.5 21.5l44.5 37t45 35t29 15.5q14 0 23.5 -14t9.5 -28t-10.5 -21.5
t-22.5 -7.5q-8 0 -14.5 7.5l-12.5 14.5q-15 -5 -15 -18q0 -11 6 -15.5t13.5 -6t13.5 -1t7 0.5q29 0 43 13t14 36q0 19 -13 36.5t-31 22.5q18 13 37 30l36 31q2 -2 11 -13t19 -25t18 -26.5t8 -15.5zM234 399q-9 -26 -9.5 -51t1 -48.5t1.5 -45.5t-7.5 -42.5t-26 -40
t-54.5 -38.5q-10 7 -16.5 20t-10 28t-5 28.5t-1.5 21.5q0 21 7.5 44.5t23 46t39.5 42.5t58 35z" />
    <glyph glyph-name="Ugrave" unicode="&#xd9;" horiz-adv-x="400" 
d="M205 546q-8 10 -20.5 21.5t-23.5 25t-16.5 27.5t1.5 28q-20 -3 -37 -4.5t-29 -4.5q7 -17 22.5 -34.5t33.5 -31.5t36.5 -21.5t32.5 -5.5zM378 358q0 29 -10.5 56t-28.5 47.5t-43.5 33t-55.5 12.5q-27 0 -47 -15.5t-34.5 -38.5t-24 -50.5t-15.5 -51.5t-8.5 -41.5
t-2.5 -20.5q-2 2 -7 18t-10.5 35.5t-10 38t-4.5 26.5q0 24 7.5 46.5t17 41t18 31t9.5 16.5q-14 -5 -32.5 -31.5t-35 -59t-27.5 -62t-11 -40.5q0 -10 10.5 -37.5t26 -63l33.5 -75l33.5 -75t25.5 -62t10 -36.5q2 1 19 23.5l41 56.5l51.5 75.5t51 80.5t39 72t15.5 50zM316 304
q0 -19 -12 -44.5t-28 -51t-32 -48.5t-24 -36q-24 28 -38.5 50t-22 42t-10 40t-2.5 44q0 4 1.5 18.5t5 33t9 39t13 37.5t18 28t24.5 11q25 0 43.5 -22.5t30.5 -51t18 -55t6 -34.5z" />
    <glyph glyph-name="Uacute" unicode="&#xda;" horiz-adv-x="400" 
d="M359 653q-18 -5 -34.5 -7.5t-30.5 -6.5q0 -14 -6.5 -28t-16.5 -26t-21.5 -22t-22.5 -15q3 0 9 -3t20 -3l29 17t33.5 23t28 30.5t12.5 40.5zM378 358q0 29 -10.5 56t-28.5 47.5t-43.5 33t-55.5 12.5q-27 0 -47 -15.5t-34.5 -38.5t-24 -50.5t-15.5 -51.5t-8.5 -41.5
t-2.5 -20.5q-2 2 -7 18t-10.5 35.5t-10 38t-4.5 26.5q0 24 7.5 46.5t17 41t18 31t9.5 16.5q-14 -5 -32.5 -31.5t-35 -59t-27.5 -62t-11 -40.5q0 -10 10.5 -37.5t26 -63l33.5 -75l33.5 -75t25.5 -62t10 -36.5q2 1 19 23.5l41 56.5l51.5 75.5t51 80.5t39 72t15.5 50zM316 304
q0 -14 -12 -40.5t-28 -54t-32 -51.5t-24 -34q-24 28 -38.5 50t-22 42t-10 40t-2.5 44q0 4 1.5 18.5t5 33t9 39t13 37.5t18 28t24.5 11q25 0 43.5 -22.5t30.5 -51t18 -55t6 -34.5z" />
    <glyph glyph-name="Ucircumflex" unicode="&#xdb;" horiz-adv-x="400" 
d="M351 585q-23 13 -47 31.5t-44 32.5q-19 -22 -35 -38l-27.5 -28t-17.5 -21t-6 -17q8 0 16.5 6.5t17 14.5l16 15.5t13.5 9.5l19.5 -15.5t21 -16t19 -12.5t12.5 -5t9 5t10.5 11.5l11.5 14t11 12.5zM378 358q0 29 -10.5 56t-28.5 47.5t-43.5 33t-55.5 12.5q-27 0 -47 -15.5
t-34.5 -38.5t-24 -50.5t-15.5 -51.5t-8.5 -41.5t-2.5 -20.5q-2 2 -7 18t-10.5 35.5t-10 38t-4.5 26.5q0 24 7.5 46.5t17 41t18 31t9.5 16.5q-14 -5 -32.5 -31.5t-35 -59t-27.5 -62t-11 -40.5q0 -10 10.5 -37.5t26 -63l33.5 -75l33.5 -75t25.5 -62t10 -36.5q2 1 19 23.5
l41 56.5l51.5 75.5t51 80.5t39 72t15.5 50zM316 304q0 -19 -12 -44.5t-28 -51t-32 -48.5t-24 -36q-24 28 -38.5 50t-22 42t-10 40t-2.5 44q0 4 1.5 18.5t5 33t9 39t13 37.5t18 28t24.5 11q25 0 43.5 -22.5t30.5 -51t18 -55t6 -34.5z" />
    <glyph glyph-name="Udieresis" unicode="&#xdc;" horiz-adv-x="400" 
d="M351 603q-22 9 -35 25t-15 30q-5 -3 -12.5 -11t-15 -18l-14.5 -19.5t-10 -16.5q17 -11 31 -26t25 -29q9 17 22 34.5t24 30.5zM240 603q-9 1 -18 7t-16.5 14t-13 17t-7.5 17q-10 -17 -24 -33t-28 -27q20 -14 33.5 -32t27.5 -28q7 15 20 34t26 31zM378 358q0 26 -9 52.5
t-26.5 48t-43 35t-57.5 13.5q-26 0 -46 -13.5t-35 -34.5t-25.5 -46.5t-17 -49.5t-9 -43t-1.5 -27q-6 10 -12 25t-10.5 31.5t-7 31.5t-2.5 26q0 29 7 50.5t16.5 37.5t18 27.5t11.5 19.5h-25q-5 -2 -13 -16t-17.5 -33.5t-18.5 -42t-16.5 -43.5t-12 -37t-4.5 -21
q0 -10 10.5 -37.5t26 -63l33.5 -75l33.5 -75t25.5 -62t10 -36.5q2 1 19 23.5l41 56.5l51.5 75.5t51 80.5t39 72t15.5 50zM316 307q0 -21 -12 -46.5t-27.5 -51t-31.5 -48t-25 -37.5q-26 32 -41 54t-22 41t-8.5 38t-1.5 45q0 29 0.5 45t5.5 31t17.5 34l35.5 54q24 -4 44.5 -19
t35 -37t22.5 -48.5t8 -54.5z" />
    <glyph glyph-name="Yacute" unicode="&#xdd;" 
 />
    <glyph glyph-name="germandbls" unicode="&#xdf;" horiz-adv-x="310" 
d="M288 448l-27 11l-29 11.5t-25.5 9.5t-15.5 4q-21 0 -42 -14t-39.5 -35t-34.5 -46t-28 -47.5t-18.5 -39.5t-6.5 -22q0 -2 2 -24t5.5 -56l8 -76.5l9.5 -86.5t10.5 -85t10.5 -72q4 3 10 28.5t12 63t12 82t11 86.5t8 75.5t3 48.5q0 4 -4 18t-9.5 29.5t-9.5 29t-4 17.5
q0 8 3.5 19.5t11 22.5t19.5 19t29 8q3 0 13 -5l21 -10.5l21 -10.5t13 -5t12.5 7t20 16t18.5 17.5t9 11.5zM288 351l-57 -30t-53 -33q1 -10 4 -22t6 -22.5t5 -19.5t2 -13q0 -14 -9.5 -27t-21.5 -24.5t-21.5 -21.5t-9.5 -18q0 -4 7.5 -11.5l17 -16.5l17 -16.5t7.5 -11.5
t-7 -17.5l-15.5 -29l-15.5 -29t-7 -17.5q0 -5 3 -18t8.5 -27.5t14 -25.5t19.5 -11q18 0 34 16t28.5 37t19.5 41.5t7 29.5q0 4 -2.5 13l-5.5 20l-6 23t-4 22q6 6 15.5 14t15.5 14q-11 0 -20.5 -4t-16.5 -4q-5 7 -11.5 15t-12.5 16.5t-10.5 15.5t-4.5 11q0 6 9 15.5t21 20
l23.5 21t16.5 20.5q3 5 3 15v25t1 30.5t6 34.5zM226 -9q0 -8 -3.5 -21.5t-9 -26t-12 -22t-13.5 -10.5q-12 6 -18 12t-8.5 12.5t-2 13.5t0.5 15q0 16 3 34.5t30 41.5q3 -2 8.5 -9t11 -15t9.5 -15.5t4 -9.5z" />
    <glyph glyph-name="agrave" unicode="&#xe0;" horiz-adv-x="301" 
d="M246 350q-4 9 -14 22t-20 28t-18 30t-7 27q-20 -3 -36.5 -4.5t-28.5 -4.5q8 -20 23 -37.5t32 -30.5t35.5 -21t33.5 -9zM278 75q-14 2 -23 13t-14.5 25.5t-8 30.5t-2.5 27q0 34 10.5 54.5t29.5 48.5q-7 3 -16 8l-17.5 10t-14 10t-5.5 9q0 8 2 12.5l2 4.5
q-39 -11 -71 -36.5t-54.5 -56t-35 -62t-12.5 -53.5q0 -7 5.5 -24.5t16 -36t25 -32.5t33.5 -14q11 0 17 5.5t11 13.5t10 17.5t13 17.5q10 -14 12.5 -32.5t8.5 -38.5q9 2 23 12.5t26.5 23t21 25t7.5 18.5zM203 224q-18 -15 -24 -33.5t-8.5 -38t-6 -39t-16.5 -37.5
q-10 6 -17.5 18.5t-13 26.5t-8.5 27t-3 21q0 3 2 17.5t7.5 30.5t14 28.5t22.5 12.5q8 0 24.5 -12t26.5 -22z" />
    <glyph glyph-name="aacute" unicode="&#xe1;" horiz-adv-x="267" 
d="M262 461q-22 5 -35 0.5t-21.5 -14t-14.5 -23t-13.5 -26.5t-19 -24t-31.5 -16q3 -3 8.5 -7t13.5 -4q17 0 36.5 14t36.5 33t28.5 38t11.5 29zM258 74q-16 3 -26.5 13.5t-16.5 25.5t-8.5 31t-2.5 29q0 23 11.5 49t28.5 52q-7 6 -16 12.5t-16.5 13t-12.5 14t-4 14.5
q-39 -11 -71 -37t-54.5 -57.5t-35 -63t-12.5 -52.5q0 -7 6 -24t17 -35t25.5 -32t31.5 -14q10 0 17 5.5t12 14l10 17.5t12 17q7 -7 10.5 -17t5.5 -20.5t3 -19.5t3 -14q22 8 47 30.5t36 47.5zM178 229q-18 -21 -24 -40t-8 -37t-4.5 -36t-14.5 -36q-12 3 -20.5 15t-14.5 26
t-9 27.5t-3 20.5q0 3 2.5 17.5t8.5 30.5t15.5 28.5t22.5 12.5q4 0 10.5 -3.5t13 -8l13.5 -9.5t12 -8z" />
    <glyph glyph-name="acircumflex" unicode="&#xe2;" horiz-adv-x="302" 
d="M260 394l-43.5 32l-43.5 32l-91 -106q10 0 19 7t18 15.5l17 16t15 9.5q17 -17 35.5 -30t35.5 -23q11 9 22 22.5t16 24.5zM267 74q-16 2 -26 13.5t-16 26t-8.5 30.5t-2.5 27q0 26 12.5 55t27.5 48q-7 6 -16 12.5t-16.5 13t-12.5 14t-4 14.5q-39 -11 -71 -36.5t-54.5 -56
t-35 -62t-12.5 -55.5q0 -7 6 -24t17 -35t25.5 -32t31.5 -14q10 0 16.5 5.5t12 14t10.5 17.5t12 17q10 -14 12.5 -32.5t9.5 -38.5q10 4 22.5 12t23.5 18.5t20.5 23t15.5 24.5zM188 229q-18 -19 -24 -39.5t-8.5 -40t-6.5 -38.5t-17 -35q-20 23 -31 48t-11 45q0 3 2.5 17.5
t8.5 30.5t15.5 28.5t22.5 12.5q4 0 10.5 -3.5t13 -8l13.5 -9.5t12 -8z" />
    <glyph glyph-name="atilde" unicode="&#xe3;" horiz-adv-x="274" 
d="M247 420q-11 -7 -19 -15.5t-15 -8.5q-4 0 -16.5 5l-26 10.5l-26 10.5t-16.5 5q-11 0 -20.5 -8.5t-17 -20t-13.5 -24l-10 -20.5q9 3 14 7t8.5 7.5t7 6.5t9.5 3q4 0 16.5 -5l26.5 -10.5l26 -10.5t16 -5q8 0 18.5 8.5t19 20.5t14 24.5t4.5 19.5zM252 75q-14 2 -23 13
t-14.5 26t-8 30.5t-2.5 26.5q0 28 10 51.5t30 51.5l-27 14t-27 18q4 6 4 12v6q-39 -8 -71 -33.5t-54.5 -57t-34.5 -63t-12 -52.5q0 -7 6 -24t17 -35t25.5 -32t31.5 -14q11 0 17 5.5t11 13.5t10 17.5t13 17.5q9 -14 12 -32.5t9 -38.5q23 11 47 32t31 47zM177 229
q-16 -14 -22.5 -34t-10 -42t-7.5 -42.5t-15 -34.5q-10 8 -18 20.5t-13.5 26t-8.5 26t-3 20.5q0 3 2.5 17.5t8.5 30.5t15 28.5t21 12.5q8 0 22.5 -9.5z" />
    <glyph glyph-name="adieresis" unicode="&#xe4;" horiz-adv-x="282" 
d="M260 412q-22 5 -35 21.5t-18 33.5q-14 -17 -24 -30.5t-27 -29.5q17 -14 31 -30.5t24 -29.5q10 17 23.5 34zM146 412q-11 -1 -21 7t-18.5 18t-14 18.5t-7.5 10.5q6 -8 2 -16t-11.5 -16t-17 -16t-14.5 -16q17 -11 31.5 -28t24.5 -27q11 17 23.5 34zM253 75q-14 2 -23.5 13
t-15 26t-8 30.5t-2.5 26.5q0 28 10.5 51.5t29.5 51.5l-15.5 8t-17.5 10t-14 10t-6 9q0 8 2 12.5l2 4.5q-39 -11 -71 -36.5t-54.5 -56t-35 -62t-12.5 -55.5q0 -7 6 -24t17 -35t25.5 -32t31.5 -14q11 0 17.5 5.5t11 13.5l9.5 17.5t13 17.5q10 -14 12.5 -32.5t9.5 -38.5
q23 11 47 32t31 47zM178 229q-16 -14 -22.5 -34t-10.5 -42l-8 -42.5t-15 -34.5q-10 8 -18 20.5t-13 26t-8 26t-3 20.5q0 3 2.5 17.5t8.5 30.5t15 28.5t21 12.5q8 0 22.5 -9.5z" />
    <glyph glyph-name="aring" unicode="&#xe5;" horiz-adv-x="270" 
d="M248 74q-16 5 -25.5 17.5t-14.5 27t-6.5 29t-1.5 23.5q0 28 10 51.5t30 51.5q-13 8 -27 24t-31 33q9 8 17.5 23.5t8.5 23.5q0 1 -5.5 12t-13.5 24t-18 24t-20 11q-8 0 -19 -10t-22 -22.5t-18.5 -24.5t-7.5 -16q0 -22 19 -39t39 -28q-30 -20 -52.5 -43.5t-37.5 -48.5
t-22.5 -49t-7.5 -44q0 -6 4 -24t13 -37.5t23 -34.5t35 -15q9 0 14.5 3t10.5 9t11 16.5t16 25.5q9 -14 11.5 -32.5t9.5 -38.5q10 3 22.5 11.5t24 20t20.5 23.5t11 23zM173 367q0 -7 -4.5 -17t-11.5 -17q-11 11 -24 22.5t-13 28.5q0 8 5.5 17t8.5 17q20 -8 29.5 -23.5
t9.5 -27.5zM173 229q-18 -21 -23.5 -40t-8 -37l-5 -36t-14.5 -36q-8 4 -16.5 15.5t-15.5 25t-11 27.5t-4 23q0 2 3 16t9.5 29.5t16 28.5t22.5 13q8 0 22.5 -11z" />
    <glyph glyph-name="ae" unicode="&#xe6;" horiz-adv-x="310" 
d="M288 97q-17 -7 -27.5 -14t-18.5 -7q-9 0 -20.5 6.5t-22.5 17t-18.5 23t-7.5 24.5t14.5 23l32 24t32 29t14.5 39q0 4 -3 13.5l-6.5 20.5t-6.5 23.5t-3 22.5q-23 -14 -46 -26.5t-43 -26.5q-9 10 -11.5 23.5t-0.5 15.5q-21 -7 -43 -29.5t-40 -52.5t-29.5 -63.5t-11.5 -62.5
q0 -3 3.5 -20.5t11 -36.5t18 -34.5t25.5 -15.5q10 0 15 5.5t8 13.5t6 17.5t9 17.5q18 -23 32.5 -33t24 -15t12.5 -10t-2 -17q29 23 57.5 52.5t45.5 52.5zM217 222q0 -4 -4 -9.5t-10 -11.5t-12.5 -11t-11.5 -8q-15 15 -15 34q0 8 6 24.5t13 30.5q3 -1 8.5 -7.5t11.5 -14.5
t10 -16t4 -11zM128 234q-10 -37 -16 -77.5t-16 -80.5q-20 32 -25 54.5t-5 45.5v17q0 9 3 18.5t9.5 20.5t20.5 26q7 -4 15 -10.5t14 -13.5z" />
    <glyph glyph-name="ccedilla" unicode="&#xe7;" horiz-adv-x="242" 
d="M220 297q-12 3 -16.5 2t-12.5 -1q-4 0 -10 4l-13 9l-13 9t-10 4q-20 0 -42 -15.5t-40 -37t-29.5 -44t-11.5 -36.5q0 -69 18.5 -113.5t47.5 -63.5q1 -10 7.5 -24t6.5 -21q0 -4 -3 -10.5t-7.5 -13t-9.5 -12t-8 -7.5q20 3 33.5 15.5t19.5 29t2.5 33.5t-17.5 29q20 1 35.5 9
t25.5 19t14 22t1 19q-11 -2 -18.5 -5.5t-13 -7.5t-9.5 -6.5t-9 -2.5q-17 0 -26.5 21.5t-14.5 48.5t-6.5 51.5t-1.5 29.5q0 8 1.5 12t5.5 10l37 -11.5t25 -5.5q10 0 20.5 6.5t19 16t14.5 20t8 18.5z" />
    <glyph glyph-name="egrave" unicode="&#xe8;" horiz-adv-x="244" 
d="M184 355l-16.5 19t-20.5 26.5t-17 29.5t-6 27q-22 -3 -36.5 -4t-25.5 -5q5 -17 18.5 -34.5t31 -31t37 -21.5t35.5 -6zM212 97q-17 -7 -27 -14t-17 -7q-9 0 -21.5 6.5t-23.5 17t-18.5 23t-7.5 24.5q0 13 14.5 24l32 23.5t32 29t14.5 40.5q0 4 -3 14l-6.5 21.5t-6.5 23
t-3 19.5q-41 -14 -67.5 -36.5t-42 -49.5t-21.5 -55.5t-6 -53.5q0 -35 13.5 -61.5t28.5 -45.5t26 -30.5t6 -17.5q29 23 58 52.5t46 52.5zM141 222q0 -4 -5 -9.5t-11.5 -11t-14 -11t-12.5 -8.5q-4 7 -7 17.5t-3 18.5t6 26t13 32q5 -5 11 -12.5t11 -15.5t8.5 -15t3.5 -11z" />
    <glyph glyph-name="eacute" unicode="&#xe9;" horiz-adv-x="214" 
d="M196 462q-18 -5 -34.5 -7.5t-30.5 -6.5q0 -14 -6.5 -28t-16.5 -26t-21.5 -22t-22.5 -15q3 0 9 -3t20 -3q15 8 33 19t33 25t25.5 31t11.5 36zM194 97q-10 -3 -22.5 -12t-20.5 -9q-9 0 -20.5 7t-22 17.5t-17.5 23t-7 23.5q0 13 14.5 24l32 24t32 28.5t14.5 38.5
q0 4 -3 13.5l-6.5 20.5t-6.5 23.5t-3 22.5q-44 -19 -70.5 -41t-41 -46t-19.5 -50.5t-5 -53.5q0 -4 0.5 -14t2 -22.5t4 -25t7.5 -21.5q7 -12 19 -22.5l22.5 -20t16.5 -18t2 -15.5l28.5 23t29.5 27t24.5 28t15.5 27zM128 222q0 -4 -4.5 -9.5t-11.5 -11l-14 -11t-12 -8.5
q-4 7 -7.5 17.5t-3.5 18.5t6.5 26t13.5 32q5 -5 10.5 -12.5t10.5 -15.5t8.5 -15t3.5 -11z" />
    <glyph glyph-name="ecircumflex" unicode="&#xea;" horiz-adv-x="234" 
d="M224 393l-43.5 31t-43.5 34q-11 -13 -26 -27l-29 -28t-24 -26.5t-12 -22.5q8 0 16.5 6t17 14t16.5 16.5t14 13.5q7 -7 16.5 -15.5t20 -16.5t22 -14t22.5 -7l14.5 22t18.5 20zM195 97q-9 -3 -21.5 -12t-19.5 -9q-9 0 -21 6.5t-22.5 17t-18 23t-7.5 24.5q0 13 14.5 24
l32 24t32 28.5t14.5 38.5q0 4 -3 13.5l-6.5 20.5t-6.5 23.5t-3 22.5q-46 -19 -73 -43t-41.5 -49.5t-18.5 -51t-4 -47.5q0 -4 0.5 -14t2 -22.5t4.5 -25t8 -21.5q6 -11 17.5 -21l22.5 -19.5t17.5 -18t2.5 -17.5l28.5 23t29.5 27t24.5 28t15.5 27zM129 222q0 -4 -5 -9.5
t-11.5 -11t-14 -11t-12.5 -8.5q-4 7 -7 17.5t-3 18.5t6.5 26t12.5 32q5 -5 11 -12.5t11 -15.5t8.5 -15t3.5 -11z" />
    <glyph glyph-name="edieresis" unicode="&#xeb;" horiz-adv-x="262" 
d="M240 412q-17 5 -32.5 22.5t-17.5 31.5q-3 -1 -10 -8t-15.5 -16.5l-17 -19.5t-14.5 -16q8 -5 16.5 -14t16 -18.5l13.5 -17.5t10 -9q14 17 26.5 36t24.5 29zM124 412q-9 1 -18 7t-16.5 14t-13 17t-7.5 17q-5 -8 -13 -16.5t-15.5 -17.5t-13 -17.5t-5.5 -14.5
q17 -10 29.5 -27t26.5 -27q10 17 23 34zM199 97q-17 -7 -28.5 -14t-19.5 -7q-9 0 -20.5 7t-22 17.5t-17.5 23t-7 23.5q0 13 14.5 24l32.5 23.5t32.5 29t14.5 40.5q0 4 -3 14l-6.5 21.5t-6.5 23t-3 19.5q-44 -18 -71 -41t-41.5 -48t-19.5 -50.5t-5 -49.5q0 -4 0.5 -14.5
t2 -23t4.5 -25.5t8 -22q6 -12 18 -22.5l22.5 -20t16.5 -18t2 -15.5q29 23 57.5 52.5t45.5 52.5zM129 222q0 -4 -5 -9.5t-11.5 -11t-14 -11t-12.5 -8.5q-4 7 -7.5 17.5t-3.5 18.5t6.5 26t13.5 32q5 -5 11 -12.5t11 -15.5t8.5 -15t3.5 -11z" />
    <glyph glyph-name="igrave" unicode="&#xec;" horiz-adv-x="149" 
d="M100 352q-8 10 -20.5 22t-23.5 26t-16.5 28.5t1.5 28.5q-20 -4 -36.5 -6t-25.5 -8q4 -15 18 -31.5t32 -30t37 -22.5t34 -7zM144 74q-10 2 -20.5 0.5t-12.5 -3.5q-9 9 -14.5 23t-5.5 22q0 46 5.5 73.5t13 44.5t14 26.5t8.5 18.5q-5 0 -9 -1.5t-12 -1.5q-9 0 -17.5 7
t-14.5 15.5t-9 16t-3 9.5l-32 -40t-33 -43q10 0 20 -3.5t15 -9.5q-8 -45 -6 -81t7.5 -62.5t11 -43t5.5 -23.5q0 -8 -4 -16t-4 -11q17 7 31.5 19t27 24.5t22 23.5t16.5 16z" />
    <glyph glyph-name="iacute" unicode="&#xed;" horiz-adv-x="154" 
d="M153 470q-32 -2 -47 -5t-21 -8.5t-7.5 -14t-6 -19.5t-16.5 -25t-39 -32q4 0 9 0.5t20 -6.5q12 2 28.5 16t33 31.5t29.5 35t17 27.5zM153 83q-7 3 -17 2t-16 -5q-16 12 -18.5 26t-2.5 21q0 49 6.5 76.5t14 43t14 23t6.5 16.5q-15 -4 -27 2t-20.5 15t-13 18t-3.5 12
l-34.5 -41t-30.5 -41q18 -11 24 -26t6.5 -33.5t-2 -39.5t-2 -42.5t6.5 -43.5t24 -42q-4 -7 -6.5 -13.5t0.5 -8.5q11 3 23.5 13.5t25 23.5l23.5 25t19 19z" />
    <glyph glyph-name="icircumflex" unicode="&#xee;" horiz-adv-x="171" 
d="M184 394q-23 13 -47 31.5t-44 32.5l-29 -29.5l-27.5 -29.5t-20.5 -26t-9 -19q6 0 15.5 6t18.5 14.5t16 17t10 12.5l21.5 -17.5l22 -17.5t19 -13t12.5 -5t9 5t10.5 11.5l11.5 14t11 12.5zM159 79q-10 0 -17 -4t-10 -4q-11 14 -18.5 26.5t-7.5 20.5q0 31 7 58.5t15 48.5
t15.5 35t8.5 19q-2 0 -6.5 -1.5t-12.5 -1.5t-16 5t-14.5 12.5t-10.5 16t-5 14.5l-16 -18.5l-18.5 -21.5t-17.5 -22t-13 -21q9 2 20 -1t15 -11q-8 -46 -6 -82t7.5 -62t11 -43t5.5 -24q0 -8 -4 -16t-4 -11l29.5 23t27.5 22t22 21.5t13 21.5z" />
    <glyph glyph-name="idieresis" unicode="&#xef;" horiz-adv-x="217" 
d="M234 412q-21 9 -34.5 25t-15.5 29q-3 -2 -10 -10l-15 -18l-15.5 -20t-11.5 -16q17 -11 31.5 -26.5t24.5 -28.5q10 17 22.5 34.5t23.5 30.5zM123 412q-8 1 -17 6.5t-17 13.5t-14 17.5t-7 17.5q-14 -22 -29 -37t-17 -29q10 -1 17 -8t12.5 -16l10.5 -18t11 -12
q13 17 25.5 36t24.5 29zM203 79q-14 -3 -21.5 -5.5t-10.5 -2.5q-8 10 -14.5 23.5t-6.5 21.5q0 34 5 58.5t12 42.5t15.5 31.5l16.5 25.5q-7 3 -12 2.5t-13 -0.5q-11 0 -19 6t-13 13.5t-7.5 15.5t-3.5 13l-16 -18.5l-18.5 -21.5t-17.5 -22t-13 -21q10 0 20 -3.5t15 -9.5
q-15 -59 -14.5 -96t8 -60.5t16 -35.5t8.5 -20q0 -9 -5 -12t-8 -7l20 -6l41.5 45.5t35.5 42.5z" />
    <glyph glyph-name="eth" unicode="&#xf0;" 
 />
    <glyph glyph-name="ntilde" unicode="&#xf1;" horiz-adv-x="302" 
d="M248 420q-11 -5 -18 -14.5t-15 -9.5q-4 0 -16.5 5l-26.5 10.5l-26.5 10.5t-16.5 5q-14 0 -24 -9t-17.5 -21.5t-12.5 -24.5t-8 -18q9 5 17.5 13.5t15.5 14.5l27 -11l29 -11.5t25 -9t14 -3.5q9 0 18.5 9t17 21t12.5 24t5 19zM280 274q-15 0 -24.5 8t-15.5 17.5t-10 19
t-8 14.5q-7 -14 -19 -24.5t-26 -20l-27.5 -19t-22.5 -20.5q-11 17 -18 36.5t-7 27.5t3 15t0 14q-20 -17 -41.5 -39t-41.5 -39q4 -2 11 -6.5t13.5 -10.5t11 -11t4.5 -7q0 -17 -4 -43.5t-9 -52.5l-9 -45.5t-4 -20.5q0 -10 16 -25.5t29 -32.5q6 1 15 8.5t17 15.5t14 16t6 11
q0 1 -3.5 9t-7.5 18.5l-7.5 19.5t-3.5 11q0 40 3 63.5t10 38t18.5 23t28.5 19.5q14 -12 18 -34.5t3 -50.5t-3 -57t0.5 -53t13 -39t35.5 -15q6 0 14 8.5t14.5 19.5t10.5 21.5t2 15.5q-25 7 -30 22.5t-5 26.5q0 3 3 24t7.5 46t11 47.5t14.5 29.5z" />
    <glyph glyph-name="ograve" unicode="&#xf2;" horiz-adv-x="220" 
d="M170 352q-14 10 -27.5 23.5t-22.5 28t-13 28t1 25.5q-20 -4 -37 -5.5t-29 -3.5q3 -6 14.5 -22t27 -32.5t32.5 -29t31 -12.5h23zM208 162q0 11 -3 21t-10 27.5l-18.5 46t-27.5 76.5q-21 -19 -45.5 -38t-46 -39.5t-35.5 -44t-14 -51.5q0 -19 7 -34t17.5 -32.5l23.5 -39
t25 -54.5q55 34 91 76t36 86zM159 136q0 -3 -3 -12.5t-7.5 -20.5t-9.5 -20t-9 -12q-39 35 -53.5 65.5t-14.5 59.5q0 13 5 30t19 23q5 -4 17 -19.5t24.5 -34.5t22 -36t9.5 -23z" />
    <glyph glyph-name="oacute" unicode="&#xf3;" horiz-adv-x="242" 
d="M224 462q-18 -5 -35 -7t-31 -7q-1 -13 -8.5 -27.5t-18 -28t-22.5 -23t-22 -11.5q3 0 9 -3.5t20 -3.5l34.5 20t34.5 24.5t26.5 30t12.5 36.5zM222 162q0 17 -4.5 30t-12.5 30.5t-18 43t-20 67.5l-51 -41.5t-47 -41.5t-34 -42.5t-13 -45.5q0 -18 7.5 -34.5t19.5 -35
l26.5 -40.5t28.5 -52l52 44.5t37 37.5t22 37t7 43zM173 124q0 -10 -1 -16t-4 -11.5t-8.5 -11l-14.5 -14.5q-29 27 -49 62t-20 67q0 3 2.5 9.5t6 14t8 14.5t7.5 11q11 -6 24 -21.5t24 -34.5t18 -38t7 -31z" />
    <glyph glyph-name="ocircumflex" unicode="&#xf4;" horiz-adv-x="228" 
d="M209 390q-23 13 -47.5 31.5l-44.5 32.5l-90 -103q7 0 16 6t17.5 14l16.5 16t14 13l21.5 -17.5l22 -17.5t19 -13t13.5 -5q4 0 9 5t11 12l11.5 14t10.5 12zM212 162q0 17 -1 25.5t-3.5 14t-7 12t-10.5 20t-14 36.5t-19 63l-42.5 -34t-47.5 -42.5t-39 -46.5t-16 -48
q0 -23 10 -42.5t23 -38.5l25.5 -39t18.5 -42q35 25 58.5 46t38 40t20.5 37.5t6 38.5zM168 133q0 -6 -3 -14.5t-7.5 -17.5t-9.5 -17t-9 -13q-30 23 -51.5 58t-21.5 73q0 8 7.5 22t15.5 25q5 -2 18 -17t26.5 -33.5t24 -37.5t10.5 -28z" />
    <glyph glyph-name="otilde" unicode="&#xf5;" horiz-adv-x="251" 
d="M244 420q-11 -5 -18 -14.5t-15 -9.5q-4 0 -16.5 5l-26.5 10.5l-26.5 10.5t-16.5 5q-8 0 -18.5 -9t-19.5 -21t-14.5 -24t-4.5 -19q9 4 17 13t16 15l26 -11l27 -11.5t23 -9t14 -3.5q7 0 16 8.5t17 20.5t13.5 24t6.5 20zM222 164q0 4 -7.5 26l-17.5 49.5l-20 54t-14 39.5
q-23 -20 -48 -39t-45.5 -39t-34 -44t-13.5 -55q0 -26 5 -37.5t15 -24t23 -32.5t30 -62q55 35 91 78t36 86zM173 133q0 -4 -3.5 -13t-8 -19.5t-9 -19t-7.5 -10.5q-15 7 -28.5 23.5t-23.5 36t-16 38.5t-6 31q0 7 8 22.5t16 26.5q5 -2 18 -17t26.5 -33.5t24 -37.5t10.5 -28h-1z
" />
    <glyph glyph-name="odieresis" unicode="&#xf6;" horiz-adv-x="254" 
d="M258 412q-22 9 -34.5 24t-16.5 31q-14 -17 -24 -30.5t-27 -30.5q9 -3 17.5 -11.5t15.5 -17.5t12.5 -17.5t9.5 -12.5l24.5 34.5t22.5 30.5zM146 412q-11 -1 -21 7t-18.5 18t-14 18.5t-7.5 10.5q4 -15 -1.5 -23.5t-14 -14.5l-16.5 -11.5t-8 -15.5q17 -10 29.5 -25.5
t25.5 -28.5l22 34t24 31zM222 162q0 13 -1 20t-3.5 12.5t-6.5 12.5t-10 21.5t-14.5 39.5t-19.5 65l-51 -41.5t-47 -41.5t-34 -42.5t-13 -45.5q0 -17 8 -35t20.5 -38l27 -42t26.5 -47l52 44.5t37 37.5t22 37t7 43zM173 124q0 -10 -1 -16t-4 -11.5t-8.5 -11l-14.5 -14.5
q-29 27 -49 62t-20 67q0 3 2.5 9.5t6 14t8 14.5t7.5 11q11 -6 24 -21.5t24 -34.5t18 -38t7 -31z" />
    <glyph glyph-name="divide" unicode="&#xf7;" horiz-adv-x="300" 
d="M186 320q0 11 -10 21t-26 10q-3 0 -9 -2t-12 -5.5t-10.5 -9.5t-4.5 -14q0 -11 10 -21t26 -10q3 0 9 2t12 5.5t10.5 9.5t4.5 14zM278 187v52h-256v-52h256zM186 107q0 11 -10 21t-26 10q-3 0 -9 -2t-12 -5.5t-10.5 -9.5t-4.5 -14q0 -11 10 -21t26 -10q3 0 9 2t12 5.5
t10.5 9.5t4.5 14z" />
    <glyph glyph-name="oslash" unicode="&#xf8;" horiz-adv-x="274" 
d="M252 228v38q-12 -6 -23.5 -14.5t-17.5 -11.5q-17 17 -21.5 32t-4.5 27t0.5 20.5t-5.5 13.5q-31 -21 -61.5 -47t-51.5 -55t-27 -61t13 -65q-9 -5 -20 -15.5t-11 -18.5t2.5 -16.5t2.5 -14.5q11 8 23.5 18.5l21.5 17.5q14 -22 23.5 -44t16.5 -32q45 23 69.5 61t38 74.5
t19.5 63.5t13 29zM160 198l-57 -51q-3 14 -9 29.5t-6 23.5q0 7 8 22.5t16 26.5q4 -2 10.5 -8.5t14 -15l14 -16t9.5 -11.5zM191 133q0 -4 -3.5 -13t-8.5 -19.5t-9.5 -19t-7.5 -10.5q-11 6 -21.5 19t-20.5 23q13 14 30.5 28t29.5 19l7.5 -13t3.5 -14z" />
    <glyph glyph-name="ugrave" unicode="&#xf9;" horiz-adv-x="309" 
d="M211 352q-6 10 -17 20.5t-21.5 22.5t-17 26.5t-4.5 32.5q-22 -3 -36.5 -4t-24.5 -5q4 -17 18 -34.5t31.5 -31t37 -21.5t34.5 -6zM284 82q-16 -4 -23.5 4.5t-10.5 22t-2.5 28t0.5 23.5q0 29 2 43t6 22.5t8.5 16t10.5 23.5q-25 8 -35 25.5t-1 37.5l-57.5 -36.5t-30.5 -27.5
l12.5 -7.5t14.5 -10.5t12 -14.5t5 -18.5q0 -1 0.5 -12t0 -28t-3 -36.5t-8.5 -36t-16 -27.5t-26 -11q-9 0 -17 9.5t-9 24.5q-4 48 -6.5 75t-4.5 42t-3.5 21t-2.5 13t-1.5 18t-0.5 35q0 8 4 17t4 16q-7 -9 -18 -20l-23 -23.5t-23.5 -26t-18.5 -26.5q31 0 36 -5q1 -12 2.5 -26
t3 -26.5t2 -23t0.5 -14.5q0 -13 0.5 -24t-1.5 -21.5t-7.5 -22t-17.5 -24.5q9 0 18.5 -5.5t18 -12.5t15.5 -13.5t12 -9.5q24 16 46 35l43 36q10 -17 18 -38.5t13 -36.5q8 9 20.5 20.5t23 22.5t16 20t0.5 14z" />
    <glyph glyph-name="uacute" unicode="&#xfa;" horiz-adv-x="311" 
d="M287 462q-17 -4 -34.5 -7.5t-30.5 -6.5q0 -12 -6 -26t-16 -26.5t-22 -22.5t-23 -15q3 -3 4.5 -5t9.5 -2q10 0 32 11t43 27.5t35 36t8 36.5zM283 82q-16 -4 -23.5 4.5t-10 22t-2 28t0.5 23.5q0 29 2 43t5.5 22.5t8.5 16t10 23.5q-25 8 -35 25.5t-1 37.5l-57.5 -36.5
t-30.5 -27.5l13 -7.5t15 -10.5t12 -14.5t5 -18.5q0 -1 0.5 -12t-0.5 -28t-3.5 -36.5t-8.5 -36t-16 -27.5t-26 -11q-8 0 -16 9.5t-9 24.5q-4 48 -6.5 75t-4.5 42t-3.5 21t-2.5 13t-1.5 18t-0.5 35q0 8 5.5 17t3.5 16l-21 -20.5l-24 -24t-22.5 -26t-16.5 -25.5q17 0 24.5 -1
t10.5 -4q1 -12 3 -26t3 -26.5t2 -23t1 -14.5q0 -13 0.5 -24t-2 -21.5t-8 -22t-17.5 -24.5q9 0 19 -5.5t18.5 -12.5t15.5 -13.5t11 -9.5q25 16 47 35l42 36q11 -17 18.5 -38.5l12.5 -36.5l21 20.5l22.5 22.5t16 20t0.5 14z" />
    <glyph glyph-name="ucircumflex" unicode="&#xfb;" horiz-adv-x="314" 
d="M266 394q-23 13 -47 31.5t-44 32.5l-91 -103q8 0 16.5 6t17 14l16.5 16t14 13l21.5 -17.5t22.5 -17.5t19.5 -13t12.5 -5t9 5t10.5 11.5l11.5 14t11 12.5zM292 84q-3 -3 -6 -3.5t-11 -0.5q-12 0 -17.5 8.5t-7.5 20.5t-2 26v25q0 29 2 43t6 22.5t8.5 16t10.5 24.5
q-21 4 -33.5 22t-2.5 40l-58 -36.5t-30 -27.5q5 -2 12.5 -6t14.5 -10.5t12 -15t5 -19.5q0 -1 0.5 -12t-0.5 -28t-3.5 -36.5t-8.5 -36t-16 -27.5t-25 -11q-18 0 -23.5 15.5t-5 35t4.5 37t4 21.5q0 20 -5 43t-9 45t-5 41.5t7 32.5l-23 -21l-26 -25t-23.5 -26t-15.5 -24
q31 0 35 -5q2 -12 3.5 -26t3 -26.5t2 -23t0.5 -14.5q0 -13 0.5 -24t-1.5 -21.5t-7.5 -22t-17.5 -24.5q9 0 18.5 -5.5t18 -12.5t15.5 -13.5t12 -9.5q24 16 46 35l42 36q11 -17 19 -38.5t12 -36.5l39.5 41t29.5 38z" />
    <glyph glyph-name="udieresis" unicode="&#xfc;" horiz-adv-x="309" 
d="M275 412q-7 -3 -16.5 4.5t-18.5 17.5t-16 19.5t-10 12.5q5 -7 1 -15t-12 -16.5t-17 -17t-13 -15.5q17 -11 29.5 -26.5t26.5 -28.5q10 17 22.5 34.5t23.5 30.5zM160 412q-11 4 -20.5 12.5t-17.5 17t-14 15.5t-9 9q0 -11 -4.5 -19.5t-11 -15.5t-13.5 -13t-13 -12
q17 -13 29.5 -29.5t26.5 -29.5q11 17 23.5 34zM284 82q-16 -4 -23.5 4.5t-10.5 22t-2.5 28t0.5 23.5q0 29 2 43t6 22.5t8.5 16t10.5 23.5q-25 8 -35 25.5t-1 37.5l-57.5 -36.5t-30.5 -27.5l12.5 -7.5t14.5 -10.5t12 -14.5t5 -18.5q0 -1 0.5 -12t0 -28t-3 -36.5t-8.5 -36
t-16 -27.5t-26 -11q-9 0 -17 9.5t-9 24.5q-4 48 -6.5 75t-4.5 42t-3.5 21t-2.5 13t-1.5 18t-0.5 35q0 8 6 17t4 16l-42.5 -43t-42.5 -53q31 0 36 -5q1 -12 2.5 -26t3 -26.5t2 -23t0.5 -14.5q0 -13 0.5 -24t-1.5 -21.5t-7.5 -22t-17.5 -24.5q9 0 18.5 -5.5t18 -12.5
t15.5 -13.5t12 -9.5q24 16 46 35l43 36q10 -17 18 -38.5t13 -36.5q8 9 20.5 20.5t23 22.5t16 20t0.5 14z" />
    <glyph glyph-name="yacute" unicode="&#xfd;" 
 />
    <glyph glyph-name="thorn" unicode="&#xfe;" 
 />
    <glyph glyph-name="ydieresis" unicode="&#xff;" horiz-adv-x="302" 
d="M257 412q-9 1 -17.5 7t-16 14t-13 17t-8.5 17q-14 -17 -24 -30.5t-27 -29.5q7 -6 15 -15l16 -18l15 -16.5l10 -10.5q13 17 25.5 36t24.5 29zM142 412q-12 -1 -22 7t-18.5 18t-14 18.5t-7.5 10.5q6 -8 2 -16t-11.5 -16t-16.5 -16t-14 -16q17 -11 29.5 -26.5t26.5 -28.5
l21 34t25 31zM280 184q0 29 -4 43t-12.5 26l-21.5 29.5t-31 55.5q-20 -14 -39 -33t-37 -34q-7 6 -13.5 16t-11.5 20l-9 18.5t-5 12.5q-15 -5 -26 -16t-19.5 -24t-15.5 -26t-13 -22h32q13 -14 19.5 -26t8.5 -22.5t2 -21.5v-20t0.5 -18t-1.5 -18t-8.5 -24.5t-21.5 -36.5
q13 0 25 -7.5t21.5 -16.5t16 -17t7.5 -9q13 24 32 49l36 48q-13 1 -22 -2.5t-15 -5.5q-7 10 -11.5 19t-4.5 17q0 9 2.5 26.5t6 36.5t8 34t8.5 18q20 0 31.5 -18t17.5 -41.5t8 -47t2 -33.5q0 -24 -23 -51t-50.5 -55t-50.5 -55.5t-23 -51.5q0 -8 7.5 -16t15.5 -8t10.5 2t5.5 2
q15 47 33.5 78t37 52.5t35.5 37.5t30.5 34t21.5 41.5t8 60.5z" />
    <glyph glyph-name="minus" unicode="&#xe000;" 
 />
    <glyph glyph-name="notequal" unicode="&#xe001;" horiz-adv-x="303" 
d="M280 270q-6 3 -14 14t-15.5 25.5t-13 29t-5.5 25.5q-25 -30 -55 -60t-57 -53q10 -4 19.5 -6.5t16.5 -7.5q-8 -23 -5 -56.5t10.5 -69t17.5 -66.5l16 -49q12 9 23 22t20.5 27.5t16 29t9.5 26.5q-8 0 -15.5 -4t-14.5 -4q-4 2 -8.5 11t-8 20.5t-6 22.5t-2.5 17q0 8 0.5 19.5
t2.5 23t5 20.5t9 12q7 4 16.5 6t18 5t14 7.5t5.5 12.5zM249 412q-10 3 -22.5 8l-24.5 9.5t-21.5 7.5t-13.5 3q-19 0 -36 -11.5t-32.5 -29.5t-28.5 -39.5t-22.5 -41l-16.5 -34.5t-9 -20l14.5 -21.5t7.5 -18.5v-137q0 -8 4 -33.5t9.5 -53t11.5 -50t10 -25.5q0 3 3 25.5l7 54.5
l9 70t9 73t6.5 63t2.5 40q0 4 -4 16t-9.5 25t-9.5 25t-4 16q0 3 2.5 12.5t8 19.5t15 18t23.5 8q4 0 12.5 -4t18.5 -9.5t18.5 -9.5t12.5 -4q1 0 8 5.5t15 13t15.5 16t10.5 13.5z" />
    <glyph glyph-name="lessequal" unicode="&#xe002;" horiz-adv-x="368" 
d="M346 403q-13 -3 -25 0.5t-24 9t-23 10t-21 4.5q-17 0 -23.5 -9l-6.5 -9l-12 -6l-11.5 3.5l-25.5 8l-27.5 8.5t-17.5 4q-15 0 -29 -11.5t-26 -29t-21.5 -39t-16.5 -40.5t-10.5 -34t-3.5 -20q0 -4 3 -29l7.5 -61.5l10 -79l10.5 -80.5t9.5 -66t6.5 -35q6 30 9 65l6 70
l6 67.5t10 58.5t19 42.5t31 19.5l47 -323q13 47 11 98.5t0 98t18.5 82.5t66.5 52q-14 15 -30 21t-30 13.5t-23.5 20.5t-9.5 41q0 1 0.5 8t3 15t8.5 14.5t17 6.5q4 0 12 -2.5t16.5 -6t16.5 -6t12 -2.5q18 0 32 13.5t28 33.5zM175 354q-8 -20 -14 -46.5t-20 -49.5
q-15 -3 -27 4.5t-20.5 19.5t-13.5 26t-5 23q0 2 1.5 9t5 14.5t9 13t13.5 5.5q4 0 12.5 -2.5l18.5 -5.5l20.5 -6t19.5 -5z" />
    <glyph glyph-name="greaterequal" unicode="&#xe003;" horiz-adv-x="324" 
d="M302 258q0 4 -5.5 10t-12.5 17t-14.5 27t-11.5 39q-4 -4 -17.5 -20l-29 -33t-30.5 -31t-23 -14q-11 0 -25.5 5.5t-27.5 16t-21.5 24t-8.5 30.5q0 1 2 8t6 15t10.5 14.5t15.5 6.5q4 0 13 -2.5t19 -6t19 -6t13 -2.5q17 0 30.5 13.5t27.5 33.5q-13 -3 -25 0.5t-24 9t-23 10
t-21 4.5q-23 0 -44 -23t-37 -52.5t-25.5 -57.5t-9.5 -38q0 -7 3 -33.5t7.5 -63l10 -78l10.5 -78.5t9.5 -65t6.5 -36q15 49 19.5 91.5t5.5 78t2 63t8.5 47.5t25 32t52.5 15l4 -22q-6 -22 -8 -48.5t1.5 -55t15 -58.5t34.5 -58q9 9 19 23t19 28t15 27.5t8 22.5q-8 0 -15 -4
t-10 -4q-12 19 -21 39t-9 34q0 37 10.5 55t23 26.5t23 12t10.5 11.5z" />
    <glyph glyph-name="partialdiff" unicode="&#xe004;" horiz-adv-x="158" 
d="M226 403q-13 -3 -25 0.5t-24 9t-23 10t-21 4.5q-20 0 -40 -22.5t-36 -51.5t-25.5 -56.5t-9.5 -36.5q0 -4 2 -29.5t6 -62.5l9 -79.5t11.5 -80.5t13.5 -67.5t14 -38.5q12 45 18.5 84.5t8 78t-2 79.5t-9.5 89q-2 15 -5 23l-6 16.5t-5 21.5t-2 37q0 2 3.5 11t11 20t19.5 11
q4 0 12.5 -2.5t17.5 -6t17.5 -6t12.5 -2.5q16 0 29.5 13.5t27.5 33.5z" />
    <glyph glyph-name="summation" unicode="&#xe005;" horiz-adv-x="324" 
d="M302 323q-9 -1 -31 -12.5t-47 -28l-49.5 -33.5l-39.5 -27.5t-16 -11.5l14.5 1.5t32.5 2t32.5 0t14.5 -4.5q0 -9 -10 -25.5t-22.5 -34t-24.5 -31t-16 -16.5q-12 14 -20.5 35.5t-8.5 35.5q0 43 11 60t24.5 23t24.5 7.5t11 14.5q0 5 -9 11.5t-19 16.5t-16.5 26t-1.5 41
q-26 -30 -56.5 -60t-57.5 -53q10 -4 19.5 -6.5t16.5 -7.5q-8 -23 -5 -57t10.5 -69t17.5 -66l16 -49q19 17 33.5 38t31.5 41q11 -6 24.5 -17.5t13.5 -19.5q0 -5 -7 -14t-15.5 -21t-15.5 -27t-7 -32q0 -2 2 -16t7 -29.5t13.5 -28t22.5 -12.5t29 16.5t27 38.5t20 43.5t8 30.5
q0 4 -2.5 13t-6 19t-6 19t-2.5 13q0 9 10 20l20 21q-10 0 -19.5 -4t-16.5 -4q-14 17 -23.5 31.5t-15.5 28.5q33 28 43 51t12.5 43t4.5 38t20 38zM240 -29q0 -9 -3 -21t-7.5 -24t-10.5 -22t-12 -15q-15 9 -22 16t-9.5 14t-2.5 14v14t-0.5 14t2 13.5t9.5 18.5t22 29
q13 -7 23.5 -20.5t10.5 -30.5z" />
    <glyph glyph-name="product" unicode="&#xe006;" horiz-adv-x="158" 
d="M226 403q-13 -3 -25 0.5t-24 9t-23 10t-21 4.5q-20 0 -40 -22.5t-36 -51.5t-25.5 -56.5t-9.5 -36.5q0 -4 2 -29.5t6 -62.5l9 -79.5t11.5 -80.5t13.5 -67.5t14 -38.5q12 45 18.5 84.5t8 78t-2 79.5t-9.5 89q-2 15 -5 23l-6 16.5t-5 21.5t-2 37q0 2 3.5 11t11 20t19.5 11
q4 0 12.5 -2.5t17.5 -6t17.5 -6t12.5 -2.5q16 0 29.5 13.5t27.5 33.5z" />
    <glyph glyph-name="pi" unicode="&#xe007;" horiz-adv-x="158" 
d="M226 403q-13 -3 -25 0.5t-24 9t-23 10t-21 4.5q-20 0 -40 -22.5t-36 -51.5t-25.5 -56.5t-9.5 -36.5q0 -4 2 -29.5t6 -62.5l9 -79.5t11.5 -80.5t13.5 -67.5t14 -38.5q12 45 18.5 84.5t8 78t-2 79.5t-9.5 89q-2 15 -5 23l-6 16.5t-5 21.5t-2 37q0 2 3.5 11t11 20t19.5 11
q4 0 12.5 -2.5t17.5 -6t17.5 -6t12.5 -2.5q16 0 29.5 13.5t27.5 33.5z" />
    <glyph glyph-name="integral" unicode="&#xe008;" horiz-adv-x="270" 
d="M248 407q-10 3 -22.5 9t-25 11l-22.5 9t-14 4q-19 0 -36.5 -12t-32.5 -30t-28 -40t-22 -41.5t-15 -34t-8 -18.5q7 -7 12 -13t5 -14v-145q0 -4 2 -25t5 -47.5l6 -53t6 -41.5q8 2 15 26t13 58.5t10.5 75t8 76t5 61.5t1.5 31q0 4 -4 16t-9.5 25.5t-9.5 25t-4 16.5
q0 6 4 15.5t11.5 18.5t17 15t20.5 6q4 0 12 -4t17 -9.5t17 -9.5t12 -4t11 4.5t14.5 11.5l15 14.5z" />
    <glyph glyph-name="Omega" unicode="&#xe009;" horiz-adv-x="158" 
d="M226 403q-13 -3 -25 0.5t-24 9t-23 10t-21 4.5q-20 0 -40 -22.5t-36 -51.5t-25.5 -56.5t-9.5 -36.5q0 -4 2 -29.5t6 -62.5l9 -79.5t11.5 -80.5t13.5 -67.5t14 -38.5q12 45 18.5 84.5t8 78t-2 79.5t-9.5 89q-2 15 -5 23l-6 16.5t-5 21.5t-2 37q0 2 3.5 11t11 20t19.5 11
q4 0 12.5 -2.5t17.5 -6t17.5 -6t12.5 -2.5q16 0 29.5 13.5t27.5 33.5z" />
    <glyph glyph-name="radical" unicode="&#xe00a;" horiz-adv-x="158" 
d="M226 403q-13 -3 -25 0.5t-24 9t-23 10t-21 4.5q-20 0 -40 -22.5t-36 -51.5t-25.5 -56.5t-9.5 -36.5q0 -4 2 -29.5t6 -62.5l9 -79.5t11.5 -80.5t13.5 -67.5t14 -38.5q12 45 18.5 84.5t8 78t-2 79.5t-9.5 89q-2 15 -5 23l-6 16.5t-5 21.5t-2 37q0 2 3.5 11t11 20t19.5 11
q4 0 12.5 -2.5t17.5 -6t17.5 -6t12.5 -2.5q16 0 29.5 13.5t27.5 33.5z" />
    <glyph glyph-name="approxequal" unicode="&#xe00b;" horiz-adv-x="273" 
d="M378 403l-24 11t-25 11t-21 8t-13 3t-11 -4t-14.5 -9.5t-14.5 -9.5t-11 -4t-14 4t-21.5 9.5t-21.5 9.5t-14 4q-21 0 -39.5 -11t-34 -28.5t-27.5 -38.5t-21.5 -40t-15.5 -33.5t-9 -20.5q3 -3 6.5 -11.5l7.5 -19t6.5 -20.5t2.5 -16v-119q0 -4 2 -22.5t4 -42t4.5 -48
t4.5 -41.5l51 327q0 4 -3.5 15l-7.5 24l-7.5 24t-3.5 15q0 7 3 17t9 19t15.5 15.5t23.5 6.5q11 0 25.5 -8t25.5 -17q-6 -11 -13 -27.5l-13 -31.5t-10 -27t-4 -14q0 -11 4 -49l9.5 -87.5l11 -103.5t9.5 -98l51 325q0 4 -3.5 15.5l-7.5 24.5l-7.5 24.5t-3.5 15.5q0 8 3 18
t9 19t15 15t21 6q4 0 12.5 -3.5t17.5 -8t17 -8t11 -3.5q4 0 11 4t15 10t15.5 13z" />
    <glyph glyph-name="Delta" unicode="&#xe00c;" horiz-adv-x="795" 
d="M453 300q11 11 19.5 22t11.5 16q-9 6 -19.5 15.5t-20 19.5t-16 18.5t-5.5 12.5q0 4 12.5 23.5l29 45.5l34 53t27.5 46q2 3 8 25t16.5 46.5t26 45t37.5 20.5q11 0 21 -8.5t17 -20t10.5 -24t2.5 -21.5q-2 -11 -17.5 -24t-35 -34.5t-38.5 -55t-26 -84.5v-17t2.5 -35
t7.5 -41.5t15 -36.5q-21 6 -50 6q-17 0 -34.5 -3.5t-35.5 -9.5zM421 103q-2 -9 -10 -16t-18.5 -12.5l-21 -10.5l-18.5 -9q0 5 2 16t7 22.5t13 20t20 8.5q8 0 14 -6t12 -13zM458 -94l-26.5 -18.5t-24.5 -10.5q-4 0 -11.5 3.5t-15.5 8t-15.5 8t-11.5 3.5q-8 0 -23.5 -5.5
t-29.5 -11.5q25 42 33.5 72l14 49.5t14 28.5t32.5 9q23 0 35 -18.5t18 -42t7.5 -46t3.5 -29.5zM304 198q-15 0 -29 3.5t-23 6.5q-8 -10 -21 -20.5t-21 -10.5t-10.5 5t-0.5 13q1 8 10 18l18 20q-5 9 -10 20.5t-10 21.5q14 23 35.5 47.5l43.5 48.5q-12 5 -26 7t-27 5.5t-24 11
t-16 22.5q56 45 86 77.5t45 61.5t21 59.5l14 72.5q4 18 19 23.5t26 5.5q19 0 31.5 -22.5t20 -51t10 -55t1.5 -35.5q-5 -32 -20 -62t-35.5 -55t-42.5 -42.5t-40 -23.5q1 -10 9.5 -23t20 -26.5t23.5 -25t21 -17.5q-31 -17 -56.5 -41t-40.5 -50q-21 -36 -29.5 -60t-11 -40
t-1 -27t1.5 -22t-4.5 -24t-18.5 -33q4 0 11.5 -1t9.5 -3q-3 -20 -3.5 -43.5t-2.5 -31.5q-2 -10 -8 -20.5t-13.5 -19.5l-13.5 -16.5t-7 -12.5q-1 -4 3 -10.5t9.5 -13t11.5 -11.5t9 -5q4 5 10.5 12t14 13t15.5 10.5t16 4.5q4 0 12.5 -5l17.5 -10.5l17.5 -10.5t12.5 -5t15 8.5
t25 20.5l29 25t26 21q8 -10 13.5 -23t11.5 -24.5t15 -19.5t25 -8q12 0 24 11t22.5 26t18.5 29.5l12 21.5q-14 -3 -25 -8t-19 -5q-4 0 -14.5 23l-26 54.5t-34.5 64t-40 52.5l36.5 28.5t15.5 24.5q1 6 -2 16l-6.5 21.5t-6.5 23.5t-1 21q-26 -17 -54.5 -39.5t-54.5 -35.5
q-2 7 -3 14t1 15q3 20 15.5 43.5t32 44t44 34t52.5 13.5q60 0 93.5 -34t23.5 -104q0 -3 -5 -13.5t-13 -22.5t-19 -21t-24 -9q-8 0 -19.5 3.5t-17.5 -0.5q-1 -3 1.5 -10t5.5 -11h45q16 0 29 12.5t23 29t16 33t7 23.5q6 40 -4.5 69.5t-35.5 46.5q15 2 28.5 9.5t24 17.5
t17.5 21t9 20q-8 -3 -18 -8.5t-19 -11t-16.5 -9.5t-10.5 -4q-17 0 -21.5 16t-3 37t5.5 41.5t6 29.5q5 32 10.5 62t22.5 60t50.5 61t95.5 64q-15 10 -34.5 12t-32.5 5q-18 4 -21.5 14.5t-5.5 22t-9 20t-32 8.5q-24 0 -43 -12t-34 -29t-27.5 -35t-24.5 -30q-6 9 -10.5 25
t-11 31t-18 26t-31.5 11q-28 0 -59.5 -17.5t-51.5 -40.5q-16 9 -27 18.5t-21.5 17t-23 12.5t-31.5 5q-22 0 -56 -9t-67.5 -27t-59.5 -45t-31 -63q-1 -4 0.5 -17t3.5 -27.5t3.5 -27.5t1.5 -17q-2 -8 -8.5 -23.5t-11.5 -22.5q23 5 38.5 15t25 22t13.5 24t6 21q1 4 0.5 19
t-1.5 32t-1.5 32t-0.5 19q0 2 5 12t13.5 21.5t20 21t24.5 9.5q24 0 44 -14.5t34.5 -36t21 -46.5t3.5 -47q-6 -38 -31.5 -74.5t-58 -68t-64.5 -55.5l-50 -38q23 0 31 1.5t17 1.5t22 -9.5t25.5 -22l23.5 -24.5t17 -17q-8 -13 -17 -25.5t-17 -21.5q5 -11 9.5 -19.5t2.5 -16.5
q-1 -8 -3.5 -12l-2.5 -4q-13 1 -20 5.5t-10 9.5t-3 9q0 5 1 7q-21 -4 -37 -6.5t-25 1.5q9 -7 17.5 -20t17.5 -23l13.5 6t14.5 3t13 -3t10 -9q-5 -7 -12 -12.5t-14 -9.5t-13 -5.5t-9 -1.5q-2 -14 -7 -28t-10 -24q14 7 29.5 13l25.5 10q-1 12 6.5 27.5t20.5 19.5
q14 -11 14 -26v-26l22 -10t22 -13q-1 12 0.5 27.5t4.5 29.5q-12 1 -22.5 11t-13.5 18q13 12 24 12q8 0 12 -4.5t12 -4.5t21.5 14z" />
    <glyph glyph-name="nonbreakingspace" unicode="&#xe00d;" horiz-adv-x="153" 
 />
    </font>
</defs>
</svg>
